  0
SECTION
  2
HEADER
  9
$ACADVER
  1
AC1009
  9
$INSBASE
 10
0.0
 20
0.0
 30
0.0
  9
$EXTMIN
 10
-42.539957616648437
 20
-94.43933848561295
 30
0.0
  9
$EXTMAX
 10
57.460042383351571
 20
46.55957971424673
 30
0.0
  9
$LIMMIN
 10
0.0
 20
0.0
  9
$LIMMAX
 10
420.0
 20
297.0
  9
$ORTHOMODE
 70
     1
  9
$REGENMODE
 70
     1
  9
$FILLMODE
 70
     1
  9
$QTEXTMODE
 70
     0
  9
$MIRRTEXT
 70
     0
  9
$DRAGMODE
 70
     2
  9
$LTSCALE
 40
1.0
  9
$OSMODE
 70
    39
  9
$ATTMODE
 70
     1
  9
$TEXTSIZE
 40
2.5
  9
$TRACEWID
 40
1.0
  9
$TEXTSTYLE
  7
STANDARD
  9
$CLAYER
  8
0
  9
$CELTYPE
  6
BYLAYER
  9
$CECOLOR
 62
   256
  9
$DIMSCALE
 40
1.0
  9
$DIMASZ
 40
2.5
  9
$DIMEXO
 40
0.625
  9
$DIMDLI
 40
3.75
  9
$DIMRND
 40
0.0
  9
$DIMDLE
 40
0.0
  9
$DIMEXE
 40
1.25
  9
$DIMTP
 40
0.0
  9
$DIMTM
 40
0.0
  9
$DIMTXT
 40
2.5
  9
$DIMCEN
 40
2.5
  9
$DIMTSZ
 40
0.0
  9
$DIMTOL
 70
     0
  9
$DIMLIM
 70
     0
  9
$DIMTIH
 70
     0
  9
$DIMTOH
 70
     0
  9
$DIMSE1
 70
     0
  9
$DIMSE2
 70
     0
  9
$DIMTAD
 70
     1
  9
$DIMZIN
 70
     8
  9
$DIMBLK
  1

  9
$DIMASO
 70
     1
  9
$DIMSHO
 70
     1
  9
$DIMPOST
  1

  9
$DIMAPOST
  1

  9
$DIMALT
 70
     0
  9
$DIMALTD
 70
     3
  9
$DIMALTF
 40
0.03937007874016
  9
$DIMLFAC
 40
1.0
  9
$DIMTOFL
 70
     1
  9
$DIMTVP
 40
0.0
  9
$DIMTIX
 70
     0
  9
$DIMSOXD
 70
     0
  9
$DIMSAH
 70
     0
  9
$DIMBLK1
  1

  9
$DIMBLK2
  1

  9
$DIMSTYLE
  2
ISO-25
  9
$DIMCLRD
 70
     0
  9
$DIMCLRE
 70
     0
  9
$DIMCLRT
 70
     0
  9
$DIMTFAC
 40
1.0
  9
$DIMGAP
 40
0.625
  9
$LUNITS
 70
     2
  9
$LUPREC
 70
     4
  9
$SKETCHINC
 40
1.0
  9
$FILLETRAD
 40
0.0
  9
$AUNITS
 70
     0
  9
$AUPREC
 70
     0
  9
$MENU
  1
.
  9
$ELEVATION
 40
0.0
  9
$PELEVATION
 40
0.0
  9
$THICKNESS
 40
0.0
  9
$LIMCHECK
 70
     0
  9
$BLIPMODE
 70
     0
  9
$CHAMFERA
 40
0.0
  9
$CHAMFERB
 40
0.0
  9
$SKPOLY
 70
     0
  9
$TDCREATE
 40
2460340.5718488768
  9
$TDUPDATE
 40
2460340.5730059608
  9
$TDINDWG
 40
0.0011623148
  9
$TDUSRTIMER
 40
0.0011622569
  9
$USRTIMER
 70
     1
  9
$ANGBASE
 50
0.0
  9
$ANGDIR
 70
     0
  9
$PDMODE
 70
     0
  9
$PDSIZE
 40
0.0
  9
$PLINEWID
 40
0.0
  9
$COORDS
 70
     1
  9
$SPLFRAME
 70
     0
  9
$SPLINETYPE
 70
     6
  9
$SPLINESEGS
 70
     8
  9
$ATTDIA
 70
     1
  9
$ATTREQ
 70
     1
  9
$HANDLING
 70
     1
  9
$HANDSEED
  5
487
  9
$SURFTAB1
 70
     6
  9
$SURFTAB2
 70
     6
  9
$SURFTYPE
 70
     6
  9
$SURFU
 70
     6
  9
$SURFV
 70
     6
  9
$UCSNAME
  2

  9
$UCSORG
 10
0.0
 20
0.0
 30
0.0
  9
$UCSXDIR
 10
1.0
 20
0.0
 30
0.0
  9
$UCSYDIR
 10
0.0
 20
1.0
 30
0.0
  9
$PUCSNAME
  2

  9
$PUCSORG
 10
0.0
 20
0.0
 30
0.0
  9
$PUCSXDIR
 10
1.0
 20
0.0
 30
0.0
  9
$PUCSYDIR
 10
0.0
 20
1.0
 30
0.0
  9
$USERI1
 70
     0
  9
$USERI2
 70
     0
  9
$USERI3
 70
     0
  9
$USERI4
 70
     0
  9
$USERI5
 70
     0
  9
$USERR1
 40
0.0
  9
$USERR2
 40
0.0
  9
$USERR3
 40
0.0
  9
$USERR4
 40
0.0
  9
$USERR5
 40
0.0
  9
$WORLDVIEW
 70
     1
  9
$SHADEDGE
 70
     3
  9
$SHADEDIF
 70
    70
  9
$TILEMODE
 70
     1
  9
$MAXACTVP
 70
    64
  9
$PLIMCHECK
 70
     0
  9
$PEXTMIN
 10
0.0
 20
0.0
 30
0.0
  9
$PEXTMAX
 10
0.0
 20
0.0
 30
0.0
  9
$PLIMMIN
 10
0.0
 20
0.0
  9
$PLIMMAX
 10
12.0
 20
9.0
  9
$UNITMODE
 70
     0
  9
$VISRETAIN
 70
     1
  9
$PLINEGEN
 70
     0
  9
$PSLTSCALE
 70
     1
  0
ENDSEC
  0
SECTION
  2
TABLES
  0
TABLE
  2
VPORT
 70
     1
  0
VPORT
  2
*ACTIVE
 70
     0
 10
0.0
 20
0.0
 11
1.0
 21
1.0
 12
-48.79553315712019
 22
-75.942779147740396
 13
0.0
 23
0.0
 14
10.0
 24
10.0
 15
10.0
 25
10.0
 16
0.0
 26
0.0
 36
1.0
 17
0.0
 27
0.0
 37
0.0
 40
421.7817099536399
 41
2.528628495339547
 42
50.0
 43
0.0
 44
0.0
 50
0.0
 51
0.0
 71
     0
 72
  1000
 73
     1
 74
     3
 75
     0
 76
     1
 77
     0
 78
     0
  0
ENDTAB
  0
TABLE
  2
LTYPE
 70
     1
  0
LTYPE
  2
CONTINUOUS
 70
     0
  3
Solid line
 72
    65
 73
     0
 40
0.0
  0
ENDTAB
  0
TABLE
  2
LAYER
 70
     2
  0
LAYER
  2
0
 70
     0
 62
     7
  6
CONTINUOUS
  0
LAYER
  2
PERFIL
 70
     0
 62
     7
  6
CONTINUOUS
  0
ENDTAB
  0
TABLE
  2
STYLE
 70
     6
  0
STYLE
  2
STANDARD
 70
     0
 40
0.0
 41
1.0
 50
0.0
 71
     0
 42
2.5
  3
txt
  4

  0
STYLE
  2
ANNOTATIVE
 70
     0
 40
0.0
 41
1.0
 50
0.0
 71
     0
 42
2.5
  3
txt
  4

  0
STYLE
  2
ROMANS
 70
     0
 40
0.0
 41
1.0
 50
0.0
 71
     0
 42
5.0
  3
romans
  4

  0
STYLE
  2
ESTILO1
 70
     0
 40
8.0
 41
1.0
 50
0.0
 71
     0
 42
8.0
  3
txt
  4

  0
STYLE
  2
TECHNOPLAST
 70
     0
 40
0.0
 41
1.0
 50
0.0
 71
     0
 42
0.2
  3
txt
  4

  0
STYLE
  2
STYLE-LUCIDA_SANS_UNICODE
 70
     0
 40
0.0
 41
1.0
 50
0.0
 71
     0
 42
0.2
  3
txt
  4

  0
ENDTAB
  0
TABLE
  2
VIEW
 70
     0
  0
ENDTAB
  0
TABLE
  2
UCS
 70
     0
  0
ENDTAB
  0
TABLE
  2
APPID
 70
    10
  0
APPID
  2
ACAD
 70
     0
  0
APPID
  2
ACAD_PSEXT
 70
     0
  0
APPID
  2
ACADANNOPO
 70
     0
  0
APPID
  2
ACADANNOTATIVE
 70
     0
  0
APPID
  2
ACAD_DSTYLE_DIMJAG
 70
     0
  0
APPID
  2
ACAD_DSTYLE_DIMTALN
 70
     0
  0
APPID
  2
ACAD_MLEADERVER
 70
     0
  0
APPID
  2
ACAD_NAV_VCDISPLAY
 70
     0
  0
APPID
  2
ACAD_DSTYLE_DIMJOGGED_JOGA
 70
     0
  0
APPID
  2
ACAD_DSTYLE_DIMBREAK
 70
     0
  0
ENDTAB
  0
TABLE
  2
DIMSTYLE
 70
     8
  0
DIMSTYLE
  2
STANDARD
 70
     0
  3

  4

  5

  6

  7

 40
1.0
 41
0.18
 42
0.0625
 43
0.38
 44
0.18
 45
0.0
 46
0.0
 47
0.0
 48
0.0
140
0.18
141
0.09
142
0.0
143
25.399999999999999
144
1.0
145
0.0
146
1.0
147
0.09
 71
     0
 72
     0
 73
     1
 74
     1
 75
     0
 76
     0
 77
     0
 78
     0
170
     0
171
     2
172
     0
173
     0
174
     0
175
     0
176
     0
177
     0
178
     0
  0
DIMSTYLE
  2
ANNOTATIVE
 70
     0
  3

  4

  5

  6

  7

 40
0.0
 41
2.5
 42
0.625
 43
3.75
 44
1.25
 45
0.0
 46
0.0
 47
0.0
 48
0.0
140
2.5
141
2.5
142
0.0
143
0.03937007874016
144
1.0
145
0.0
146
1.0
147
0.625
 71
     0
 72
     0
 73
     0
 74
     0
 75
     0
 76
     0
 77
     1
 78
     8
170
     0
171
     3
172
     1
173
     0
174
     0
175
     0
176
     0
177
     0
178
     0
  0
DIMSTYLE
  2
ISO-25
 70
     0
  3

  4

  5

  6

  7

 40
1.0
 41
2.5
 42
0.625
 43
3.75
 44
1.25
 45
0.0
 46
0.0
 47
0.0
 48
0.0
140
2.5
141
2.5
142
0.0
143
0.03937007874016
144
1.0
145
0.0
146
1.0
147
0.625
 71
     0
 72
     0
 73
     0
 74
     0
 75
     0
 76
     0
 77
     1
 78
     8
170
     0
171
     3
172
     1
173
     0
174
     0
175
     0
176
     0
177
     0
178
     0
  0
DIMSTYLE
  2
1A1
 70
     0
  3

  4

  5

  6

  7

 40
0.0
 41
3.0
 42
0.8
 43
8.0
 44
1.3
 45
0.000001
 46
0.0
 47
0.0
 48
0.0
140
2.7000000000000002
141
1.8
142
0.0
143
25.399999999999999
144
1.0
145
0.7
146
1.0
147
0.8
 71
     0
 72
     0
 73
     0
 74
     0
 75
     0
 76
     0
 77
     1
 78
     9
170
     0
171
     2
172
     1
173
     0
174
     1
175
     0
176
     0
177
     0
178
     0
  0
DIMSTYLE
  2
TECHNOPLAST
 70
     0
  3

  4

  5

  6

  7

 40
1.0
 41
0.18
 42
0.0625
 43
0.38
 44
0.18
 45
0.0
 46
0.0
 47
0.0
 48
0.0
140
0.18
141
0.09
142
0.0
143
25.399999999999999
144
1.0
145
0.0
146
1.0
147
0.09
 71
     0
 72
     0
 73
     0
 74
     0
 75
     0
 76
     0
 77
     1
 78
     0
170
     0
171
     2
172
     1
173
     0
174
     0
175
     0
176
     0
177
     0
178
     0
  0
DIMSTYLE
  2
STANDARD_2_5_MM_DPI
 70
     0
  3

  4

  5

  6

  7

 40
1.0
 41
2.5
 42
1.25
 43
0.0
 44
1.25
 45
0.0
 46
0.0
 47
0.000001
 48
0.000001
140
2.5
141
0.09
142
0.0
143
0.0393700787401575
144
1.0
145
0.0
146
1.0
147
1.25
 71
     0
 72
     0
 73
     0
 74
     0
 75
     0
 76
     0
 77
     1
 78
    11
170
     0
171
     4
172
     1
173
     0
174
     0
175
     0
176
     5
177
     5
178
     5
  0
DIMSTYLE
  2
STANDARD_3_MM
 70
     0
  3

  4

  5

  6

  7

 40
1.0
 41
6.0
 42
3.0
 43
12.0
 44
3.0
 45
0.0
 46
0.0
 47
0.000001
 48
0.000001
140
6.0
141
0.09
142
0.0
143
0.0393700787401575
144
1.0
145
0.0
146
1.0
147
3.0
 71
     0
 72
     0
 73
     0
 74
     0
 75
     0
 76
     0
 77
     1
 78
    11
170
     0
171
     4
172
     1
173
     0
174
     0
175
     0
176
     5
177
     5
178
     5
  0
DIMSTYLE
  2
1_A_1_000
 70
     0
  3

  4

  5

  6

  7

 40
0.0
 41
2.5
 42
0.8
 43
8.0
 44
1.3
 45
0.0000000001
 46
0.0
 47
0.0
 48
0.0
140
2.2000000000000002
141
1.8
142
0.0
143
25.399999999999999
144
1.0
145
0.7
146
1.0
147
0.8
 71
     0
 72
     0
 73
     0
 74
     0
 75
     0
 76
     0
 77
     1
 78
     9
170
     0
171
     2
172
     1
173
     0
174
     1
175
     0
176
     0
177
     0
178
     0
  0
ENDTAB
  0
ENDSEC
  0
SECTION
  2
BLOCKS
  0
BLOCK
  8
0
  2
$MODEL_SPACE
 70
     0
 10
0.0
 20
0.0
 30
0.0
  3
$MODEL_SPACE
  1

  0
ENDBLK
  5
21
  8
0
  0
BLOCK
 67
     1
  8
0
  2
$PAPER_SPACE
 70
     0
 10
0.0
 20
0.0
 30
0.0
  3
$PAPER_SPACE
  1

  0
ENDBLK
  5
D5
 67
     1
  8
0
  0
BLOCK
  8
0
  2
*U2
 70
     1
 10
0.0
 20
0.0
 30
0.0
  3
*U2
  1

  0
LINE
  5
3F2
  8
0
 10
52.000015992170937
 20
96.199993192814901
 30
0.0
 11
52.000015992170937
 21
97.499993192814927
 31
0.0
  0
LINE
  5
3F3
  8
0
 10
52.000015992170937
 20
97.499993192814927
 30
0.0
 11
66.500015992170944
 21
97.499993192814927
 31
0.0
  0
ARC
  5
3F4
  8
0
 10
66.500015992170944
 20
96.499993192814912
 30
0.0
 40
1.0
 50
359.9999999999996
 51
90.000000000000242
  0
LINE
  5
3F5
  8
0
 10
67.500015992170944
 20
96.499993192814912
 30
0.0
 11
67.500015992170944
 21
79.29999319281491
 31
0.0
  0
LINE
  5
3F6
  8
0
 10
67.500015992170944
 20
79.29999319281491
 30
0.0
 11
66.200015992170961
 21
79.29999319281491
 31
0.0
  0
ARC
  5
3F7
  8
0
 10
66.200015992170947
 20
78.79999319281491
 30
0.0
 40
0.5000000000000002
 50
90.0
 51
270.0
  0
LINE
  5
3F8
  8
0
 10
66.200015992170947
 20
78.299993192814895
 30
0.0
 11
67.500015992170944
 21
78.299993192814895
 31
0.0
  0
LINE
  5
3F9
  8
0
 10
67.500015992170944
 20
78.299993192814895
 30
0.0
 11
67.500015992170944
 21
60.0999931928149
 31
0.0
  0
LINE
  5
3FA
  8
0
 10
67.500015992170944
 20
60.0999931928149
 30
0.0
 11
66.200015992170947
 21
60.0999931928149
 31
0.0
  0
ARC
  5
3FB
  8
0
 10
66.200015992170947
 20
59.5999931928149
 30
0.0
 40
0.5000000000000002
 50
90.0
 51
270.0
  0
LINE
  5
3FC
  8
0
 10
66.200015992170947
 20
59.099993192814907
 30
0.0
 11
67.500015992170944
 21
59.099993192814907
 31
0.0
  0
LINE
  5
3FD
  8
0
 10
67.500015992170944
 20
59.099993192814907
 30
0.0
 11
67.500015992170944
 21
40.899993192814911
 31
0.0
  0
LINE
  5
3FE
  8
0
 10
67.500015992170944
 20
40.899993192814911
 30
0.0
 11
66.200015992170947
 21
40.899993192814911
 31
0.0
  0
ARC
  5
3FF
  8
0
 10
66.200015992170947
 20
40.399993192814897
 30
0.0
 40
0.5000000000000002
 50
90.0
 51
270.0
  0
LINE
  5
400
  8
0
 10
66.200015992170947
 20
39.899993192814911
 30
0.0
 11
67.500015992170944
 21
39.899993192814911
 31
0.0
  0
LINE
  5
401
  8
0
 10
67.500015992170944
 20
39.899993192814911
 30
0.0
 11
67.500015992170944
 21
21.699993192814901
 31
0.0
  0
LINE
  5
402
  8
0
 10
67.500015992170944
 20
21.699993192814901
 30
0.0
 11
66.200015992170947
 21
21.699993192814901
 31
0.0
  0
ARC
  5
403
  8
0
 10
66.200015992170947
 20
21.199993192814901
 30
0.0
 40
0.5000000000000002
 50
90.0
 51
270.0
  0
LINE
  5
404
  8
0
 10
66.200015992170947
 20
20.699993192814912
 30
0.0
 11
67.500015992170944
 21
20.699993192814912
 31
0.0
  0
LINE
  5
405
  8
0
 10
67.500015992170944
 20
20.699993192814912
 30
0.0
 11
67.500015992170944
 21
3.4999931928149119
 31
0.0
  0
ARC
  5
406
  8
0
 10
66.500015992170944
 20
3.4999931928149048
 30
0.0
 40
1.0
 50
270.0
 51
0.0000000000003997
  0
LINE
  5
407
  8
0
 10
66.500015992170944
 20
2.4999931928149048
 30
0.0
 11
52.000015992170937
 21
2.4999931928149048
 31
0.0
  0
LINE
  5
408
  8
0
 10
52.000015992170937
 20
2.4999931928149048
 30
0.0
 11
52.000015992170937
 21
3.7999931928149091
 31
0.0
  0
ARC
  5
409
  8
0
 10
51.500015992170951
 20
3.7999931928149091
 30
0.0
 40
0.5000000000000004
 50
0.0
 51
180.0
  0
LINE
  5
40A
  8
0
 10
51.000015992170937
 20
3.7999931928149091
 30
0.0
 11
51.000015992170937
 21
2.4999931928149048
 31
0.0
  0
LINE
  5
40B
  8
0
 10
51.000015992170937
 20
2.4999931928149048
 30
0.0
 11
35.500015992170951
 21
2.4999931928149048
 31
0.0
  0
LINE
  5
40C
  8
0
 10
35.500015992170951
 20
2.4999931928149048
 30
0.0
 11
35.500015992170951
 21
3.7999931928149091
 31
0.0
  0
ARC
  5
40D
  8
0
 10
35.000015992170951
 20
3.7999931928149091
 30
0.0
 40
0.5000000000000004
 50
0.0
 51
180.0
  0
LINE
  5
40E
  8
0
 10
34.500015992170937
 20
3.7999931928149091
 30
0.0
 11
34.500015992170937
 21
2.4999931928149048
 31
0.0
  0
LINE
  5
40F
  8
0
 10
34.500015992170937
 20
2.4999931928149048
 30
0.0
 11
19.00001599217094
 21
2.4999931928149048
 31
0.0
  0
LINE
  5
410
  8
0
 10
19.00001599217094
 20
2.4999931928149048
 30
0.0
 11
19.00001599217094
 21
3.799993192814902
 31
0.0
  0
ARC
  5
411
  8
0
 10
18.50001599217094
 20
3.799993192814902
 30
0.0
 40
0.5000000000000002
 50
0.0
 51
180.0
  0
LINE
  5
412
  8
0
 10
18.00001599217094
 20
3.799993192814902
 30
0.0
 11
18.00001599217094
 21
2.4999931928149048
 31
0.0
  0
LINE
  5
413
  8
0
 10
18.00001599217094
 20
2.4999931928149048
 30
0.0
 11
3.5000159921709431
 21
2.4999931928149048
 31
0.0
  0
ARC
  5
414
  8
0
 10
3.5000159921709431
 20
3.4999931928149048
 30
0.0
 40
1.0
 50
179.9999999999996
 51
269.99999999999977
  0
LINE
  5
415
  8
0
 10
2.5000159921709431
 20
3.4999931928149119
 30
0.0
 11
2.5000159921709431
 21
20.699993192814912
 31
0.0
  0
LINE
  5
416
  8
0
 10
2.5000159921709431
 20
20.699993192814912
 30
0.0
 11
3.800015992170926
 21
20.699993192814912
 31
0.0
  0
ARC
  5
417
  8
0
 10
3.8000159921709549
 20
21.199993192814912
 30
0.0
 40
0.5000000000000002
 50
270.0
 51
90.0
  0
LINE
  5
418
  8
0
 10
3.8000159921709549
 20
21.699993192814912
 30
0.0
 11
2.5000159921709431
 21
21.699993192814912
 31
0.0
  0
LINE
  5
419
  8
0
 10
2.5000159921709431
 20
21.699993192814912
 30
0.0
 11
2.5000159921709431
 21
39.899993192814911
 31
0.0
  0
LINE
  5
41A
  8
0
 10
2.5000159921709431
 20
39.899993192814911
 30
0.0
 11
3.8000159921709549
 21
39.899993192814911
 31
0.0
  0
ARC
  5
41B
  8
0
 10
3.8000159921709549
 20
40.399993192814897
 30
0.0
 40
0.5000000000000002
 50
270.0
 51
90.0
  0
LINE
  5
41C
  8
0
 10
3.8000159921709549
 20
40.899993192814897
 30
0.0
 11
2.5000159921709431
 21
40.899993192814897
 31
0.0
  0
LINE
  5
41D
  8
0
 10
2.5000159921709431
 20
40.899993192814897
 30
0.0
 11
2.5000159921709431
 21
59.099993192814907
 31
0.0
  0
LINE
  5
41E
  8
0
 10
2.5000159921709431
 20
59.099993192814907
 30
0.0
 11
3.8000159921709549
 21
59.099993192814907
 31
0.0
  0
ARC
  5
41F
  8
0
 10
3.8000159921709549
 20
59.5999931928149
 30
0.0
 40
0.5000000000000002
 50
270.0
 51
90.0
  0
LINE
  5
420
  8
0
 10
3.8000159921709549
 20
60.0999931928149
 30
0.0
 11
2.5000159921709431
 21
60.0999931928149
 31
0.0
  0
LINE
  5
421
  8
0
 10
2.5000159921709431
 20
60.0999931928149
 30
0.0
 11
2.5000159921709431
 21
78.299993192814895
 31
0.0
  0
LINE
  5
422
  8
0
 10
2.5000159921709431
 20
78.299993192814895
 30
0.0
 11
3.8000159921709549
 21
78.299993192814895
 31
0.0
  0
ARC
  5
423
  8
0
 10
3.8000159921709549
 20
78.79999319281491
 30
0.0
 40
0.5000000000000002
 50
270.0
 51
90.0
  0
LINE
  5
424
  8
0
 10
3.8000159921709549
 20
79.29999319281491
 30
0.0
 11
2.5000159921709431
 21
79.29999319281491
 31
0.0
  0
LINE
  5
425
  8
0
 10
2.5000159921709431
 20
79.29999319281491
 30
0.0
 11
2.5000159921709431
 21
96.499993192814912
 31
0.0
  0
ARC
  5
426
  8
0
 10
3.5000159921709431
 20
96.499993192814912
 30
0.0
 40
1.0
 50
90.000000000000185
 51
180.0000000000004
  0
LINE
  5
427
  8
0
 10
3.5000159921709431
 20
97.499993192814927
 30
0.0
 11
18.00001599217094
 21
97.499993192814927
 31
0.0
  0
LINE
  5
428
  8
0
 10
18.00001599217094
 20
97.499993192814927
 30
0.0
 11
18.00001599217094
 21
96.199993192814901
 31
0.0
  0
ARC
  5
429
  8
0
 10
18.50001599217094
 20
96.199993192814901
 30
0.0
 40
0.5000000000000004
 50
180.0
 51
0.0
  0
LINE
  5
42A
  8
0
 10
19.00001599217094
 20
96.199993192814901
 30
0.0
 11
19.00001599217094
 21
97.499993192814927
 31
0.0
  0
LINE
  5
42B
  8
0
 10
19.00001599217094
 20
97.499993192814927
 30
0.0
 11
34.500015992170937
 21
97.499993192814927
 31
0.0
  0
LINE
  5
42C
  8
0
 10
34.500015992170937
 20
97.499993192814927
 30
0.0
 11
34.500015992170937
 21
96.199993192814901
 31
0.0
  0
ARC
  5
42D
  8
0
 10
35.000015992170951
 20
96.199993192814901
 30
0.0
 40
0.5000000000000004
 50
180.0
 51
0.0
  0
LINE
  5
42E
  8
0
 10
35.500015992170951
 20
96.199993192814901
 30
0.0
 11
35.500015992170951
 21
97.499993192814927
 31
0.0
  0
LINE
  5
42F
  8
0
 10
35.500015992170951
 20
97.499993192814927
 30
0.0
 11
51.000015992170958
 21
97.499993192814927
 31
0.0
  0
LINE
  5
430
  8
0
 10
51.000015992170958
 20
97.499993192814927
 30
0.0
 11
51.000015992170937
 21
96.199993192814901
 31
0.0
  0
ARC
  5
431
  8
0
 10
51.500015992170951
 20
96.199993192814901
 30
0.0
 40
0.5000000000000004
 50
180.0
 51
0.0
  0
ARC
  5
432
  8
0
 10
2.0000159921709431
 20
1.9999931928149051
 30
0.0
 40
2.0
 50
180.0
 51
270.0
  0
LINE
  5
433
  8
0
 10
2.0000159921709431
 20
-0.0000068071850947
 30
0.0
 11
68.000015992170944
 21
-0.0000068071850947
 31
0.0
  0
ARC
  5
434
  8
0
 10
68.000015992170944
 20
1.9999931928149051
 30
0.0
 40
2.0
 50
270.0
 51
0.0
  0
LINE
  5
435
  8
0
 10
70.000015992170944
 20
1.9999931928149051
 30
0.0
 11
70.000015992170944
 21
97.999993192814912
 31
0.0
  0
ARC
  5
436
  8
0
 10
68.000015992170944
 20
97.999993192814912
 30
0.0
 40
2.0
 50
0.0
 51
90.0
  0
LINE
  5
437
  8
0
 10
68.000015992170944
 20
99.999993192814927
 30
0.0
 11
2.0000159921709431
 21
99.999993192814927
 31
0.0
  0
ARC
  5
438
  8
0
 10
2.0000159921709431
 20
97.999993192814912
 30
0.0
 40
2.0
 50
90.0
 51
180.0
  0
LINE
  5
439
  8
0
 10
0.0000159921709439
 20
97.999993192814912
 30
0.0
 11
0.0000159921709439
 21
1.9999931928149051
 31
0.0
  0
ENDBLK
  5
43B
  8
0
  0
BLOCK
  8
0
  2
*U3
 70
     1
 10
0.0
 20
0.0
 30
0.0
  3
*U3
  1

  0
LINE
  5
43D
  8
0
 10
54.960042383351571
 20
-75.43933848561295
 30
0.0
 11
53.660042383351559
 21
-75.439338485612936
 31
0.0
  0
ARC
  5
43E
  8
0
 10
53.660042383351559
 20
-75.939338485612936
 30
0.0
 40
0.5
 50
89.999999999999986
 51
270.0
  0
LINE
  5
43F
  8
0
 10
53.660042383351559
 20
-76.439338485612936
 30
0.0
 11
54.960042383351571
 21
-76.439338485612936
 31
0.0
  0
LINE
  5
440
  8
0
 10
54.960042383351571
 20
-76.439338485612936
 30
0.0
 11
54.960042383351571
 21
-90.939338485612936
 31
0.0
  0
ARC
  5
441
  8
0
 10
53.960042383351563
 20
-90.93933848561295
 30
0.0
 40
1.0
 50
269.9999999999996
 51
0.0000000000002398
  0
LINE
  5
442
  8
0
 10
53.960042383351549
 20
-91.93933848561295
 30
0.0
 11
36.760042383351561
 21
-91.939338485612936
 31
0.0
  0
LINE
  5
443
  8
0
 10
36.760042383351561
 20
-91.939338485612936
 30
0.0
 11
36.760042383351561
 21
-90.639338485612953
 31
0.0
  0
ARC
  5
444
  8
0
 10
36.260042383351561
 20
-90.639338485612939
 30
0.0
 40
0.5
 50
0.0
 51
180.0
  0
LINE
  5
445
  8
0
 10
35.760042383351561
 20
-90.639338485612939
 30
0.0
 11
35.760042383351561
 21
-91.939338485612936
 31
0.0
  0
LINE
  5
446
  8
0
 10
35.760042383351561
 20
-91.939338485612936
 30
0.0
 11
17.560042383351561
 21
-91.939338485612907
 31
0.0
  0
LINE
  5
447
  8
0
 10
17.560042383351561
 20
-91.939338485612907
 30
0.0
 11
17.560042383351561
 21
-90.639338485612939
 31
0.0
  0
ARC
  5
448
  8
0
 10
17.060042383351561
 20
-90.639338485612939
 30
0.0
 40
0.5
 50
0.0
 51
180.0
  0
LINE
  5
449
  8
0
 10
16.560042383351561
 20
-90.639338485612939
 30
0.0
 11
16.560042383351561
 21
-91.939338485612907
 31
0.0
  0
LINE
  5
44A
  8
0
 10
16.560042383351561
 20
-91.939338485612907
 30
0.0
 11
-1.6399576166484391
 21
-91.939338485612907
 31
0.0
  0
LINE
  5
44B
  8
0
 10
-1.6399576166484391
 20
-91.939338485612907
 30
0.0
 11
-1.6399576166484371
 21
-90.639338485612925
 31
0.0
  0
ARC
  5
44C
  8
0
 10
-2.1399576166484371
 20
-90.639338485612925
 30
0.0
 40
0.5
 50
0.0
 51
180.0
  0
LINE
  5
44D
  8
0
 10
-2.6399576166484371
 20
-90.639338485612925
 30
0.0
 11
-2.6399576166484371
 21
-91.939338485612907
 31
0.0
  0
LINE
  5
44E
  8
0
 10
-2.6399576166484371
 20
-91.939338485612907
 30
0.0
 11
-20.839957616648441
 21
-91.939338485612907
 31
0.0
  0
LINE
  5
44F
  8
0
 10
-20.839957616648441
 20
-91.939338485612907
 30
0.0
 11
-20.839957616648441
 21
-90.639338485612925
 31
0.0
  0
ARC
  5
450
  8
0
 10
-21.339957616648451
 20
-90.639338485612925
 30
0.0
 40
0.5
 50
0.0
 51
180.0
  0
LINE
  5
451
  8
0
 10
-21.839957616648451
 20
-90.639338485612925
 30
0.0
 11
-21.839957616648451
 21
-91.939338485612907
 31
0.0
  0
LINE
  5
452
  8
0
 10
-21.839957616648451
 20
-91.939338485612907
 30
0.0
 11
-39.039957616648437
 21
-91.939338485612907
 31
0.0
  0
ARC
  5
453
  8
0
 10
-39.039957616648451
 20
-90.939338485612922
 30
0.0
 40
1.0
 50
180.0
 51
270.0000000000004
  0
LINE
  5
454
  8
0
 10
-40.039957616648437
 20
-90.939338485612922
 30
0.0
 11
-40.039957616648429
 21
-76.439338485612922
 31
0.0
  0
LINE
  5
455
  8
0
 10
-40.039957616648429
 20
-76.439338485612922
 30
0.0
 11
-38.739957616648432
 21
-76.439338485612922
 31
0.0
  0
ARC
  5
456
  8
0
 10
-38.739957616648432
 20
-75.939338485612922
 30
0.0
 40
0.5
 50
270.0
 51
90.0
  0
LINE
  5
457
  8
0
 10
-38.739957616648432
 20
-75.439338485612922
 30
0.0
 11
-40.039957616648429
 21
-75.439338485612922
 31
0.0
  0
LINE
  5
458
  8
0
 10
-40.039957616648429
 20
-75.439338485612922
 30
0.0
 11
-40.039957616648429
 21
-59.939338485612922
 31
0.0
  0
LINE
  5
459
  8
0
 10
-40.039957616648429
 20
-59.939338485612922
 30
0.0
 11
-38.739957616648432
 21
-59.939338485612922
 31
0.0
  0
ARC
  5
45A
  8
0
 10
-38.739957616648432
 20
-59.439338485612922
 30
0.0
 40
0.5000000000000006
 50
270.0
 51
90.0
  0
LINE
  5
45B
  8
0
 10
-38.739957616648432
 20
-58.939338485612922
 30
0.0
 11
-40.039957616648429
 21
-58.939338485612922
 31
0.0
  0
LINE
  5
45C
  8
0
 10
-40.039957616648429
 20
-58.939338485612922
 30
0.0
 11
-40.039957616648429
 21
-43.439338485612922
 31
0.0
  0
LINE
  5
45D
  8
0
 10
-40.039957616648429
 20
-43.439338485612922
 30
0.0
 11
-38.739957616648439
 21
-43.439338485612922
 31
0.0
  0
ARC
  5
45E
  8
0
 10
-38.739957616648439
 20
-42.939338485612922
 30
0.0
 40
0.5
 50
270.0
 51
90.0
  0
LINE
  5
45F
  8
0
 10
-38.739957616648432
 20
-42.439338485612922
 30
0.0
 11
-40.039957616648422
 21
-42.439338485612922
 31
0.0
  0
LINE
  5
460
  8
0
 10
-40.039957616648422
 20
-42.439338485612922
 30
0.0
 11
-40.039957616648422
 21
-27.939338485612922
 31
0.0
  0
ARC
  5
461
  8
0
 10
-39.039957616648437
 20
-27.939338485612911
 30
0.0
 40
0.9999999999999928
 50
89.999999999999176
 51
180.0
  0
LINE
  5
462
  8
0
 10
-39.039957616648422
 20
-26.939338485612922
 30
0.0
 11
-21.83995761664843
 21
-26.939338485612922
 31
0.0
  0
LINE
  5
463
  8
0
 10
-21.83995761664843
 20
-26.939338485612922
 30
0.0
 11
-21.83995761664843
 21
-28.239338485612912
 31
0.0
  0
ARC
  5
464
  8
0
 10
-21.33995761664843
 20
-28.23933848561294
 30
0.0
 40
0.5
 50
180.0
 51
0.0
  0
LINE
  5
465
  8
0
 10
-20.83995761664843
 20
-28.23933848561294
 30
0.0
 11
-20.83995761664843
 21
-26.939338485612922
 31
0.0
  0
LINE
  5
466
  8
0
 10
-20.83995761664843
 20
-26.939338485612922
 30
0.0
 11
-2.63995761664843
 21
-26.939338485612929
 31
0.0
  0
LINE
  5
467
  8
0
 10
-2.63995761664843
 20
-26.939338485612929
 30
0.0
 11
-2.6399576166484291
 21
-28.23933848561294
 31
0.0
  0
ARC
  5
468
  8
0
 10
-2.1399576166484291
 20
-28.23933848561294
 30
0.0
 40
0.5
 50
180.0
 51
0.0
  0
LINE
  5
469
  8
0
 10
-1.6399576166484291
 20
-28.23933848561294
 30
0.0
 11
-1.6399576166484271
 21
-26.939338485612929
 31
0.0
  0
LINE
  5
46A
  8
0
 10
-1.6399576166484271
 20
-26.939338485612929
 30
0.0
 11
16.560042383351568
 21
-26.939338485612929
 31
0.0
  0
LINE
  5
46B
  8
0
 10
16.560042383351568
 20
-26.939338485612929
 30
0.0
 11
16.560042383351568
 21
-28.23933848561294
 31
0.0
  0
ARC
  5
46C
  8
0
 10
17.060042383351568
 20
-28.23933848561294
 30
0.0
 40
0.5
 50
180.0
 51
0.0
  0
LINE
  5
46D
  8
0
 10
17.560042383351568
 20
-28.23933848561294
 30
0.0
 11
17.560042383351568
 21
-26.939338485612929
 31
0.0
  0
LINE
  5
46E
  8
0
 10
17.560042383351568
 20
-26.939338485612929
 30
0.0
 11
35.760042383351582
 21
-26.939338485612939
 31
0.0
  0
LINE
  5
46F
  8
0
 10
35.760042383351582
 20
-26.939338485612939
 30
0.0
 11
35.760042383351582
 21
-28.239338485612951
 31
0.0
  0
ARC
  5
470
  8
0
 10
36.260042383351582
 20
-28.239338485612951
 30
0.0
 40
0.5
 50
180.0
 51
0.0
  0
LINE
  5
471
  8
0
 10
36.760042383351582
 20
-28.239338485612951
 30
0.0
 11
36.760042383351582
 21
-26.939338485612939
 31
0.0
  0
LINE
  5
472
  8
0
 10
36.760042383351582
 20
-26.939338485612939
 30
0.0
 11
53.960042383351563
 21
-26.939338485612939
 31
0.0
  0
ARC
  5
473
  8
0
 10
53.960042383351592
 20
-27.939338485612929
 30
0.0
 40
0.9999999999999928
 50
0.0
 51
90.000000000001222
  0
LINE
  5
474
  8
0
 10
54.960042383351571
 20
-27.939338485612939
 30
0.0
 11
54.960042383351571
 21
-42.439338485612929
 31
0.0
  0
LINE
  5
475
  8
0
 10
54.960042383351571
 20
-42.439338485612929
 30
0.0
 11
53.660042383351573
 21
-42.439338485612929
 31
0.0
  0
ARC
  5
476
  8
0
 10
53.660042383351559
 20
-42.939338485612943
 30
0.0
 40
0.5
 50
89.999999999999986
 51
270.0
  0
LINE
  5
477
  8
0
 10
53.660042383351559
 20
-43.439338485612929
 30
0.0
 11
54.960042383351571
 21
-43.439338485612929
 31
0.0
  0
LINE
  5
478
  8
0
 10
54.960042383351571
 20
-43.439338485612929
 30
0.0
 11
54.960042383351571
 21
-58.939338485612929
 31
0.0
  0
LINE
  5
479
  8
0
 10
54.960042383351571
 20
-58.939338485612929
 30
0.0
 11
53.660042383351559
 21
-58.939338485612929
 31
0.0
  0
ARC
  5
47A
  8
0
 10
53.660042383351559
 20
-59.439338485612929
 30
0.0
 40
0.5000000000000006
 50
89.999999999999986
 51
270.0
  0
LINE
  5
47B
  8
0
 10
53.660042383351559
 20
-59.939338485612943
 30
0.0
 11
54.960042383351571
 21
-59.939338485612943
 31
0.0
  0
LINE
  5
47C
  8
0
 10
54.960042383351571
 20
-59.939338485612943
 30
0.0
 11
54.960042383351571
 21
-75.43933848561295
 31
0.0
  0
ARC
  5
47D
  8
0
 10
55.460042383351571
 20
-26.43933848561295
 30
0.0
 40
2.0000000000000071
 50
0.0
 51
89.999999999999588
  0
LINE
  5
47E
  8
0
 10
55.460042383351571
 20
-24.439338485612939
 30
0.0
 11
-40.539957616648422
 21
-24.439338485612922
 31
0.0
  0
ARC
  5
47F
  8
0
 10
-40.539957616648422
 20
-26.439338485612929
 30
0.0
 40
2.0000000000000071
 50
90.000000000000185
 51
179.9999999999998
  0
LINE
  5
480
  8
0
 10
-42.539957616648422
 20
-26.439338485612922
 30
0.0
 11
-42.539957616648437
 21
-92.439338485612922
 31
0.0
  0
ARC
  5
481
  8
0
 10
-40.539957616648429
 20
-92.439338485612922
 30
0.0
 40
2.0000000000000071
 50
180.0
 51
269.99999999999972
  0
LINE
  5
482
  8
0
 10
-40.539957616648451
 20
-94.439338485612907
 30
0.0
 11
55.460042383351549
 21
-94.439338485612936
 31
0.0
  0
ARC
  5
483
  8
0
 10
55.460042383351563
 20
-92.439338485612936
 30
0.0
 40
2.0000000000000031
 50
270.0
 51
359.99999999999989
  0
LINE
  5
484
  8
0
 10
57.460042383351571
 20
-92.439338485612936
 30
0.0
 11
57.460042383351571
 21
-26.439338485612939
 31
0.0
  0
ENDBLK
  5
486
  8
0
  0
ENDSEC
  0
SECTION
  2
ENTITIES
  0
INSERT
  5
2BB
  8
0
  2
*U3
 10
0.0
 20
0.0
 30
0.0
  0
ENDSEC
  0
EOF
