  0
SECTION
  2
HEADER
  9
$ACADVER
  1
AC1009
  9
$INSBASE
 10
0.0
 20
0.0
 30
0.0
  9
$EXTMIN
 10
5.6005281019861268
 20
2.3123508610005952
 30
0.0
  9
$EXTMAX
 10
67.6005281019842954
 20
62.3123508610006027
 30
0.0
  9
$LIMMIN
 10
0.0
 20
0.0
  9
$LIMMAX
 10
420.0
 20
297.0
  9
$ORTHOMODE
 70
     0
  9
$REGENMODE
 70
     1
  9
$FILLMODE
 70
     1
  9
$QTEXTMODE
 70
     0
  9
$MIRRTEXT
 70
     0
  9
$DRAGMODE
 70
     2
  9
$LTSCALE
 40
1.0
  9
$OSMODE
 70
  4095
  9
$ATTMODE
 70
     1
  9
$TEXTSIZE
 40
2.5
  9
$TRACEWID
 40
1.0
  9
$TEXTSTYLE
  7
STANDARD
  9
$CLAYER
  8
0
  9
$CELTYPE
  6
BYLAYER
  9
$CECOLOR
 62
   256
  9
$DIMSCALE
 40
1.0
  9
$DIMASZ
 40
2.5
  9
$DIMEXO
 40
0.625
  9
$DIMDLI
 40
3.75
  9
$DIMRND
 40
0.0
  9
$DIMDLE
 40
0.0
  9
$DIMEXE
 40
1.25
  9
$DIMTP
 40
0.0
  9
$DIMTM
 40
0.0
  9
$DIMTXT
 40
2.5
  9
$DIMCEN
 40
2.5
  9
$DIMTSZ
 40
0.0
  9
$DIMTOL
 70
     0
  9
$DIMLIM
 70
     0
  9
$DIMTIH
 70
     0
  9
$DIMTOH
 70
     0
  9
$DIMSE1
 70
     0
  9
$DIMSE2
 70
     0
  9
$DIMTAD
 70
     1
  9
$DIMZIN
 70
     8
  9
$DIMBLK
  1

  9
$DIMASO
 70
     1
  9
$DIMSHO
 70
     1
  9
$DIMPOST
  1

  9
$DIMAPOST
  1

  9
$DIMALT
 70
     0
  9
$DIMALTD
 70
     3
  9
$DIMALTF
 40
0.03937007874016
  9
$DIMLFAC
 40
1.0
  9
$DIMTOFL
 70
     1
  9
$DIMTVP
 40
0.0
  9
$DIMTIX
 70
     0
  9
$DIMSOXD
 70
     0
  9
$DIMSAH
 70
     0
  9
$DIMBLK1
  1

  9
$DIMBLK2
  1

  9
$DIMSTYLE
  2
ISO-25
  9
$DIMCLRD
 70
     0
  9
$DIMCLRE
 70
     0
  9
$DIMCLRT
 70
     0
  9
$DIMTFAC
 40
1.0
  9
$DIMGAP
 40
0.625
  9
$LUNITS
 70
     2
  9
$LUPREC
 70
     4
  9
$SKETCHINC
 40
1.0
  9
$FILLETRAD
 40
0.0
  9
$AUNITS
 70
     0
  9
$AUPREC
 70
     0
  9
$MENU
  1
.
  9
$ELEVATION
 40
0.0
  9
$PELEVATION
 40
0.0
  9
$THICKNESS
 40
0.0
  9
$LIMCHECK
 70
     0
  9
$BLIPMODE
 70
     0
  9
$CHAMFERA
 40
0.0
  9
$CHAMFERB
 40
0.0
  9
$SKPOLY
 70
     0
  9
$TDCREATE
 40
2460899.3727777781896293
  9
$TDUPDATE
 40
2460899.3754166672006249
  9
$TDINDWG
 40
0.002662037
  9
$TDUSRTIMER
 40
0.002662037
  9
$USRTIMER
 70
     1
  9
$ANGBASE
 50
0.0
  9
$ANGDIR
 70
     0
  9
$PDMODE
 70
     0
  9
$PDSIZE
 40
0.0
  9
$PLINEWID
 40
0.0
  9
$COORDS
 70
     0
  9
$SPLFRAME
 70
     0
  9
$SPLINETYPE
 70
     6
  9
$SPLINESEGS
 70
     8
  9
$ATTDIA
 70
     1
  9
$ATTREQ
 70
     1
  9
$HANDLING
 70
     1
  9
$HANDSEED
  5
486
  9
$SURFTAB1
 70
     6
  9
$SURFTAB2
 70
     6
  9
$SURFTYPE
 70
     6
  9
$SURFU
 70
     6
  9
$SURFV
 70
     6
  9
$UCSNAME
  2

  9
$UCSORG
 10
0.2427138163948257
 20
0.2931504413327275
 30
0.0
  9
$UCSXDIR
 10
1.0
 20
0.0
 30
0.0
  9
$UCSYDIR
 10
0.0
 20
1.0
 30
0.0
  9
$PUCSNAME
  2

  9
$PUCSORG
 10
0.0
 20
0.0
 30
0.0
  9
$PUCSXDIR
 10
1.0
 20
0.0
 30
0.0
  9
$PUCSYDIR
 10
0.0
 20
1.0
 30
0.0
  9
$USERI1
 70
     0
  9
$USERI2
 70
     0
  9
$USERI3
 70
     0
  9
$USERI4
 70
     0
  9
$USERI5
 70
     0
  9
$USERR1
 40
0.0
  9
$USERR2
 40
0.0
  9
$USERR3
 40
0.0
  9
$USERR4
 40
0.0
  9
$USERR5
 40
0.0
  9
$WORLDVIEW
 70
     1
  9
$SHADEDGE
 70
     3
  9
$SHADEDIF
 70
    70
  9
$TILEMODE
 70
     1
  9
$MAXACTVP
 70
    64
  9
$PLIMCHECK
 70
     0
  9
$PEXTMIN
 10
0.0
 20
0.0
 30
0.0
  9
$PEXTMAX
 10
0.0
 20
0.0
 30
0.0
  9
$PLIMMIN
 10
0.0
 20
0.0
  9
$PLIMMAX
 10
12.0
 20
9.0
  9
$UNITMODE
 70
     0
  9
$VISRETAIN
 70
     1
  9
$PLINEGEN
 70
     0
  9
$PSLTSCALE
 70
     1
  0
ENDSEC
  0
SECTION
  2
TABLES
  0
TABLE
  2
VPORT
 70
     1
  0
VPORT
  2
*ACTIVE
 70
     0
 10
0.0
 20
0.0
 11
1.0
 21
1.0
 12
68.4472871923626371
 22
19.2942305343011888
 13
0.0
 23
0.0
 14
10.0
 24
10.0
 15
10.0
 25
10.0
 16
0.0
 26
0.0
 36
1.0
 17
0.0
 27
0.0
 37
0.0
 40
103.6760141952180021
 41
2.6535433070866139
 42
50.0
 43
0.0
 44
0.0
 50
0.0
 51
0.0
 71
     0
 72
  1000
 73
     1
 74
     3
 75
     0
 76
     1
 77
     0
 78
     0
  0
ENDTAB
  0
TABLE
  2
LTYPE
 70
     1
  0
LTYPE
  2
CONTINUOUS
 70
     0
  3
Solid line
 72
    65
 73
     0
 40
0.0
  0
ENDTAB
  0
TABLE
  2
LAYER
 70
     2
  0
LAYER
  2
0
 70
     0
 62
     7
  6
CONTINUOUS
  0
LAYER
  2
PERFIL
 70
     0
 62
     7
  6
CONTINUOUS
  0
ENDTAB
  0
TABLE
  2
STYLE
 70
     6
  0
STYLE
  2
STANDARD
 70
     0
 40
0.0
 41
1.0
 50
0.0
 71
     0
 42
2.5
  3
txt
  4

  0
STYLE
  2
ANNOTATIVE
 70
     0
 40
0.0
 41
1.0
 50
0.0
 71
     0
 42
2.5
  3
txt
  4

  0
STYLE
  2
ROMANS
 70
     0
 40
0.0
 41
1.0
 50
0.0
 71
     0
 42
5.0
  3
romans
  4

  0
STYLE
  2
ESTILO1
 70
     0
 40
8.0
 41
1.0
 50
0.0
 71
     0
 42
8.0
  3
txt
  4

  0
STYLE
  2
TECHNOPLAST
 70
     0
 40
0.0
 41
1.0
 50
0.0
 71
     0
 42
0.2
  3
txt
  4

  0
STYLE
  2
STYLE-LUCIDA_SANS_UNICODE
 70
     0
 40
0.0
 41
1.0
 50
0.0
 71
     0
 42
0.2
  3
txt
  4

  0
ENDTAB
  0
TABLE
  2
VIEW
 70
     0
  0
ENDTAB
  0
TABLE
  2
UCS
 70
     0
  0
ENDTAB
  0
TABLE
  2
APPID
 70
    10
  0
APPID
  2
ACAD
 70
     0
  0
APPID
  2
ACAD_PSEXT
 70
     0
  0
APPID
  2
ACADANNOPO
 70
     0
  0
APPID
  2
ACADANNOTATIVE
 70
     0
  0
APPID
  2
ACAD_DSTYLE_DIMJAG
 70
     0
  0
APPID
  2
ACAD_DSTYLE_DIMTALN
 70
     0
  0
APPID
  2
ACAD_MLEADERVER
 70
     0
  0
APPID
  2
ACAD_NAV_VCDISPLAY
 70
     0
  0
APPID
  2
ACAD_DSTYLE_DIMJOGGED_JOGA
 70
     0
  0
APPID
  2
ACAD_DSTYLE_DIMBREAK
 70
     0
  0
ENDTAB
  0
TABLE
  2
DIMSTYLE
 70
     8
  0
DIMSTYLE
  2
STANDARD
 70
     0
  3

  4

  5

  6

  7

 40
1.0
 41
0.18
 42
0.0625
 43
0.38
 44
0.18
 45
0.0
 46
0.0
 47
0.0
 48
0.0
140
0.18
141
0.09
142
0.0
143
25.3999999999999986
144
1.0
145
0.0
146
1.0
147
0.09
 71
     0
 72
     0
 73
     1
 74
     1
 75
     0
 76
     0
 77
     0
 78
     0
170
     0
171
     2
172
     0
173
     0
174
     0
175
     0
176
     0
177
     0
178
     0
  0
DIMSTYLE
  2
ANNOTATIVE
 70
     0
  3

  4

  5

  6

  7

 40
0.0
 41
2.5
 42
0.625
 43
3.75
 44
1.25
 45
0.0
 46
0.0
 47
0.0
 48
0.0
140
2.5
141
2.5
142
0.0
143
0.03937007874016
144
1.0
145
0.0
146
1.0
147
0.625
 71
     0
 72
     0
 73
     0
 74
     0
 75
     0
 76
     0
 77
     1
 78
     8
170
     0
171
     3
172
     1
173
     0
174
     0
175
     0
176
     0
177
     0
178
     0
  0
DIMSTYLE
  2
ISO-25
 70
     0
  3

  4

  5

  6

  7

 40
1.0
 41
2.5
 42
0.625
 43
3.75
 44
1.25
 45
0.0
 46
0.0
 47
0.0
 48
0.0
140
2.5
141
2.5
142
0.0
143
0.03937007874016
144
1.0
145
0.0
146
1.0
147
0.625
 71
     0
 72
     0
 73
     0
 74
     0
 75
     0
 76
     0
 77
     1
 78
     8
170
     0
171
     3
172
     1
173
     0
174
     0
175
     0
176
     0
177
     0
178
     0
  0
DIMSTYLE
  2
1A1
 70
     0
  3

  4

  5

  6

  7

 40
0.0
 41
3.0
 42
0.8
 43
8.0
 44
1.3
 45
0.000001
 46
0.0
 47
0.0
 48
0.0
140
2.7000000000000002
141
1.8
142
0.0
143
25.3999999999999986
144
1.0
145
0.7
146
1.0
147
0.8
 71
     0
 72
     0
 73
     0
 74
     0
 75
     0
 76
     0
 77
     1
 78
     9
170
     0
171
     2
172
     1
173
     0
174
     1
175
     0
176
     0
177
     0
178
     0
  0
DIMSTYLE
  2
TECHNOPLAST
 70
     0
  3

  4

  5

  6

  7

 40
1.0
 41
0.18
 42
0.0625
 43
0.38
 44
0.18
 45
0.0
 46
0.0
 47
0.0
 48
0.0
140
0.18
141
0.09
142
0.0
143
25.3999999999999986
144
1.0
145
0.0
146
1.0
147
0.09
 71
     0
 72
     0
 73
     0
 74
     0
 75
     0
 76
     0
 77
     1
 78
     0
170
     0
171
     2
172
     1
173
     0
174
     0
175
     0
176
     0
177
     0
178
     0
  0
DIMSTYLE
  2
STANDARD_2_5_MM_DPI
 70
     0
  3

  4

  5

  6

  7

 40
1.0
 41
2.5
 42
1.25
 43
0.0
 44
1.25
 45
0.0
 46
0.0
 47
0.000001
 48
0.000001
140
2.5
141
0.09
142
0.0
143
0.0393700787401575
144
1.0
145
0.0
146
1.0
147
1.25
 71
     0
 72
     0
 73
     0
 74
     0
 75
     0
 76
     0
 77
     1
 78
    11
170
     0
171
     4
172
     1
173
     0
174
     0
175
     0
176
     5
177
     5
178
     5
  0
DIMSTYLE
  2
STANDARD_3_MM
 70
     0
  3

  4

  5

  6

  7

 40
1.0
 41
6.0
 42
3.0
 43
12.0
 44
3.0
 45
0.0
 46
0.0
 47
0.000001
 48
0.000001
140
6.0
141
0.09
142
0.0
143
0.0393700787401575
144
1.0
145
0.0
146
1.0
147
3.0
 71
     0
 72
     0
 73
     0
 74
     0
 75
     0
 76
     0
 77
     1
 78
    11
170
     0
171
     4
172
     1
173
     0
174
     0
175
     0
176
     5
177
     5
178
     5
  0
DIMSTYLE
  2
1_A_1_000
 70
     0
  3

  4

  5

  6

  7

 40
0.0
 41
2.5
 42
0.8
 43
8.0
 44
1.3
 45
0.0000000001
 46
0.0
 47
0.0
 48
0.0
140
2.2000000000000002
141
1.8
142
0.0
143
25.3999999999999986
144
1.0
145
0.7
146
1.0
147
0.8
 71
     0
 72
     0
 73
     0
 74
     0
 75
     0
 76
     0
 77
     1
 78
     9
170
     0
171
     2
172
     1
173
     0
174
     1
175
     0
176
     0
177
     0
178
     0
  0
ENDTAB
  0
ENDSEC
  0
SECTION
  2
BLOCKS
  0
BLOCK
  8
0
  2
$MODEL_SPACE
 70
     0
 10
0.0
 20
0.0
 30
0.0
  3
$MODEL_SPACE
  1

  0
ENDBLK
  5
21
  8
0
  0
BLOCK
 67
     1
  8
0
  2
$PAPER_SPACE
 70
     0
 10
0.0
 20
0.0
 30
0.0
  3
$PAPER_SPACE
  1

  0
ENDBLK
  5
D5
 67
     1
  8
0
  0
BLOCK
  8
0
  2
*U2
 70
     1
 10
0.0
 20
0.0
 30
0.0
  3
*U2
  1

  0
LINE
  5
2D5
  8
0
 10
28.6575407072978088
 20
46.5190199960009068
 30
0.0
 11
28.6575407072950803
 21
59.2190199960002701
 31
0.0
  0
ARC
  5
2D6
  8
0
 10
28.9575407072957205
 20
59.219019995999588
 30
0.0
 40
0.3000000000006366
 50
90.0000000000868567
 51
179.9999999998696865
  0
LINE
  5
2D7
  8
0
 10
28.9575407072952693
 20
59.5190199960002175
 30
0.0
 11
41.0575407072988128
 21
59.5190199960024984
 31
0.0
  0
ARC
  5
2D8
  8
0
 10
41.0575407072988128
 20
59.2190199960023165
 30
0.0
 40
0.3000000000001819
 50
0.0
 51
89.9999999999131433
  0
LINE
  5
2D9
  8
0
 10
41.3575407072989876
 20
59.2190199960027712
 30
0.0
 11
41.3575407072967209
 21
50.3421835187830311
 31
0.0
  0
ARC
  5
2DA
  8
0
 10
41.0575407072969867
 20
50.3421835187832585
 30
0.0
 40
0.2999999999997388
 50
321.1699853242586755
 51
359.9999999999565716
  0
ARC
  5
2DB
  8
0
 10
45.186291632749537
 20
47.0190199959981783
 30
0.0
 40
5.0000000000026716
 50
141.1699853243408995
 51
185.4133122735912877
  0
ARC
  5
2DC
  8
0
 10
39.9099292490973312
 20
46.5190199960013615
 30
0.0
 40
0.3000000000004093
 50
270.0
 51
5.4133122735160546
  0
LINE
  5
2DD
  8
0
 10
39.9099292490973312
 20
46.2190199960009522
 30
0.0
 11
28.9575407072979907
 21
46.2190199960011796
 31
0.0
  0
ARC
  5
2DE
  8
0
 10
28.9575407072979907
 20
46.5190199960013615
 30
0.0
 40
0.3000000000001819
 50
180.0
 51
269.9999999999132001
  0
ARC
  5
2DF
  8
0
 10
40.01156605940605
 20
45.2190199959988988
 30
0.0
 40
0.3000000000000258
 50
4.5000002608742351
 51
89.9999999999999858
  0
LINE
  5
2E0
  8
0
 10
40.310641259418837
 20
45.242557726078978
 30
0.0
 11
41.3575407072962591
 21
31.9404397774076187
 31
0.0
  0
LINE
  5
2E1
  8
0
 10
41.3575407072962591
 20
31.9404397774076187
 30
0.0
 11
41.3575407072962591
 21
27.5190196738874384
 31
0.0
  0
ARC
  5
2E2
  8
0
 10
41.057540707296539
 20
27.5190196738874384
 30
0.0
 40
0.2999999999999545
 50
269.9999999998262865
 51
0.0
  0
LINE
  5
2E3
  8
0
 10
41.0575407072956224
 20
27.219019673887491
 30
0.0
 11
40.6075407072958114
 21
27.2190196738886314
 31
0.0
  0
ARC
  5
2E4
  8
0
 10
40.6075407072944401
 20
26.86901967388917
 30
0.0
 40
0.3499999999994543
 50
89.9999999998511271
 51
269.9999999999254783
  0
LINE
  5
2E5
  8
0
 10
40.6075407072939925
 20
26.5190196738897193
 30
0.0
 11
41.057540707296539
 21
26.519019673889261
 31
0.0
  0
ARC
  5
2E6
  8
0
 10
41.057540707296539
 20
26.21901967388931
 30
0.0
 40
0.3000000000001819
 50
0.0
 51
89.9999999999131433
  0
LINE
  5
2E7
  8
0
 10
41.3575407072967209
 20
26.21901967388931
 30
0.0
 11
41.3575407072962591
 21
22.8190196738878512
 31
0.0
  0
ARC
  5
2E8
  8
0
 10
41.057540707296539
 20
22.8190196738878512
 30
0.0
 40
0.2999999999999545
 50
270.0000000000869136
 51
0.0
  0
LINE
  5
2E9
  8
0
 10
41.0575407072969867
 20
22.5190196738879003
 30
0.0
 11
40.6075407072958114
 21
22.5190196738872217
 31
0.0
  0
ARC
  5
2EA
  8
0
 10
40.6075407072962591
 20
22.1690196738877603
 30
0.0
 40
0.3499999999994543
 50
90.0000000000744365
 51
269.999999999925592
  0
LINE
  5
2EB
  8
0
 10
40.6075407072958114
 20
21.8190196738883095
 30
0.0
 11
41.057540707296539
 21
21.8190196738878512
 31
0.0
  0
ARC
  5
2EC
  8
0
 10
41.057540707296539
 20
21.5190196738876693
 30
0.0
 40
0.3000000000001819
 50
0.0
 51
89.9999999999131433
  0
LINE
  5
2ED
  8
0
 10
41.3575407072967209
 20
21.5190196738876693
 30
0.0
 11
41.3575407072962591
 21
16.819019996001991
 31
0.0
  0
ARC
  5
2EE
  8
0
 10
41.057540707296539
 20
16.8190199960024493
 30
0.0
 40
0.3000000000004093
 50
270.0
 51
359.9999999999132001
  0
LINE
  5
2EF
  8
0
 10
41.057540707296539
 20
16.5190199960020401
 30
0.0
 11
14.6575407073000807
 21
16.5190199960006794
 31
0.0
  0
ARC
  5
2F0
  8
0
 10
14.6575407073000807
 20
16.8190199960010887
 30
0.0
 40
0.3000000000001819
 50
180.0
 51
269.9999999999132001
  0
LINE
  5
2F1
  8
0
 10
14.3575407072999006
 20
16.8190199960006304
 30
0.0
 11
14.3575407072971704
 21
24.2190199960000498
 31
0.0
  0
ARC
  5
2F2
  8
0
 10
14.6575407072982706
 20
24.2190199960002701
 30
0.0
 40
0.3000000000010914
 50
90.0000000001736993
 51
180.0
  0
LINE
  5
2F3
  8
0
 10
14.6575407072973594
 20
24.5190199960013615
 30
0.0
 11
15.5075407072986309
 21
24.5190199960038591
 31
0.0
  0
ARC
  5
2F4
  8
0
 10
15.5075407072972595
 20
24.8690199960030895
 30
0.0
 40
0.3499999999994543
 50
270.0000000002232809
 51
90.0000000001489155
  0
LINE
  5
2F5
  8
0
 10
15.5075407072963607
 20
25.219019996002551
 30
0.0
 11
14.6575407072982706
 21
25.2190199960009487
 31
0.0
  0
ARC
  5
2F6
  8
0
 10
14.6575407072973594
 20
25.5190199960002317
 30
0.0
 40
0.2999999999992724
 50
180.0
 51
270.0000000000869136
  0
LINE
  5
2F7
  8
0
 10
14.3575407072980799
 20
25.5190199960002317
 30
0.0
 11
14.3575407072980799
 21
38.5190199960013615
 31
0.0
  0
ARC
  5
2F8
  8
0
 10
14.6575407072973594
 20
38.5190199960013615
 30
0.0
 40
0.2999999999992724
 50
90.0
 51
180.0
  0
LINE
  5
2F9
  8
0
 10
14.6575407072973594
 20
38.819019996000641
 30
0.0
 11
15.5075407072972595
 21
38.8190199959999518
 31
0.0
  0
ARC
  5
2FA
  8
0
 10
15.5075407072972595
 20
39.1690199959994132
 30
0.0
 40
0.3499999999994543
 50
270.0
 51
89.9999999999255778
  0
LINE
  5
2FB
  8
0
 10
15.5075407072977196
 20
39.5190199959988604
 30
0.0
 11
14.6575407072982706
 21
39.5190199959997699
 31
0.0
  0
ARC
  5
2FC
  8
0
 10
14.6575407072987201
 20
39.8190199960013231
 30
0.0
 40
0.3000000000015461
 50
180.0
 51
269.999999999782915
  0
LINE
  5
2FD
  8
0
 10
14.3575407072971704
 20
39.8190199960010887
 30
0.0
 11
14.3575407072999006
 21
45.2190199959961703
 31
0.0
  0
ARC
  5
2FE
  8
0
 10
14.6575407073000807
 20
45.2190199959957226
 30
0.0
 40
0.3000000000004093
 50
90.0
 51
179.9999999998696865
  0
LINE
  5
2FF
  8
0
 10
14.6575407073000807
 20
45.5190199959961319
 30
0.0
 11
40.01156605940605
 21
45.5190199959990807
 31
0.0
  0
LINE
  5
300
  8
0
 10
37.5575407072947201
 20
10.5190199931503194
 30
0.0
 11
14.6575407075001696
 21
10.5190199931532806
 31
0.0
  0
ARC
  5
301
  8
0
 10
14.6575407075001696
 20
10.8190199931534607
 30
0.0
 40
0.3000000000001819
 50
180.0
 51
269.9999999999132001
  0
LINE
  5
302
  8
0
 10
14.3575407074999895
 20
10.8190199931530007
 30
0.0
 11
14.35754070749954
 21
15.5190199900400803
 31
0.0
  0
ARC
  5
303
  8
0
 10
14.6575407075001696
 20
15.5190199900396202
 30
0.0
 40
0.3000000000004093
 50
90.0
 51
179.9999999999130864
  0
LINE
  5
304
  8
0
 10
14.6575407075001696
 20
15.8190199900400295
 30
0.0
 11
41.0575407070964502
 21
15.8190199900398003
 31
0.0
  0
ARC
  5
305
  8
0
 10
41.0575407070968978
 20
15.5190199900396202
 30
0.0
 40
0.3000000000001819
 50
0.0
 51
90.0000000000434142
  0
LINE
  5
306
  8
0
 10
41.3575407070970797
 20
15.5190199900393893
 30
0.0
 11
41.3575407070948131
 21
14.6190199962029492
 31
0.0
  0
ARC
  5
307
  8
0
 10
41.0575407070946312
 20
14.6190199962040808
 30
0.0
 40
0.3000000000004093
 50
270.000000018585979
 51
359.999999999782915
  0
LINE
  5
308
  8
0
 10
41.0575407071919471
 20
14.3190199962036804
 30
0.0
 11
40.3575293337548828
 21
14.3190199959769799
 31
0.0
  0
ARC
  5
309
  8
0
 10
40.3575403337576901
 20
11.8190203695391993
 30
0.0
 40
2.4999996264619839
 50
90.0002521015320269
 51
179.999747898483605
  0
LINE
  5
30A
  8
0
 10
37.8575407073199202
 20
11.8190313695413298
 30
0.0
 11
37.8575407072949019
 21
10.8190199931427706
 31
0.0
  0
ARC
  5
30B
  8
0
 10
37.5575407072942724
 20
10.8190199931509596
 30
0.0
 40
0.3000000000006366
 50
270.0000000000869136
 51
359.9999999984366923
  0
LINE
  5
30C
  8
0
 10
37.557540707296539
 20
4.5190199960024984
 30
0.0
 11
14.6575407072982706
 21
4.5190199960013606
 31
0.0
  0
ARC
  5
30D
  8
0
 10
14.6575407072982706
 20
4.819019996002452
 30
0.0
 40
0.3000000000010914
 50
180.0
 51
270.0
  0
LINE
  5
30E
  8
0
 10
14.3575407072971704
 20
4.819019996002452
 30
0.0
 11
14.3575407072976304
 21
9.5190199931514599
 31
0.0
  0
ARC
  5
30F
  8
0
 10
14.6575407072982706
 20
9.5190199931510051
 30
0.0
 40
0.3000000000004093
 50
90.0
 51
179.9999999999130864
  0
LINE
  5
310
  8
0
 10
14.6575407072982706
 20
9.8190199931514144
 30
0.0
 11
37.557540707296539
 21
9.819019993151187
 31
0.0
  0
ARC
  5
311
  8
0
 10
37.557540707296539
 20
9.5190199931510051
 30
0.0
 40
0.3000000000001819
 50
0.0
 51
89.9999999999131433
  0
LINE
  5
312
  8
0
 10
37.8575407072962733
 20
9.5190199931514599
 30
0.0
 11
37.8575407072967209
 21
4.819019996002452
 31
0.0
  0
ARC
  5
313
  8
0
 10
37.557540707296539
 20
4.8190199960029068
 30
0.0
 40
0.3000000000004093
 50
270.0
 51
359.9999999999132001
  0
LINE
  5
314
  8
0
 10
14.3575407072980799
 20
46.5190199959961319
 30
0.0
 11
14.3575407073003607
 21
59.2190199959986714
 31
0.0
  0
ARC
  5
315
  8
0
 10
14.6575407073000807
 20
59.2190199959988988
 30
0.0
 40
0.2999999999999545
 50
90.0
 51
180.0000000000434
  0
LINE
  5
316
  8
0
 10
14.6575407073000807
 20
59.5190199959988604
 30
0.0
 11
27.6575409468377984
 21
59.5190199959981783
 31
0.0
  0
ARC
  5
317
  8
0
 10
27.6575409468368889
 20
59.2190199959984511
 30
0.0
 40
0.2999999999997271
 50
0.0
 51
89.9999999997828866
  0
LINE
  5
318
  8
0
 10
27.9575409468366196
 20
59.2190199959986714
 30
0.0
 11
27.9575409468361613
 21
46.5190199959990878
 31
0.0
  0
ARC
  5
319
  8
0
 10
27.6575409468368889
 20
46.519019995999308
 30
0.0
 40
0.2999999999994998
 50
270.0000000000869136
 51
359.9999999999565716
  0
LINE
  5
31A
  8
0
 10
27.6575409468373401
 20
46.2190199959998083
 30
0.0
 11
14.6575407072982706
 21
46.2190199959963977
 31
0.0
  0
ARC
  5
31B
  8
0
 10
14.6575407072982706
 20
46.5190199959965796
 30
0.0
 40
0.3000000000001819
 50
180.0
 51
269.9999999999132001
  0
LINE
  5
31C
  8
0
 10
42.6575407072959933
 20
59.5190199960020365
 30
0.0
 11
61.393287023380708
 21
59.5190199960040829
 31
0.0
  0
ARC
  5
31D
  8
0
 10
61.393287023380708
 20
59.2190199960027712
 30
0.0
 40
0.3000000000011441
 50
20.0000000000025189
 51
89.9999999999999858
  0
LINE
  5
31E
  8
0
 10
61.6751948096175511
 20
59.3216260390008827
 30
0.0
 11
63.2766638403904835
 21
54.9216260389982835
 31
0.0
  0
ARC
  5
31F
  8
0
 10
62.9947560541540881
 20
54.8190199960010887
 30
0.0
 40
0.3000000000004093
 50
270.0000000000869136
 51
19.9999999998690683
  0
LINE
  5
320
  8
0
 10
62.9947560541545499
 20
54.5190199960006723
 30
0.0
 11
59.3575407894973068
 21
54.519019995998633
 31
0.0
  0
ARC
  5
321
  8
0
 10
59.3575407894986711
 20
52.019020369535383
 30
0.0
 40
2.49999962646325
 50
90.0000000000312639
 51
173.8493670339634036
  0
ARC
  5
322
  8
0
 10
56.5736589445527898
 20
52.3190199959992626
 30
0.0
 40
0.3000000000001819
 50
270.0
 51
353.849367033919691
  0
LINE
  5
323
  8
0
 10
56.5736589445527898
 20
52.0190199959990807
 30
0.0
 11
45.1862916327481798
 21
52.0190199959999973
 31
0.0
  0
ARC
  5
324
  8
0
 10
45.1862916327490822
 20
47.0190199959954427
 30
0.0
 40
5.0000000000045466
 50
90.0000000000104023
 51
118.4976565929426044
  0
ARC
  5
325
  8
0
 10
42.6575407072973576
 20
51.676854123639707
 30
0.0
 40
0.3000000000001819
 50
180.0
 51
298.4976565928274113
  0
LINE
  5
326
  8
0
 10
42.3575407072971828
 20
51.6768541236394796
 30
0.0
 11
42.3575407072967067
 21
59.2190199960027712
 31
0.0
  0
ARC
  5
327
  8
0
 10
42.657540707296441
 20
59.219019996002551
 30
0.0
 40
0.2999999999994998
 50
90.0000000000868567
 51
179.9999999999564864
  0
ARC
  5
328
  8
0
 10
62.3035568230516219
 20
60.5190199960013615
 30
0.0
 40
1.499999999999581
 50
19.99999999996772
 51
90.0000000000173657
  0
LINE
  5
329
  8
0
 10
62.3035568230511601
 20
62.0190199960006723
 30
0.0
 11
5.8575407072976304
 21
62.019019995998633
 31
0.0
  0
ARC
  5
32A
  8
0
 10
5.8575407072976304
 20
61.5190199959988604
 30
0.0
 40
0.4999999999997727
 50
90.0
 51
180.0000000000260059
  0
LINE
  5
32B
  8
0
 10
5.3575407072976304
 20
61.519019995998633
 30
0.0
 11
5.3575407072976304
 21
60.3725737560892028
 31
0.0
  0
LINE
  5
32C
  8
0
 10
5.3575407072976304
 20
60.3725737560892028
 30
0.0
 11
5.3575407072976304
 21
59.2261275161797514
 31
0.0
  0
ARC
  5
32D
  8
0
 10
5.8575424913942689
 20
59.2261275161804406
 30
0.0
 40
0.5000017840966394
 50
180.0
 51
224.9999594854608063
  0
LINE
  5
32E
  8
0
 10
5.5039875892521186
 20
58.8725731140425523
 30
0.0
 11
6.2110924717844682
 21
58.1654672315082735
 31
0.0
  0
ARC
  5
32F
  8
0
 10
6.5646470203705567
 20
58.5190212800898735
 30
0.0
 40
0.5000012840922226
 50
224.9999594855244993
 51
270.000000000208388
  0
LINE
  5
330
  8
0
 10
6.5646470203723757
 20
58.0190199959977235
 30
0.0
 11
7.257540931420408
 21
58.019019995999308
 31
0.0
  0
ARC
  5
331
  8
0
 10
7.2575409314194976
 20
58.3190197718765901
 30
0.0
 40
0.2999997758772679
 50
270.0000000001737135
 51
359.9999999999130864
  0
LINE
  5
332
  8
0
 10
7.557540707296539
 20
58.3190197718761212
 30
0.0
 11
7.5575407072974476
 21
59.2190202201213722
 31
0.0
  0
ARC
  5
333
  8
0
 10
7.8575404831753977
 20
59.2190202201211378
 30
0.0
 40
0.29999977587795
 50
90.0
 51
179.9999999999566
  0
LINE
  5
334
  8
0
 10
7.8575404831753977
 20
59.5190199959990807
 30
0.0
 11
11.3575414543715798
 21
59.5190199959979509
 31
0.0
  0
ARC
  5
335
  8
0
 10
11.3575414543715798
 20
58.5190207430728222
 30
0.0
 40
0.9999992529255906
 50
0.0
 51
89.9999999999869686
  0
LINE
  5
336
  8
0
 10
12.3575407072971704
 20
58.5190207430725806
 30
0.0
 11
12.3575407072976304
 21
49.5190192489235415
 31
0.0
  0
ARC
  5
337
  8
0
 10
11.3575414543724893
 20
49.5190192489237688
 30
0.0
 40
0.9999992529251358
 50
270.0000000000259774
 51
359.9999999999740226
  0
LINE
  5
338
  8
0
 10
11.3575414543729494
 20
48.5190199959986401
 30
0.0
 11
7.8575404831735787
 21
48.5190199959988604
 31
0.0
  0
ARC
  5
339
  8
0
 10
7.8575404831731239
 20
48.8190197718761283
 30
0.0
 40
0.2999997758774953
 50
180.0
 51
270.0000000003039986
  0
LINE
  5
33A
  8
0
 10
7.5575407072956287
 20
48.8190197718772723
 30
0.0
 11
7.5575407072974476
 21
49.7190202201209104
 31
0.0
  0
ARC
  5
33B
  8
0
 10
7.2575409314199533
 20
49.7190202201218199
 30
0.0
 40
0.2999997758774953
 50
0.0
 51
90.0000000003039702
  0
LINE
  5
33C
  8
0
 10
7.2575409314194976
 20
50.019019995999308
 30
0.0
 11
6.5646482274783011
 21
50.0190199959995425
 31
0.0
  0
ARC
  5
33D
  8
0
 10
6.564648227478755
 20
49.519018211903358
 30
0.0
 40
0.500001784096412
 50
90.0000000000521254
 51
135.0000564930303142
  0
LINE
  5
33E
  8
0
 10
6.2110932267378303
 20
49.872572515442009
 30
0.0
 11
5.70398713709801
 21
49.3654654257982202
 31
0.0
  0
ARC
  5
33F
  8
0
 10
6.0575412842786127
 20
49.0119119758167017
 30
0.0
 40
0.5000005769821044
 50
135.0000564929088114
 51
180.000000000104194
  0
LINE
  5
340
  8
0
 10
5.557540707296539
 20
49.0119119758157922
 30
0.0
 11
5.5575407072974476
 21
46.0261275161828891
 31
0.0
  0
ARC
  5
341
  8
0
 10
6.0575424913927227
 20
46.0261275161826617
 30
0.0
 40
0.5000017840952751
 50
180.0
 51
224.9999435072828931
  0
LINE
  5
342
  8
0
 10
5.7039874906545256
 20
45.6725732126428667
 30
0.0
 11
6.2110923731934227
 21
45.165467330106587
 31
0.0
  0
ARC
  5
343
  8
0
 10
6.564647020376924
 20
45.5190212800903211
 30
0.0
 40
0.5000012840925016
 50
224.9999435071158018
 51
270.000000000104194
  0
LINE
  5
344
  8
0
 10
6.5646470203778327
 20
45.0190199959977235
 30
0.0
 11
7.2575409314199533
 21
45.0190199959988604
 31
0.0
  0
ARC
  5
345
  8
0
 10
7.2575409314190429
 20
45.3190197718770307
 30
0.0
 40
0.2999997758784047
 50
270.0000000001737135
 51
359.9999999999130864
  0
LINE
  5
346
  8
0
 10
7.5575407072974476
 20
45.319019771876583
 30
0.0
 11
7.5575407072974476
 21
46.2190202201218128
 31
0.0
  0
ARC
  5
347
  8
0
 10
7.8575404831753977
 20
46.2190202201218128
 30
0.0
 40
0.29999977587795
 50
90.0
 51
180.0
  0
LINE
  5
348
  8
0
 10
7.8575404831753977
 20
46.5190199959997699
 30
0.0
 11
11.8575410808366506
 21
46.5190199959997699
 31
0.0
  0
ARC
  5
349
  8
0
 10
11.8575410808361994
 20
46.0190203695381115
 30
0.0
 40
0.4999996264618858
 50
0.0
 51
89.9999999999218403
  0
LINE
  5
34A
  8
0
 10
12.3575407072980799
 20
46.0190203695383317
 30
0.0
 11
12.3575407072953602
 21
18.0190196224639294
 31
0.0
  0
ARC
  5
34B
  8
0
 10
11.8575410808321102
 20
18.0190196224639294
 30
0.0
 40
0.4999996264632501
 50
270.0
 51
0.0
  0
LINE
  5
34C
  8
0
 10
11.8575410808321102
 20
17.5190199960006794
 30
0.0
 11
7.8575404831703963
 21
17.5190199959997699
 31
0.0
  0
ARC
  5
34D
  8
0
 10
7.8575404831703963
 20
17.8190197718777199
 30
0.0
 40
0.29999977587795
 50
180.0
 51
270.000000000217085
  0
LINE
  5
34E
  8
0
 10
7.5575407072924463
 20
17.8190197718788497
 30
0.0
 11
7.5575407072956287
 21
18.7190202201236389
 31
0.0
  0
ARC
  5
34F
  8
0
 10
7.2575409314194976
 20
18.7190202201245484
 30
0.0
 40
0.299999775876131
 50
0.0
 51
90.0000000001736993
  0
LINE
  5
350
  8
0
 10
7.2575409314194976
 20
19.0190199960006794
 30
0.0
 11
6.564647020376924
 21
19.0190199959999902
 31
0.0
  0
ARC
  5
351
  8
0
 10
6.564647020376924
 20
18.5190187119060283
 30
0.0
 40
0.5000012840941963
 50
90.0
 51
135.0000564928473068
  0
LINE
  5
352
  8
0
 10
6.2110923731925141
 20
18.8725726618911303
 30
0.0
 11
5.7039874906513433
 21
18.3654667793530209
 31
0.0
  0
ARC
  5
353
  8
0
 10
6.0575424913872657
 20
18.0119124758159614
 30
0.0
 40
0.5000017840920976
 50
135.0000564927908044
 51
180.000000000104194
  0
LINE
  5
354
  8
0
 10
5.5575407072951739
 20
18.0119124758150484
 30
0.0
 11
5.5575407072969929
 21
15.02612801618079
 31
0.0
  0
ARC
  5
355
  8
0
 10
6.0575412842872529
 20
15.02612801618125
 30
0.0
 40
0.5000005769902601
 50
180.0
 51
224.9999435073154075
  0
LINE
  5
356
  8
0
 10
5.7039871371025583
 20
14.6725745661924503
 30
0.0
 11
6.2110932267437411
 21
14.1654674765550208
 31
0.0
  0
ARC
  5
357
  8
0
 10
6.5646482274810287
 20
14.5190217800945902
 30
0.0
 40
0.5000017840945091
 50
224.9999435073382017
 51
270.0000000001563194
  0
LINE
  5
358
  8
0
 10
6.564648227482393
 20
14.0190199960002193
 30
0.0
 11
7.2575409314199533
 21
14.0190199960011306
 31
0.0
  0
ARC
  5
359
  8
0
 10
7.2575409314194976
 20
14.3190197718779402
 30
0.0
 40
0.2999997758768131
 50
270.0000000000867999
 51
0.0
  0
LINE
  5
35A
  8
0
 10
7.557540707296539
 20
14.3190197718779402
 30
0.0
 11
7.5575407072974476
 21
15.2190202201231806
 31
0.0
  0
ARC
  5
35B
  8
0
 10
7.8575404831753977
 20
15.2190202201229603
 30
0.0
 40
0.29999977587795
 50
90.0
 51
179.9999999999566
  0
LINE
  5
35C
  8
0
 10
7.8575404831753977
 20
15.5190199960008997
 30
0.0
 11
11.3575414543715798
 21
15.5190199960000008
 31
0.0
  0
ARC
  5
35D
  8
0
 10
11.3575414543715798
 20
14.5190207430746305
 30
0.0
 40
0.9999992529255906
 50
0.0
 51
89.9999999999869686
  0
LINE
  5
35E
  8
0
 10
12.3575407072971704
 20
14.5190207430743996
 30
0.0
 11
12.3575407072976304
 21
5.5190192489253604
 31
0.0
  0
ARC
  5
35F
  8
0
 10
11.3575414543724893
 20
5.5190192489258152
 30
0.0
 40
0.9999992529251358
 50
270.0000000000259774
 51
359.9999999999740226
  0
LINE
  5
360
  8
0
 10
11.3575414543729494
 20
4.5190199960006794
 30
0.0
 11
7.8575404831703963
 21
4.5190199960006794
 31
0.0
  0
ARC
  5
361
  8
0
 10
7.8575404831703963
 20
4.8190197718786294
 30
0.0
 40
0.29999977587795
 50
180.0
 51
270.000000000217085
  0
LINE
  5
362
  8
0
 10
7.5575407072924463
 20
4.8190197718797663
 30
0.0
 11
7.5575407072956287
 21
5.7190202201243201
 31
0.0
  0
ARC
  5
363
  8
0
 10
7.2575409314190429
 20
5.7190202201250031
 30
0.0
 40
0.2999997758765858
 50
0.0
 51
89.9999999999565574
  0
LINE
  5
364
  8
0
 10
7.2575409314194976
 20
6.019019996001588
 30
0.0
 11
6.5646470203746503
 21
6.0190199960020427
 31
0.0
  0
ARC
  5
365
  8
0
 10
6.5646470203746503
 20
5.5190187119073917
 30
0.0
 40
0.5000012840946511
 50
90.0
 51
135.0000405142727971
  0
LINE
  5
366
  8
0
 10
6.2110924717885601
 20
5.8725727604917211
 30
0.0
 11
5.5039875892516639
 21
5.1654668779549411
 31
0.0
  0
ARC
  5
367
  8
0
 10
5.8575424913933603
 20
4.8119124758165981
 30
0.0
 40
0.5000017840966421
 50
135.0000405143613023
 51
179.9999999999739089
  0
LINE
  5
368
  8
0
 10
5.3575407072967201
 20
4.8119124758168246
 30
0.0
 11
5.3575407072976304
 21
2.5190199960006789
 31
0.0
  0
ARC
  5
369
  8
0
 10
5.8575407072976304
 20
2.5190199960006789
 30
0.0
 40
0.5
 50
180.0
 51
270.0
  0
LINE
  5
36A
  8
0
 10
5.8575407072976304
 20
2.0190199960006789
 30
0.0
 11
46.8575407072962591
 21
2.0190199960009059
 31
0.0
  0
ARC
  5
36B
  8
0
 10
46.8575407072962591
 20
2.5190199960011341
 30
0.0
 40
0.5000000000002274
 50
270.0
 51
359.9999999999740226
  0
LINE
  5
36C
  8
0
 10
47.3575407072967067
 20
2.5190199960009059
 30
0.0
 11
47.3575407072953567
 21
5.5190203758079397
 31
0.0
  0
ARC
  5
36D
  8
0
 10
46.8575409355098529
 20
5.5190203758077132
 30
0.0
 40
0.4999997717854967
 50
0.0
 51
99.999998960096363
  0
LINE
  5
36E
  8
0
 10
46.7707168952424581
 20
6.0114240291422902
 30
0.0
 11
45.1054469008094969
 21
5.7177920301237464
 31
0.0
  0
ARC
  5
36F
  8
0
 10
45.1575414835406193
 20
5.4223489388216422
 30
0.0
 40
0.3000007762460861
 50
99.9999989600941319
 51
180.0000000001301999
  0
LINE
  5
370
  8
0
 10
44.8575407072949019
 20
5.42234893882096
 30
0.0
 11
44.8575407072958114
 21
4.8190197718790841
 31
0.0
  0
ARC
  5
371
  8
0
 10
44.5575409314187709
 20
4.819019771878402
 30
0.0
 40
0.2999997758772679
 50
269.9999999999130864
 51
0.0000000001302958
  0
LINE
  5
372
  8
0
 10
44.5575409314183091
 20
4.5190199960011341
 30
0.0
 11
40.8575399602204925
 21
4.5190199960002237
 31
0.0
  0
ARC
  5
373
  8
0
 10
40.8575399602204925
 20
5.5190192489253604
 30
0.0
 40
0.9999992529251358
 50
180.0
 51
270.0000000000521254
  0
LINE
  5
374
  8
0
 10
39.8575407072953567
 20
5.5190192489258152
 30
0.0
 11
39.8575407072962591
 21
7.9690203212485349
 31
0.0
  0
ARC
  5
375
  8
0
 10
39.8575407072962591
 20
8.2690203212484903
 30
0.0
 40
0.2999999999999545
 50
90.0
 51
270.0
  0
LINE
  5
376
  8
0
 10
39.8575407072962591
 20
8.5690203212484448
 30
0.0
 11
39.8575407072958114
 21
11.8190203695387499
 31
0.0
  0
ARC
  5
377
  8
0
 10
40.3575403337576901
 20
11.8190203695396594
 30
0.0
 40
0.4999996264616584
 50
89.9999999998957776
 51
180.000000000104194
  0
LINE
  5
378
  8
0
 10
40.3575403337586067
 20
12.3190199960013107
 30
0.0
 11
41.6332764366093215
 21
12.3190199959997209
 31
0.0
  0
ARC
  5
379
  8
0
 10
41.6332764366093215
 20
12.0190195083871405
 30
0.0
 40
0.3000004876126111
 50
44.999999999846473
 51
90.0
  0
LINE
  5
37A
  8
0
 10
41.8454088157600381
 20
12.2311518875367202
 30
0.0
 11
42.2696725988321234
 21
11.8068881044621303
 31
0.0
  0
ARC
  5
37B
  8
0
 10
42.0575402196809591
 20
11.5947557253120994
 30
0.0
 40
0.3000004876134881
 50
0.0
 51
44.9999999998337472
  0
LINE
  5
37C
  8
0
 10
42.3575407072944401
 20
11.5947557253123197
 30
0.0
 11
42.3575407072949019
 21
10.8190197718779402
 31
0.0
  0
ARC
  5
37D
  8
0
 10
42.6575404831719425
 20
10.8190197718784002
 30
0.0
 40
0.2999997758774953
 50
180.0
 51
269.9999999999132001
  0
LINE
  5
37E
  8
0
 10
42.6575404831719425
 20
10.5190199960008997
 30
0.0
 11
44.2849993150466616
 21
10.5190199960004502
 31
0.0
  0
ARC
  5
37F
  8
0
 10
44.2849993150434713
 20
11.0190214684148504
 30
0.0
 40
0.5000014724143967
 50
270.0000000003647074
 51
285.000001155710379
  0
LINE
  5
380
  8
0
 10
44.4144092284254768
 20
10.5360571356375203
 30
0.0
 11
46.4869501503740068
 21
11.0913928467748502
 31
0.0
  0
ARC
  5
381
  8
0
 10
46.3575405869232711
 20
11.5743558735793997
 30
0.0
 40
0.5000001203727127
 50
285.000001156054509
 51
359.9999999999740226
  0
LINE
  5
382
  8
0
 10
46.8575407072958114
 20
11.5743558735791794
 30
0.0
 11
46.8575407072944401
 21
13.0190203695401596
 31
0.0
  0
ARC
  5
383
  8
0
 10
46.3575410808325614
 20
13.01902036954084
 30
0.0
 40
0.4999996264618858
 50
0.0
 51
90.0000000001302709
  0
LINE
  5
384
  8
0
 10
46.3575410808325614
 20
13.5190199960027204
 30
0.0
 11
46.1575411670874018
 21
13.5190199960022692
 31
0.0
  0
ARC
  5
385
  8
0
 10
46.1575411670874018
 20
13.2190201822766102
 30
0.0
 40
0.2999998137256625
 50
90.0
 51
179.5724183246938139
  0
ARC
  5
386
  8
0
 10
45.5575580578761219
 20
13.2234977641799105
 30
0.0
 40
0.3000000030066468
 50
285.0000135194572977
 51
359.5724183248850068
  0
LINE
  5
387
  8
0
 10
45.6352038405607274
 20
12.9337200317102106
 30
0.0
 11
44.6017379974364303
 21
12.6568034322754102
 31
0.0
  0
ARC
  5
388
  8
0
 10
44.4723282908944313
 20
13.1397665762437992
 30
0.0
 40
0.5000002705789161
 50
225.0
 51
285.0000135194806035
  0
LINE
  5
389
  8
0
 10
44.1187747089729712
 20
12.7862129943223408
 30
0.0
 11
43.4454088157567568
 21
13.4595788875385498
 31
0.0
  0
ARC
  5
38A
  8
0
 10
43.657541194906571
 20
13.6717112666885896
 30
0.0
 40
0.3000004876121238
 50
180.0
 51
225.0000000000434
  0
LINE
  5
38B
  8
0
 10
43.3575407072944472
 20
13.6717112666888099
 30
0.0
 11
43.3575407072971686
 21
32.0190199960031805
 31
0.0
  0
LINE
  5
38C
  8
0
 10
43.3575407072971686
 20
32.0190199960031805
 30
0.0
 11
42.1955396326188676
 21
46.7836426952005695
 31
0.0
  0
ARC
  5
38D
  8
0
 10
45.1862916327477322
 20
47.0190199959988533
 30
0.0
 40
3.000000000001136
 50
89.999999999991303
 51
184.5000002608252032
  0
LINE
  5
38E
  8
0
 10
45.1862916327481798
 20
50.0190199959999973
 30
0.0
 11
56.0575411630356868
 21
50.0190199959990807
 31
0.0
  0
ARC
  5
38F
  8
0
 10
56.0575411630352392
 20
49.5190199959993222
 30
0.0
 40
0.5
 50
0.0
 51
89.9999999998697291
  0
LINE
  5
390
  8
0
 10
56.5575411630352392
 20
49.519019996000452
 30
0.0
 11
56.5575411630384224
 21
48.5190196224612009
 31
0.0
  0
ARC
  5
391
  8
0
 10
57.0575407895007629
 20
48.5190196224625581
 30
0.0
 40
0.4999996264623406
 50
180.0
 51
269.9999999998175895
  0
LINE
  5
392
  8
0
 10
57.0575407895003082
 20
48.0190199960002317
 30
0.0
 11
59.4004348499570369
 21
48.019019995998633
 31
0.0
  0
ARC
  5
393
  8
0
 10
59.4004348499565822
 20
48.5190212800951031
 30
0.0
 40
0.5000012840964702
 50
270.0000000000521254
 51
315.0000626721724757
  0
LINE
  5
394
  8
0
 10
59.7539895352733765
 20
48.1654673682389785
 30
0.0
 11
60.2110944178125465
 21
48.6225732507759929
 31
0.0
  0
ARC
  5
395
  8
0
 10
59.8575393789424197
 20
48.976127516184313
 30
0.0
 40
0.5000017840956908
 50
315.0000626722019774
 51
0.0000000005211032
  0
LINE
  5
396
  8
0
 10
60.3575411630381495
 20
48.9761275161888534
 30
0.0
 11
60.3575411630358687
 21
49.2190202201240865
 31
0.0
  0
ARC
  5
397
  8
0
 10
60.0575413871579329
 20
49.2190202201213722
 30
0.0
 40
0.29999977587795
 50
0.0
 51
89.9999999995223305
  0
LINE
  5
398
  8
0
 10
60.057541387157471
 20
49.5190199959993222
 30
0.0
 11
59.3575407894986711
 21
49.5190199959995425
 31
0.0
  0
ARC
  5
399
  8
0
 10
59.3575407894986711
 20
50.0190196224627925
 30
0.0
 40
0.4999996264632501
 50
180.0
 51
270.0
  0
LINE
  5
39A
  8
0
 10
58.8575411630354211
 20
50.0190196224627925
 30
0.0
 11
58.8575411630354211
 21
52.019020369535383
 31
0.0
  0
ARC
  5
39B
  8
0
 10
59.3575407894986711
 20
52.019020369535383
 30
0.0
 40
0.4999996264632501
 50
90.0
 51
180.0
  0
LINE
  5
39C
  8
0
 10
59.3575407894986711
 20
52.519019995998633
 30
0.0
 11
63.9074549328479407
 21
52.519019996000452
 31
0.0
  0
ARC
  5
39D
  8
0
 10
63.9074549328479407
 20
52.0190199960011412
 30
0.0
 40
0.4999999999997181
 50
19.9999999999736495
 51
89.9999999999999858
  0
LINE
  5
39E
  8
0
 10
64.3773012432407086
 20
52.190030067663649
 30
0.0
 11
64.95754070729663
 21
50.5958352422965092
 31
0.0
  0
LINE
  5
39F
  8
0
 10
64.95754070729663
 20
50.5958352422965092
 30
0.0
 11
64.9575407072970847
 21
49.819019995999497
 31
0.0
  0
ARC
  5
3A0
  8
0
 10
64.6575407072982671
 20
49.8190199959985875
 30
0.0
 40
0.2999999999988176
 50
270.0
 51
0.0000000001302958
  0
LINE
  5
3A1
  8
0
 10
64.6575407072982671
 20
49.5190199959997699
 30
0.0
 11
63.1575414510457378
 21
49.5190199959983985
 31
0.0
  0
ARC
  5
3A2
  8
0
 10
63.1575414510461925
 20
49.2190197079894531
 30
0.0
 40
0.3000002880089596
 50
90.0000000000868567
 51
179.9999999996526014
  0
LINE
  5
3A3
  8
0
 10
62.85754116303724
 20
49.2190197079912579
 30
0.0
 11
62.8575411630358687
 21
48.976127516186132
 31
0.0
  0
ARC
  5
3A4
  8
0
 10
63.357542947130689
 20
48.9761275161838512
 30
0.0
 40
0.5000017840948204
 50
180.0
 51
224.9999373278189978
  0
LINE
  5
3A5
  8
0
 10
63.0039879082596528
 20
48.6225732507775774
 30
0.0
 11
63.4610927907970108
 21
48.1654673682405701
 31
0.0
  0
ARC
  5
3A6
  8
0
 10
63.8146474761151623
 20
48.5190212800953304
 30
0.0
 40
0.5000012840962553
 50
224.9999373276432095
 51
269.9999999999478746
  0
LINE
  5
3A7
  8
0
 10
63.8146474761147076
 20
48.0190199959990878
 30
0.0
 11
66.8575407072949019
 21
48.0190199959990878
 31
0.0
  0
ARC
  5
3A8
  8
0
 10
66.8575407072949019
 20
48.5190199959988604
 30
0.0
 40
0.4999999999997727
 50
270.0
 51
0.0000000000260592
  0
LINE
  5
3A9
  8
0
 10
67.3575407072949019
 20
48.5190199959990878
 30
0.0
 11
67.3575407072949019
 21
51.0190199959990878
 31
0.0
  0
LINE
  5
3AA
  8
0
 10
67.3575407072949019
 20
51.0190199959990878
 30
0.0
 11
63.713095754230828
 21
61.0320502109889276
 31
0.0
  0
ENDBLK
  5
3AC
  8
0
  0
BLOCK
  8
0
  2
*U3
 70
     1
 10
0.0
 20
0.0
 30
0.0
  3
*U3
  1

  0
LINE
  5
3AE
  8
0
 10
28.90052810198722
 20
46.812350861000823
 30
0.0
 11
28.9005281019844915
 21
59.5123508610001934
 31
0.0
  0
ARC
  5
3AF
  8
0
 10
29.2005281019851317
 20
59.5123508609994971
 30
0.0
 40
0.3000000000006366
 50
90.0000000000868567
 51
179.9999999998696865
  0
LINE
  5
3B0
  8
0
 10
29.2005281019846805
 20
59.8123508610001409
 30
0.0
 11
41.3005281019882133
 21
59.8123508610024075
 31
0.0
  0
ARC
  5
3B1
  8
0
 10
41.3005281019882133
 20
59.5123508610022327
 30
0.0
 40
0.3000000000001819
 50
0.0
 51
89.9999999999131433
  0
LINE
  5
3B2
  8
0
 10
41.6005281019884023
 20
59.5123508610026803
 30
0.0
 11
41.6005281019861286
 21
50.6355143837829402
 31
0.0
  0
ARC
  5
3B3
  8
0
 10
41.3005281019864015
 20
50.6355143837831818
 30
0.0
 40
0.2999999999997388
 50
321.1699853242586755
 51
359.9999999999565716
  0
ARC
  5
3B4
  8
0
 10
45.4292790274389517
 20
47.3123508609980874
 30
0.0
 40
5.0000000000026716
 50
141.1699853243408995
 51
185.4133122735912877
  0
ARC
  5
3B5
  8
0
 10
40.1529166437867389
 20
46.8123508610012706
 30
0.0
 40
0.3000000000004093
 50
270.0
 51
5.4133122735160546
  0
LINE
  5
3B6
  8
0
 10
40.1529166437867389
 20
46.5123508610008614
 30
0.0
 11
29.2005281019873983
 21
46.5123508610010887
 31
0.0
  0
ARC
  5
3B7
  8
0
 10
29.2005281019873983
 20
46.8123508610012706
 30
0.0
 40
0.3000000000001819
 50
180.0
 51
269.9999999999132001
  0
ARC
  5
3B8
  8
0
 10
40.2545534540954577
 20
45.5123508609988221
 30
0.0
 40
0.3000000000000258
 50
4.5000002608742351
 51
89.9999999999999858
  0
LINE
  5
3B9
  8
0
 10
40.5536286541082518
 20
45.5358885910789013
 30
0.0
 11
41.6005281019856668
 21
32.2337706424075421
 31
0.0
  0
LINE
  5
3BA
  8
0
 10
41.6005281019856668
 20
32.2337706424075421
 30
0.0
 11
41.6005281019856668
 21
27.8123505388873618
 31
0.0
  0
ARC
  5
3BB
  8
0
 10
41.3005281019859396
 20
27.8123505388873618
 30
0.0
 40
0.2999999999999545
 50
269.9999999998262865
 51
0.0
  0
LINE
  5
3BC
  8
0
 10
41.3005281019850301
 20
27.5123505388874001
 30
0.0
 11
40.850528101985212
 21
27.5123505388885405
 31
0.0
  0
ARC
  5
3BD
  8
0
 10
40.8505281019838478
 20
27.1623505388890898
 30
0.0
 40
0.3499999999994543
 50
89.9999999998511271
 51
269.9999999999254783
  0
LINE
  5
3BE
  8
0
 10
40.8505281019834001
 20
26.8123505388896284
 30
0.0
 11
41.3005281019859396
 21
26.8123505388891807
 31
0.0
  0
ARC
  5
3BF
  8
0
 10
41.3005281019859396
 20
26.5123505388892191
 30
0.0
 40
0.3000000000001819
 50
0.0
 51
89.9999999999131433
  0
LINE
  5
3C0
  8
0
 10
41.6005281019861286
 20
26.5123505388892191
 30
0.0
 11
41.6005281019856668
 21
23.112350538887771
 31
0.0
  0
ARC
  5
3C1
  8
0
 10
41.3005281019859396
 20
23.112350538887771
 30
0.0
 40
0.2999999999999545
 50
270.0000000000869136
 51
0.0
  0
LINE
  5
3C2
  8
0
 10
41.3005281019864015
 20
22.8123505388878201
 30
0.0
 11
40.850528101985212
 21
22.8123505388871308
 31
0.0
  0
ARC
  5
3C3
  8
0
 10
40.8505281019856668
 20
22.4623505388876801
 30
0.0
 40
0.3499999999994543
 50
90.0000000000744365
 51
269.999999999925592
  0
LINE
  5
3C4
  8
0
 10
40.850528101985212
 20
22.1123505388882187
 30
0.0
 11
41.3005281019859396
 21
22.112350538887771
 31
0.0
  0
ARC
  5
3C5
  8
0
 10
41.3005281019859396
 20
21.8123505388875891
 30
0.0
 40
0.3000000000001819
 50
0.0
 51
89.9999999999131433
  0
LINE
  5
3C6
  8
0
 10
41.6005281019861286
 20
21.8123505388875891
 30
0.0
 11
41.6005281019856668
 21
17.1123508610019108
 31
0.0
  0
ARC
  5
3C7
  8
0
 10
41.3005281019859396
 20
17.1123508610023691
 30
0.0
 40
0.3000000000004093
 50
270.0
 51
359.9999999999132001
  0
LINE
  5
3C8
  8
0
 10
41.3005281019859396
 20
16.8123508610019599
 30
0.0
 11
14.9005281019894902
 21
16.8123508610005885
 31
0.0
  0
ARC
  5
3C9
  8
0
 10
14.9005281019894902
 20
17.1123508610010013
 30
0.0
 40
0.3000000000001819
 50
180.0
 51
269.9999999999132001
  0
LINE
  5
3CA
  8
0
 10
14.6005281019893101
 20
17.1123508610005501
 30
0.0
 11
14.6005281019865798
 21
24.512350860999959
 31
0.0
  0
ARC
  5
3CB
  8
0
 10
14.9005281019876694
 20
24.5123508610001899
 30
0.0
 40
0.3000000000010914
 50
90.0000000001736993
 51
180.0
  0
LINE
  5
3CC
  8
0
 10
14.9005281019867599
 20
24.8123508610012813
 30
0.0
 11
15.7505281019880403
 21
24.8123508610037788
 31
0.0
  0
ARC
  5
3CD
  8
0
 10
15.7505281019866707
 20
25.1623508610030093
 30
0.0
 40
0.3499999999994543
 50
270.0000000002232809
 51
90.0000000001489155
  0
LINE
  5
3CE
  8
0
 10
15.7505281019857595
 20
25.5123508610024601
 30
0.0
 11
14.9005281019876694
 21
25.5123508610008685
 31
0.0
  0
ARC
  5
3CF
  8
0
 10
14.9005281019867599
 20
25.8123508610001409
 30
0.0
 40
0.2999999999992724
 50
180.0
 51
270.0000000000869136
  0
LINE
  5
3D0
  8
0
 10
14.6005281019874893
 20
25.8123508610001409
 30
0.0
 11
14.6005281019874893
 21
38.8123508610012777
 31
0.0
  0
ARC
  5
3D1
  8
0
 10
14.9005281019867599
 20
38.8123508610012777
 30
0.0
 40
0.2999999999992724
 50
90.0
 51
180.0
  0
LINE
  5
3D2
  8
0
 10
14.9005281019867599
 20
39.1123508610005501
 30
0.0
 11
15.7505281019866707
 21
39.112350860999868
 31
0.0
  0
ARC
  5
3D3
  8
0
 10
15.7505281019866707
 20
39.4623508609993223
 30
0.0
 40
0.3499999999994543
 50
270.0
 51
89.9999999999255778
  0
LINE
  5
3D4
  8
0
 10
15.7505281019871308
 20
39.8123508609987766
 30
0.0
 11
14.9005281019876694
 21
39.8123508609996932
 31
0.0
  0
ARC
  5
3D5
  8
0
 10
14.9005281019881295
 20
40.1123508610012323
 30
0.0
 40
0.3000000000015461
 50
180.0
 51
269.999999999782915
  0
LINE
  5
3D6
  8
0
 10
14.6005281019865798
 20
40.1123508610009978
 30
0.0
 11
14.6005281019893101
 21
45.5123508609960865
 31
0.0
  0
ARC
  5
3D7
  8
0
 10
14.9005281019894902
 20
45.5123508609956389
 30
0.0
 40
0.3000000000004093
 50
90.0
 51
179.9999999998696865
  0
LINE
  5
3D8
  8
0
 10
14.9005281019894902
 20
45.8123508609960481
 30
0.0
 11
40.2545534540954577
 21
45.8123508609989969
 31
0.0
  0
LINE
  5
3D9
  8
0
 10
37.8005281019841277
 20
10.8123508581502392
 30
0.0
 11
14.9005281021895808
 21
10.8123508581531897
 31
0.0
  0
ARC
  5
3DA
  8
0
 10
14.9005281021895808
 20
11.1123508581533699
 30
0.0
 40
0.3000000000001819
 50
180.0
 51
269.9999999999132001
  0
LINE
  5
3DB
  8
0
 10
14.6005281021894007
 20
11.1123508581529205
 30
0.0
 11
14.6005281021889406
 21
15.8123508550399894
 31
0.0
  0
ARC
  5
3DC
  8
0
 10
14.9005281021895808
 20
15.81235085503954
 30
0.0
 40
0.3000000000004093
 50
90.0
 51
179.9999999999130864
  0
LINE
  5
3DD
  8
0
 10
14.9005281021895808
 20
16.1123508550399492
 30
0.0
 11
41.3005281017858508
 21
16.1123508550397183
 31
0.0
  0
ARC
  5
3DE
  8
0
 10
41.3005281017863126
 20
15.81235085503954
 30
0.0
 40
0.3000000000001819
 50
0.0
 51
90.0000000000434142
  0
LINE
  5
3DF
  8
0
 10
41.6005281017864874
 20
15.8123508550393108
 30
0.0
 11
41.6005281017842208
 21
14.9123508612028601
 31
0.0
  0
ARC
  5
3E0
  8
0
 10
41.3005281017840389
 20
14.9123508612040006
 30
0.0
 40
0.3000000000004093
 50
270.000000018585979
 51
359.999999999782915
  0
LINE
  5
3E1
  8
0
 10
41.3005281018813477
 20
14.6123508612035895
 30
0.0
 11
40.6005167284442905
 21
14.6123508609768997
 31
0.0
  0
ARC
  5
3E2
  8
0
 10
40.6005277284470978
 20
12.1123512345391209
 30
0.0
 40
2.4999996264619839
 50
90.0002521015320269
 51
179.999747898483605
  0
LINE
  5
3E3
  8
0
 10
38.1005281020093207
 20
12.1123622345412496
 30
0.0
 11
38.1005281019843096
 21
11.1123508581426904
 31
0.0
  0
ARC
  5
3E4
  8
0
 10
37.800528101983673
 20
11.1123508581508705
 30
0.0
 40
0.3000000000006366
 50
270.0000000000869136
 51
359.9999999984366923
  0
LINE
  5
3E5
  8
0
 10
37.8005281019859467
 20
4.8123508610024137
 30
0.0
 11
14.9005281019876694
 21
4.8123508610012768
 31
0.0
  0
ARC
  5
3E6
  8
0
 10
14.9005281019876694
 20
5.1123508610023691
 30
0.0
 40
0.3000000000010914
 50
180.0
 51
270.0
  0
LINE
  5
3E7
  8
0
 10
14.6005281019865798
 20
5.1123508610023691
 30
0.0
 11
14.6005281019870292
 21
9.8123508581513761
 31
0.0
  0
ARC
  5
3E8
  8
0
 10
14.9005281019876694
 20
9.8123508581509213
 30
0.0
 40
0.3000000000004093
 50
90.0
 51
179.9999999999130864
  0
LINE
  5
3E9
  8
0
 10
14.9005281019876694
 20
10.1123508581513306
 30
0.0
 11
37.8005281019859467
 21
10.1123508581510997
 31
0.0
  0
ARC
  5
3EA
  8
0
 10
37.8005281019859467
 20
9.8123508581509213
 30
0.0
 40
0.3000000000001819
 50
0.0
 51
89.9999999999131433
  0
LINE
  5
3EB
  8
0
 10
38.100528101985681
 20
9.8123508581513761
 30
0.0
 11
38.1005281019861286
 21
5.1123508610023691
 31
0.0
  0
ARC
  5
3EC
  8
0
 10
37.8005281019859467
 20
5.112350861002823
 30
0.0
 40
0.3000000000004093
 50
270.0
 51
359.9999999999132001
  0
LINE
  5
3ED
  8
0
 10
14.6005281019874893
 20
46.812350860996041
 30
0.0
 11
14.6005281019897595
 21
59.5123508609986018
 31
0.0
  0
ARC
  5
3EE
  8
0
 10
14.9005281019894902
 20
59.5123508609988221
 30
0.0
 40
0.2999999999999545
 50
90.0
 51
180.0000000000434
  0
LINE
  5
3EF
  8
0
 10
14.9005281019894902
 20
59.8123508609987766
 30
0.0
 11
27.9005283415272096
 21
59.8123508609980874
 31
0.0
  0
ARC
  5
3F0
  8
0
 10
27.9005283415263001
 20
59.5123508609983674
 30
0.0
 40
0.2999999999997271
 50
0.0
 51
89.9999999997828866
  0
LINE
  5
3F1
  8
0
 10
28.2005283415260308
 20
59.5123508609986018
 30
0.0
 11
28.200528341525569
 21
46.8123508609989969
 31
0.0
  0
ARC
  5
3F2
  8
0
 10
27.9005283415263001
 20
46.8123508609992314
 30
0.0
 40
0.2999999999994998
 50
270.0000000000869136
 51
359.9999999999565716
  0
LINE
  5
3F3
  8
0
 10
27.9005283415267513
 20
46.5123508609997316
 30
0.0
 11
14.9005281019876694
 21
46.512350860996321
 31
0.0
  0
ARC
  5
3F4
  8
0
 10
14.9005281019876694
 20
46.8123508609965029
 30
0.0
 40
0.3000000000001819
 50
180.0
 51
269.9999999999132001
  0
LINE
  5
3F5
  8
0
 10
42.900528101985401
 20
59.8123508610019599
 30
0.0
 11
61.6362744180701227
 21
59.8123508610040133
 31
0.0
  0
ARC
  5
3F6
  8
0
 10
61.6362744180701227
 20
59.5123508610026803
 30
0.0
 40
0.3000000000011441
 50
20.0000000000025189
 51
89.9999999999999858
  0
LINE
  5
3F7
  8
0
 10
61.9181822043069587
 20
59.6149569040007918
 30
0.0
 11
63.5196512350798912
 21
55.2149569039981998
 31
0.0
  0
ARC
  5
3F8
  8
0
 10
63.2377434488435028
 20
55.1123508610009978
 30
0.0
 40
0.3000000000004093
 50
270.0000000000869136
 51
19.9999999998690683
  0
LINE
  5
3F9
  8
0
 10
63.2377434488439505
 20
54.8123508610006027
 30
0.0
 11
59.6005281841867074
 21
54.8123508609985493
 31
0.0
  0
ARC
  5
3FA
  8
0
 10
59.6005281841880787
 20
52.3123512345352921
 30
0.0
 40
2.49999962646325
 50
90.0000000000312639
 51
173.8493670339634036
  0
ARC
  5
3FB
  8
0
 10
56.8166463392421974
 20
52.612350860999193
 30
0.0
 40
0.3000000000001819
 50
270.0
 51
353.849367033919691
  0
LINE
  5
3FC
  8
0
 10
56.8166463392421974
 20
52.3123508609989969
 30
0.0
 11
45.4292790274375804
 21
52.3123508609999135
 31
0.0
  0
ARC
  5
3FD
  8
0
 10
45.429279027438497
 20
47.3123508609953731
 30
0.0
 40
5.0000000000045466
 50
90.0000000000104023
 51
118.4976565929426044
  0
ARC
  5
3FE
  8
0
 10
42.9005281019867581
 20
51.9701849886396303
 30
0.0
 40
0.3000000000001819
 50
180.0
 51
298.4976565928274113
  0
LINE
  5
3FF
  8
0
 10
42.6005281019865834
 20
51.9701849886394029
 30
0.0
 11
42.6005281019861286
 21
59.5123508610026803
 31
0.0
  0
ARC
  5
400
  8
0
 10
42.9005281019858487
 20
59.5123508610024601
 30
0.0
 40
0.2999999999994998
 50
90.0000000000868567
 51
179.9999999999564864
  0
ARC
  5
401
  8
0
 10
62.5465442177410296
 20
60.8123508610012777
 30
0.0
 40
1.499999999999581
 50
19.99999999996772
 51
90.0000000000173657
  0
LINE
  5
402
  8
0
 10
62.5465442177405677
 20
62.3123508610006027
 30
0.0
 11
6.1005281019870381
 21
62.3123508609985493
 31
0.0
  0
ARC
  5
403
  8
0
 10
6.1005281019870381
 20
61.8123508609987766
 30
0.0
 40
0.4999999999997727
 50
90.0
 51
180.0000000000260059
  0
LINE
  5
404
  8
0
 10
5.6005281019870381
 20
61.8123508609985493
 30
0.0
 11
5.6005281019870381
 21
60.665904621089112
 31
0.0
  0
LINE
  5
405
  8
0
 10
5.6005281019870381
 20
60.665904621089112
 30
0.0
 11
5.6005281019870381
 21
59.5194583811796818
 31
0.0
  0
ARC
  5
406
  8
0
 10
6.1005298860836774
 20
59.5194583811803497
 30
0.0
 40
0.5000017840966394
 50
180.0
 51
224.9999594854608063
  0
LINE
  5
407
  8
0
 10
5.7469749839415272
 20
59.1659039790424686
 30
0.0
 11
6.454079866473875
 21
58.4587980965081897
 31
0.0
  0
ARC
  5
408
  8
0
 10
6.8076344150599652
 20
58.8123521450897897
 30
0.0
 40
0.5000012840922226
 50
224.9999594855244993
 51
270.000000000208388
  0
LINE
  5
409
  8
0
 10
6.8076344150617842
 20
58.3123508609976398
 30
0.0
 11
7.5005283261098148
 21
58.3123508609992314
 31
0.0
  0
ARC
  5
40A
  8
0
 10
7.5005283261089062
 20
58.6123506368764993
 30
0.0
 40
0.2999997758772679
 50
270.0000000001737135
 51
359.9999999999130864
  0
LINE
  5
40B
  8
0
 10
7.8005281019859458
 20
58.6123506368760516
 30
0.0
 11
7.8005281019868562
 21
59.5123510851212814
 31
0.0
  0
ARC
  5
40C
  8
0
 10
8.1005278778648062
 20
59.5123510851210469
 30
0.0
 40
0.29999977587795
 50
90.0
 51
179.9999999999566
  0
LINE
  5
40D
  8
0
 10
8.1005278778648062
 20
59.8123508609989969
 30
0.0
 11
11.6005288490609892
 21
59.81235086099786
 31
0.0
  0
ARC
  5
40E
  8
0
 10
11.6005288490609892
 20
58.8123516080727313
 30
0.0
 40
0.9999992529255906
 50
0.0
 51
89.9999999999869686
  0
LINE
  5
40F
  8
0
 10
12.6005281019865798
 20
58.8123516080724968
 30
0.0
 11
12.6005281019870399
 21
49.8123501139234577
 31
0.0
  0
ARC
  5
410
  8
0
 10
11.6005288490619005
 20
49.812350113923678
 30
0.0
 40
0.9999992529251358
 50
270.0000000000259774
 51
359.9999999999740226
  0
LINE
  5
411
  8
0
 10
11.6005288490623499
 20
48.8123508609985493
 30
0.0
 11
8.1005278778629872
 21
48.8123508609987695
 31
0.0
  0
ARC
  5
412
  8
0
 10
8.1005278778625325
 20
49.1123506368760374
 30
0.0
 40
0.2999997758774953
 50
180.0
 51
270.0000000003039986
  0
LINE
  5
413
  8
0
 10
7.8005281019850372
 20
49.1123506368771814
 30
0.0
 11
7.8005281019868562
 21
50.0123510851208266
 31
0.0
  0
ARC
  5
414
  8
0
 10
7.50052832610936
 20
50.012351085121729
 30
0.0
 40
0.2999997758774953
 50
0.0
 51
90.0000000003039702
  0
LINE
  5
415
  8
0
 10
7.5005283261089062
 20
50.3123508609992314
 30
0.0
 11
6.8076356221677079
 21
50.3123508609994587
 31
0.0
  0
ARC
  5
416
  8
0
 10
6.8076356221681626
 20
49.8123490769032671
 30
0.0
 40
0.500001784096412
 50
90.0000000000521254
 51
135.0000564930303142
  0
LINE
  5
417
  8
0
 10
6.454080621427237
 20
50.1659033804419323
 30
0.0
 11
5.9469745317874176
 21
49.6587962907981435
 31
0.0
  0
ARC
  5
418
  8
0
 10
6.3005286789680213
 20
49.3052428408166179
 30
0.0
 40
0.5000005769821044
 50
135.0000564929088114
 51
180.000000000104194
  0
LINE
  5
419
  8
0
 10
5.8005281019859458
 20
49.3052428408157013
 30
0.0
 11
5.8005281019868562
 21
46.3194583811828124
 31
0.0
  0
ARC
  5
41A
  8
0
 10
6.3005298860821313
 20
46.319458381182578
 30
0.0
 40
0.5000017840952751
 50
180.0
 51
224.9999435072828931
  0
LINE
  5
41B
  8
0
 10
5.9469748853439341
 20
45.9659040776427901
 30
0.0
 11
6.4540797678828312
 21
45.4587981951065103
 31
0.0
  0
ARC
  5
41C
  8
0
 10
6.8076344150663308
 20
45.8123521450902373
 30
0.0
 40
0.5000012840925016
 50
224.9999435071158018
 51
270.000000000104194
  0
LINE
  5
41D
  8
0
 10
6.8076344150672412
 20
45.3123508609976398
 30
0.0
 11
7.50052832610936
 21
45.3123508609987766
 31
0.0
  0
ARC
  5
41E
  8
0
 10
7.5005283261084514
 20
45.6123506368769469
 30
0.0
 40
0.2999997758784047
 50
270.0000000001737135
 51
359.9999999999130864
  0
LINE
  5
41F
  8
0
 10
7.8005281019868562
 20
45.6123506368764922
 30
0.0
 11
7.8005281019868562
 21
46.5123510851217432
 31
0.0
  0
ARC
  5
420
  8
0
 10
8.1005278778648062
 20
46.5123510851217432
 30
0.0
 40
0.29999977587795
 50
90.0
 51
180.0
  0
LINE
  5
421
  8
0
 10
8.1005278778648062
 20
46.812350860999679
 30
0.0
 11
12.10052847552606
 21
46.812350860999679
 31
0.0
  0
ARC
  5
422
  8
0
 10
12.1005284755256
 20
46.3123512345380206
 30
0.0
 40
0.4999996264618858
 50
0.0
 51
89.9999999999218403
  0
LINE
  5
423
  8
0
 10
12.6005281019874893
 20
46.3123512345382622
 30
0.0
 11
12.6005281019847608
 21
18.3123504874638385
 31
0.0
  0
ARC
  5
424
  8
0
 10
12.1005284755215108
 20
18.3123504874638385
 30
0.0
 40
0.4999996264632501
 50
270.0
 51
0.0
  0
LINE
  5
425
  8
0
 10
12.1005284755215108
 20
17.8123508610005885
 30
0.0
 11
8.1005278778598022
 21
17.812350860999679
 31
0.0
  0
ARC
  5
426
  8
0
 10
8.1005278778598022
 20
18.112350636877629
 30
0.0
 40
0.29999977587795
 50
180.0
 51
270.000000000217085
  0
LINE
  5
427
  8
0
 10
7.8005281019818531
 20
18.1123506368787694
 30
0.0
 11
7.8005281019850372
 21
19.0123510851235515
 31
0.0
  0
ARC
  5
428
  8
0
 10
7.5005283261089062
 20
19.012351085124461
 30
0.0
 40
0.299999775876131
 50
0.0
 51
90.0000000001736993
  0
LINE
  5
429
  8
0
 10
7.5005283261089062
 20
19.3123508610005885
 30
0.0
 11
6.8076344150663308
 21
19.3123508609999099
 31
0.0
  0
ARC
  5
42A
  8
0
 10
6.8076344150663308
 20
18.812349576905941
 30
0.0
 40
0.5000012840941963
 50
90.0
 51
135.0000564928473068
  0
LINE
  5
42B
  8
0
 10
6.4540797678819208
 20
19.1659035268910394
 30
0.0
 11
5.94697488534075
 21
18.6587976443529406
 31
0.0
  0
ARC
  5
42C
  8
0
 10
6.3005298860766743
 20
18.3052433408158706
 30
0.0
 40
0.5000017840920976
 50
135.0000564927908044
 51
180.000000000104194
  0
LINE
  5
42D
  8
0
 10
5.8005281019845816
 20
18.3052433408149717
 30
0.0
 11
5.8005281019864006
 21
15.3194588811807098
 31
0.0
  0
ARC
  5
42E
  8
0
 10
6.3005286789766606
 20
15.3194588811811592
 30
0.0
 40
0.5000005769902601
 50
180.0
 51
224.9999435073154075
  0
LINE
  5
42F
  8
0
 10
5.946974531791966
 20
14.96590543119237
 30
0.0
 11
6.4540806214331488
 21
14.4587983415549406
 31
0.0
  0
ARC
  5
430
  8
0
 10
6.8076356221704373
 20
14.8123526450944993
 30
0.0
 40
0.5000017840945091
 50
224.9999435073382017
 51
270.0000000001563194
  0
LINE
  5
431
  8
0
 10
6.8076356221718006
 20
14.3123508610001409
 30
0.0
 11
7.50052832610936
 21
14.3123508610010504
 31
0.0
  0
ARC
  5
432
  8
0
 10
7.5005283261089062
 20
14.61235063687786
 30
0.0
 40
0.2999997758768131
 50
270.0000000000867999
 51
0.0
  0
LINE
  5
433
  8
0
 10
7.8005281019859458
 20
14.61235063687786
 30
0.0
 11
7.8005281019868562
 21
15.5123510851231003
 31
0.0
  0
ARC
  5
434
  8
0
 10
8.1005278778648062
 20
15.5123510851228694
 30
0.0
 40
0.29999977587795
 50
90.0
 51
179.9999999999566
  0
LINE
  5
435
  8
0
 10
8.1005278778648062
 20
15.8123508610008194
 30
0.0
 11
11.6005288490609892
 21
15.8123508609999099
 31
0.0
  0
ARC
  5
436
  8
0
 10
11.6005288490609892
 20
14.8123516080745503
 30
0.0
 40
0.9999992529255906
 50
0.0
 51
89.9999999999869686
  0
LINE
  5
437
  8
0
 10
12.6005281019865798
 20
14.8123516080743194
 30
0.0
 11
12.6005281019870399
 21
5.8123501139252758
 31
0.0
  0
ARC
  5
438
  8
0
 10
11.6005288490619005
 20
5.8123501139257314
 30
0.0
 40
0.9999992529251358
 50
270.0000000000259774
 51
359.9999999999740226
  0
LINE
  5
439
  8
0
 10
11.6005288490623499
 20
4.8123508610005947
 30
0.0
 11
8.1005278778598022
 21
4.8123508610005947
 31
0.0
  0
ARC
  5
43A
  8
0
 10
8.1005278778598022
 20
5.1123506368785447
 30
0.0
 40
0.29999977587795
 50
180.0
 51
270.000000000217085
  0
LINE
  5
43B
  8
0
 10
7.8005281019818531
 20
5.1123506368796816
 30
0.0
 11
7.8005281019850372
 21
6.0123510851242372
 31
0.0
  0
ARC
  5
43C
  8
0
 10
7.5005283261084514
 20
6.0123510851249193
 30
0.0
 40
0.2999997758765858
 50
0.0
 51
89.9999999999565574
  0
LINE
  5
43D
  8
0
 10
7.5005283261089062
 20
6.3123508610015051
 30
0.0
 11
6.8076344150640571
 21
6.312350861001959
 31
0.0
  0
ARC
  5
43E
  8
0
 10
6.8076344150640571
 20
5.8123495769073079
 30
0.0
 40
0.5000012840946511
 50
90.0
 51
135.0000405142727971
  0
LINE
  5
43F
  8
0
 10
6.4540798664779677
 20
6.1659036254916373
 30
0.0
 11
5.7469749839410724
 21
5.4587977429548573
 31
0.0
  0
ARC
  5
440
  8
0
 10
6.100529886082767
 20
5.1052433408165143
 30
0.0
 40
0.5000017840966421
 50
135.0000405143613023
 51
179.9999999999739089
  0
LINE
  5
441
  8
0
 10
5.6005281019861277
 20
5.1052433408167408
 30
0.0
 11
5.6005281019870381
 21
2.8123508610005952
 31
0.0
  0
ARC
  5
442
  8
0
 10
6.1005281019870381
 20
2.8123508610005952
 30
0.0
 40
0.5
 50
180.0
 51
270.0
  0
LINE
  5
443
  8
0
 10
6.1005281019870381
 20
2.3123508610005952
 30
0.0
 11
47.1005281019856668
 21
2.3123508610008221
 31
0.0
  0
ARC
  5
444
  8
0
 10
47.1005281019856668
 20
2.8123508610010499
 30
0.0
 40
0.5000000000002274
 50
270.0
 51
359.9999999999740226
  0
LINE
  5
445
  8
0
 10
47.6005281019861286
 20
2.8123508610008221
 30
0.0
 11
47.6005281019847573
 21
5.8123512408078559
 31
0.0
  0
ARC
  5
446
  8
0
 10
47.1005283301992606
 20
5.8123512408076294
 30
0.0
 40
0.4999997717854967
 50
0.0
 51
99.999998960096363
  0
LINE
  5
447
  8
0
 10
47.0137042899318587
 20
6.3047548941422056
 30
0.0
 11
45.3484342954989188
 21
6.0111228951236617
 31
0.0
  0
ARC
  5
448
  8
0
 10
45.4005288782300269
 20
5.7156798038215584
 30
0.0
 40
0.3000007762460861
 50
99.9999989600941319
 51
180.0000000001301999
  0
LINE
  5
449
  8
0
 10
45.1005281019843025
 20
5.7156798038208763
 30
0.0
 11
45.1005281019852191
 21
5.1123506368790004
 31
0.0
  0
ARC
  5
44A
  8
0
 10
44.8005283261081786
 20
5.1123506368783183
 30
0.0
 40
0.2999997758772679
 50
269.9999999999130864
 51
0.0000000001302958
  0
LINE
  5
44B
  8
0
 10
44.8005283261077167
 20
4.8123508610010504
 30
0.0
 11
41.1005273549099002
 21
4.81235086100014
 31
0.0
  0
ARC
  5
44C
  8
0
 10
41.1005273549099002
 20
5.8123501139252758
 30
0.0
 40
0.9999992529251358
 50
180.0
 51
270.0000000000521254
  0
LINE
  5
44D
  8
0
 10
40.1005281019847573
 20
5.8123501139257314
 30
0.0
 11
40.1005281019856668
 21
8.2623511862484502
 31
0.0
  0
ARC
  5
44E
  8
0
 10
40.1005281019856668
 20
8.5623511862484065
 30
0.0
 40
0.2999999999999545
 50
90.0
 51
270.0
  0
LINE
  5
44F
  8
0
 10
40.1005281019856668
 20
8.862351186248361
 30
0.0
 11
40.1005281019852191
 21
12.1123512345386608
 31
0.0
  0
ARC
  5
450
  8
0
 10
40.6005277284470978
 20
12.1123512345395703
 30
0.0
 40
0.4999996264616584
 50
89.9999999998957776
 51
180.000000000104194
  0
LINE
  5
451
  8
0
 10
40.6005277284480073
 20
12.6123508610012305
 30
0.0
 11
41.8762638312987292
 21
12.6123508609996406
 31
0.0
  0
ARC
  5
452
  8
0
 10
41.8762638312987292
 20
12.3123503733870603
 30
0.0
 40
0.3000004876126111
 50
44.999999999846473
 51
90.0
  0
LINE
  5
453
  8
0
 10
42.0883962104494387
 20
12.52448275253664
 30
0.0
 11
42.512659993521531
 21
12.1002189694620501
 31
0.0
  0
ARC
  5
454
  8
0
 10
42.3005276143703597
 20
11.8880865903120103
 30
0.0
 40
0.3000004876134881
 50
0.0
 51
44.9999999998337472
  0
LINE
  5
455
  8
0
 10
42.6005281019838478
 20
11.8880865903122395
 30
0.0
 11
42.6005281019843025
 21
11.11235063687786
 31
0.0
  0
ARC
  5
456
  8
0
 10
42.9005278778613501
 20
11.11235063687832
 30
0.0
 40
0.2999997758774953
 50
180.0
 51
269.9999999999132001
  0
LINE
  5
457
  8
0
 10
42.9005278778613501
 20
10.8123508610008194
 30
0.0
 11
44.5279867097360622
 21
10.81235086100037
 31
0.0
  0
ARC
  5
458
  8
0
 10
44.527986709732879
 20
11.3123523334147595
 30
0.0
 40
0.5000014724143967
 50
270.0000000003647074
 51
285.000001155710379
  0
LINE
  5
459
  8
0
 10
44.6573966231148916
 20
10.8293880006374295
 30
0.0
 11
46.7299375450634216
 21
11.3847237117747699
 31
0.0
  0
ARC
  5
45A
  8
0
 10
46.6005279816126787
 20
11.8676867385793194
 30
0.0
 40
0.5000001203727127
 50
285.000001156054509
 51
359.9999999999740226
  0
LINE
  5
45B
  8
0
 10
47.100528101985212
 20
11.8676867385790903
 30
0.0
 11
47.1005281019838478
 21
13.3123512345400705
 31
0.0
  0
ARC
  5
45C
  8
0
 10
46.600528475521962
 20
13.3123512345407597
 30
0.0
 40
0.4999996264618858
 50
0.0
 51
90.0000000001302709
  0
LINE
  5
45D
  8
0
 10
46.600528475521962
 20
13.8123508610026402
 30
0.0
 11
46.4005285617768095
 21
13.8123508610021801
 31
0.0
  0
ARC
  5
45E
  8
0
 10
46.4005285617768095
 20
13.5123510472765194
 30
0.0
 40
0.2999998137256625
 50
90.0
 51
179.5724183246938139
  0
ARC
  5
45F
  8
0
 10
45.8005454525655296
 20
13.5168286291798196
 30
0.0
 40
0.3000000030066468
 50
285.0000135194572977
 51
359.5724183248850068
  0
LINE
  5
460
  8
0
 10
45.8781912352501422
 20
13.2270508967101197
 30
0.0
 11
44.844725392125838
 21
12.9501342972753193
 31
0.0
  0
ARC
  5
461
  8
0
 10
44.715315685583839
 20
13.4330974412437101
 30
0.0
 40
0.5000002705789161
 50
225.0
 51
285.0000135194806035
  0
LINE
  5
462
  8
0
 10
44.3617621036623788
 20
13.0795438593222606
 30
0.0
 11
43.6883962104461574
 21
13.7529097525384696
 31
0.0
  0
ARC
  5
463
  8
0
 10
43.9005285895959787
 20
13.9650421316885005
 30
0.0
 40
0.3000004876121238
 50
180.0
 51
225.0000000000434
  0
LINE
  5
464
  8
0
 10
43.6005281019838478
 20
13.9650421316887297
 30
0.0
 11
43.6005281019865834
 21
32.3123508610030967
 31
0.0
  0
LINE
  5
465
  8
0
 10
43.6005281019865834
 20
32.3123508610030967
 30
0.0
 11
42.4385270273082824
 21
47.0769735602004786
 31
0.0
  0
ARC
  5
466
  8
0
 10
45.4292790274371328
 20
47.3123508609987766
 30
0.0
 40
3.000000000001136
 50
89.999999999991303
 51
184.5000002608252032
  0
LINE
  5
467
  8
0
 10
45.4292790274375804
 20
50.3123508609999135
 30
0.0
 11
56.3005285577251016
 21
50.3123508609990111
 31
0.0
  0
ARC
  5
468
  8
0
 10
56.3005285577246468
 20
49.8123508609992314
 30
0.0
 40
0.5
 50
0.0
 51
89.9999999998697291
  0
LINE
  5
469
  8
0
 10
56.8005285577246468
 20
49.8123508610003682
 30
0.0
 11
56.80052855772783
 21
48.8123504874611172
 31
0.0
  0
ARC
  5
46A
  8
0
 10
57.3005281841901706
 20
48.8123504874624814
 30
0.0
 40
0.4999996264623406
 50
180.0
 51
269.9999999998175895
  0
LINE
  5
46B
  8
0
 10
57.3005281841897229
 20
48.3123508610001409
 30
0.0
 11
59.6434222446464375
 21
48.3123508609985493
 31
0.0
  0
ARC
  5
46C
  8
0
 10
59.6434222446459898
 20
48.8123521450950122
 30
0.0
 40
0.5000012840964702
 50
270.0000000000521254
 51
315.0000626721724757
  0
LINE
  5
46D
  8
0
 10
59.9969769299627771
 20
48.4587982332389018
 30
0.0
 11
60.454081812501947
 21
48.915904115775902
 31
0.0
  0
ARC
  5
46E
  8
0
 10
60.1005267736318274
 20
49.2694583811842222
 30
0.0
 40
0.5000017840956908
 50
315.0000626722019774
 51
0.0000000005211032
  0
LINE
  5
46F
  8
0
 10
60.6005285577275572
 20
49.2694583811887696
 30
0.0
 11
60.6005285577252906
 21
49.5123510851240098
 31
0.0
  0
ARC
  5
470
  8
0
 10
60.3005287818473334
 20
49.5123510851212814
 30
0.0
 40
0.29999977587795
 50
0.0
 51
89.9999999995223305
  0
LINE
  5
471
  8
0
 10
60.3005287818468787
 20
49.8123508609992314
 30
0.0
 11
59.6005281841880787
 21
49.8123508609994587
 31
0.0
  0
ARC
  5
472
  8
0
 10
59.6005281841880787
 20
50.3123504874627088
 30
0.0
 40
0.4999996264632501
 50
180.0
 51
270.0
  0
LINE
  5
473
  8
0
 10
59.1005285577248287
 20
50.3123504874627088
 30
0.0
 11
59.1005285577248287
 21
52.3123512345352921
 31
0.0
  0
ARC
  5
474
  8
0
 10
59.6005281841880787
 20
52.3123512345352921
 30
0.0
 40
0.4999996264632501
 50
90.0
 51
180.0
  0
LINE
  5
475
  8
0
 10
59.6005281841880787
 20
52.8123508609985421
 30
0.0
 11
64.1504423275373483
 21
52.8123508610003682
 31
0.0
  0
ARC
  5
476
  8
0
 10
64.1504423275373483
 20
52.3123508610010504
 30
0.0
 40
0.4999999999997181
 50
19.9999999999736495
 51
89.9999999999999858
  0
LINE
  5
477
  8
0
 10
64.6202886379301162
 20
52.4833609326635724
 30
0.0
 11
65.2005281019860234
 21
50.8891661072964325
 31
0.0
  0
LINE
  5
478
  8
0
 10
65.2005281019860234
 20
50.8891661072964325
 30
0.0
 11
65.2005281019864924
 21
50.1123508609994133
 31
0.0
  0
ARC
  5
479
  8
0
 10
64.9005281019876747
 20
50.1123508609984967
 30
0.0
 40
0.2999999999988176
 50
270.0
 51
0.0000000001302958
  0
LINE
  5
47A
  8
0
 10
64.9005281019876747
 20
49.812350860999679
 30
0.0
 11
63.4005288457351526
 21
49.8123508609983219
 31
0.0
  0
ARC
  5
47B
  8
0
 10
63.4005288457356073
 20
49.5123505729893623
 30
0.0
 40
0.3000002880089596
 50
90.0000000000868567
 51
179.9999999996526014
  0
LINE
  5
47C
  8
0
 10
63.1005285577266406
 20
49.5123505729911813
 30
0.0
 11
63.1005285577252906
 21
49.2694583811860412
 31
0.0
  0
ARC
  5
47D
  8
0
 10
63.6005303418200967
 20
49.2694583811837674
 30
0.0
 40
0.5000017840948204
 50
180.0
 51
224.9999373278189978
  0
LINE
  5
47E
  8
0
 10
63.2469753029490676
 20
48.9159041157774865
 30
0.0
 11
63.7040801854864185
 21
48.4587982332404792
 31
0.0
  0
ARC
  5
47F
  8
0
 10
64.0576348708045771
 20
48.8123521450952467
 30
0.0
 40
0.5000012840962553
 50
224.9999373276432095
 51
269.9999999999478746
  0
LINE
  5
480
  8
0
 10
64.0576348708041223
 20
48.3123508609989969
 30
0.0
 11
67.1005281019843096
 21
48.3123508609989969
 31
0.0
  0
ARC
  5
481
  8
0
 10
67.1005281019843096
 20
48.8123508609987695
 30
0.0
 40
0.4999999999997727
 50
270.0
 51
0.0000000000260592
  0
LINE
  5
482
  8
0
 10
67.6005281019842954
 20
48.8123508609989969
 30
0.0
 11
67.6005281019842954
 21
51.3123508609989969
 31
0.0
  0
LINE
  5
483
  8
0
 10
67.6005281019842954
 20
51.3123508609989969
 30
0.0
 11
63.9560831489202428
 21
61.3253810759888367
 31
0.0
  0
ENDBLK
  5
485
  8
0
  0
ENDSEC
  0
SECTION
  2
ENTITIES
  0
INSERT
  5
280
  8
0
  2
*U3
 10
0.0
 20
0.0
 30
0.0
  0
ENDSEC
  0
EOF
