  0
SECTION
  2
HEADER
  9
$ACADVER
  1
AC1009
  9
$INSBASE
 10
0.0
 20
0.0
 30
0.0
  9
$EXTMIN
 10
8.0098348326204203
 20
3.2646014389596991
 30
0.0
  9
$EXTMAX
 10
88.0098348326174289
 20
63.2646014389603835
 30
0.0
  9
$LIMMIN
 10
0.0
 20
0.0
  9
$LIMMAX
 10
420.0
 20
297.0
  9
$ORTHOMODE
 70
     0
  9
$REGENMODE
 70
     1
  9
$FILLMODE
 70
     1
  9
$QTEXTMODE
 70
     0
  9
$MIRRTEXT
 70
     0
  9
$DRAGMODE
 70
     2
  9
$LTSCALE
 40
1.0
  9
$OSMODE
 70
  4095
  9
$ATTMODE
 70
     1
  9
$TEXTSIZE
 40
2.5
  9
$TRACEWID
 40
1.0
  9
$TEXTSTYLE
  7
STANDARD
  9
$CLAYER
  8
0
  9
$CELTYPE
  6
BYLAYER
  9
$CECOLOR
 62
   256
  9
$DIMSCALE
 40
1.0
  9
$DIMASZ
 40
2.5
  9
$DIMEXO
 40
0.625
  9
$DIMDLI
 40
3.75
  9
$DIMRND
 40
0.0
  9
$DIMDLE
 40
0.0
  9
$DIMEXE
 40
1.25
  9
$DIMTP
 40
0.0
  9
$DIMTM
 40
0.0
  9
$DIMTXT
 40
2.5
  9
$DIMCEN
 40
2.5
  9
$DIMTSZ
 40
0.0
  9
$DIMTOL
 70
     0
  9
$DIMLIM
 70
     0
  9
$DIMTIH
 70
     0
  9
$DIMTOH
 70
     0
  9
$DIMSE1
 70
     0
  9
$DIMSE2
 70
     0
  9
$DIMTAD
 70
     1
  9
$DIMZIN
 70
     8
  9
$DIMBLK
  1

  9
$DIMASO
 70
     1
  9
$DIMSHO
 70
     1
  9
$DIMPOST
  1

  9
$DIMAPOST
  1

  9
$DIMALT
 70
     0
  9
$DIMALTD
 70
     3
  9
$DIMALTF
 40
0.03937007874016
  9
$DIMLFAC
 40
1.0
  9
$DIMTOFL
 70
     1
  9
$DIMTVP
 40
0.0
  9
$DIMTIX
 70
     0
  9
$DIMSOXD
 70
     0
  9
$DIMSAH
 70
     0
  9
$DIMBLK1
  1

  9
$DIMBLK2
  1

  9
$DIMSTYLE
  2
ISO-25
  9
$DIMCLRD
 70
     0
  9
$DIMCLRE
 70
     0
  9
$DIMCLRT
 70
     0
  9
$DIMTFAC
 40
1.0
  9
$DIMGAP
 40
0.625
  9
$LUNITS
 70
     2
  9
$LUPREC
 70
     4
  9
$SKETCHINC
 40
1.0
  9
$FILLETRAD
 40
0.0
  9
$AUNITS
 70
     0
  9
$AUPREC
 70
     0
  9
$MENU
  1
.
  9
$ELEVATION
 40
0.0
  9
$PELEVATION
 40
0.0
  9
$THICKNESS
 40
0.0
  9
$LIMCHECK
 70
     0
  9
$BLIPMODE
 70
     0
  9
$CHAMFERA
 40
0.0
  9
$CHAMFERB
 40
0.0
  9
$SKPOLY
 70
     0
  9
$TDCREATE
 40
2460899.4511226848699152
  9
$TDUPDATE
 40
2460899.4516087961383164
  9
$TDINDWG
 40
0.0004976852
  9
$TDUSRTIMER
 40
0.0004976852
  9
$USRTIMER
 70
     1
  9
$ANGBASE
 50
0.0
  9
$ANGDIR
 70
     0
  9
$PDMODE
 70
     0
  9
$PDSIZE
 40
0.0
  9
$PLINEWID
 40
0.0
  9
$COORDS
 70
     0
  9
$SPLFRAME
 70
     0
  9
$SPLINETYPE
 70
     6
  9
$SPLINESEGS
 70
     8
  9
$ATTDIA
 70
     1
  9
$ATTREQ
 70
     1
  9
$HANDLING
 70
     1
  9
$HANDSEED
  5
4B6
  9
$SURFTAB1
 70
     6
  9
$SURFTAB2
 70
     6
  9
$SURFTYPE
 70
     6
  9
$SURFU
 70
     6
  9
$SURFV
 70
     6
  9
$UCSNAME
  2

  9
$UCSORG
 10
0.0
 20
0.0
 30
0.0
  9
$UCSXDIR
 10
1.0
 20
0.0
 30
0.0
  9
$UCSYDIR
 10
0.0
 20
1.0
 30
0.0
  9
$PUCSNAME
  2

  9
$PUCSORG
 10
0.0
 20
0.0
 30
0.0
  9
$PUCSXDIR
 10
1.0
 20
0.0
 30
0.0
  9
$PUCSYDIR
 10
0.0
 20
1.0
 30
0.0
  9
$USERI1
 70
     0
  9
$USERI2
 70
     0
  9
$USERI3
 70
     0
  9
$USERI4
 70
     0
  9
$USERI5
 70
     0
  9
$USERR1
 40
0.0
  9
$USERR2
 40
0.0
  9
$USERR3
 40
0.0
  9
$USERR4
 40
0.0
  9
$USERR5
 40
0.0
  9
$WORLDVIEW
 70
     1
  9
$SHADEDGE
 70
     3
  9
$SHADEDIF
 70
    70
  9
$TILEMODE
 70
     1
  9
$MAXACTVP
 70
    64
  9
$PLIMCHECK
 70
     0
  9
$PEXTMIN
 10
0.0
 20
0.0
 30
0.0
  9
$PEXTMAX
 10
0.0
 20
0.0
 30
0.0
  9
$PLIMMIN
 10
0.0
 20
0.0
  9
$PLIMMAX
 10
12.0
 20
9.0
  9
$UNITMODE
 70
     0
  9
$VISRETAIN
 70
     1
  9
$PLINEGEN
 70
     0
  9
$PSLTSCALE
 70
     1
  0
ENDSEC
  0
SECTION
  2
TABLES
  0
TABLE
  2
VPORT
 70
     1
  0
VPORT
  2
*ACTIVE
 70
     0
 10
0.0
 20
0.0
 11
1.0
 21
1.0
 12
82.810934165200706
 22
26.4499491616404114
 13
0.0
 23
0.0
 14
10.0
 24
10.0
 15
10.0
 25
10.0
 16
0.0
 26
0.0
 36
1.0
 17
0.0
 27
0.0
 37
0.0
 40
101.2315441403145968
 41
2.6535433070866139
 42
50.0
 43
0.0
 44
0.0
 50
0.0
 51
0.0
 71
     0
 72
  1000
 73
     1
 74
     3
 75
     0
 76
     1
 77
     0
 78
     0
  0
ENDTAB
  0
TABLE
  2
LTYPE
 70
     1
  0
LTYPE
  2
CONTINUOUS
 70
     0
  3
Solid line
 72
    65
 73
     0
 40
0.0
  0
ENDTAB
  0
TABLE
  2
LAYER
 70
     2
  0
LAYER
  2
0
 70
     0
 62
     7
  6
CONTINUOUS
  0
LAYER
  2
PERFIL
 70
     0
 62
     7
  6
CONTINUOUS
  0
ENDTAB
  0
TABLE
  2
STYLE
 70
     6
  0
STYLE
  2
STANDARD
 70
     0
 40
0.0
 41
1.0
 50
0.0
 71
     0
 42
2.5
  3
txt
  4

  0
STYLE
  2
ANNOTATIVE
 70
     0
 40
0.0
 41
1.0
 50
0.0
 71
     0
 42
2.5
  3
txt
  4

  0
STYLE
  2
ROMANS
 70
     0
 40
0.0
 41
1.0
 50
0.0
 71
     0
 42
5.0
  3
romans
  4

  0
STYLE
  2
ESTILO1
 70
     0
 40
8.0
 41
1.0
 50
0.0
 71
     0
 42
8.0
  3
txt
  4

  0
STYLE
  2
TECHNOPLAST
 70
     0
 40
0.0
 41
1.0
 50
0.0
 71
     0
 42
0.2
  3
txt
  4

  0
STYLE
  2
STYLE-LUCIDA_SANS_UNICODE
 70
     0
 40
0.0
 41
1.0
 50
0.0
 71
     0
 42
0.2
  3
txt
  4

  0
ENDTAB
  0
TABLE
  2
VIEW
 70
     0
  0
ENDTAB
  0
TABLE
  2
UCS
 70
     0
  0
ENDTAB
  0
TABLE
  2
APPID
 70
    10
  0
APPID
  2
ACAD
 70
     0
  0
APPID
  2
ACAD_PSEXT
 70
     0
  0
APPID
  2
ACADANNOPO
 70
     0
  0
APPID
  2
ACADANNOTATIVE
 70
     0
  0
APPID
  2
ACAD_DSTYLE_DIMJAG
 70
     0
  0
APPID
  2
ACAD_DSTYLE_DIMTALN
 70
     0
  0
APPID
  2
ACAD_MLEADERVER
 70
     0
  0
APPID
  2
ACAD_NAV_VCDISPLAY
 70
     0
  0
APPID
  2
ACAD_DSTYLE_DIMJOGGED_JOGA
 70
     0
  0
APPID
  2
ACAD_DSTYLE_DIMBREAK
 70
     0
  0
ENDTAB
  0
TABLE
  2
DIMSTYLE
 70
     8
  0
DIMSTYLE
  2
STANDARD
 70
     0
  3

  4

  5

  6

  7

 40
1.0
 41
0.18
 42
0.0625
 43
0.38
 44
0.18
 45
0.0
 46
0.0
 47
0.0
 48
0.0
140
0.18
141
0.09
142
0.0
143
25.3999999999999986
144
1.0
145
0.0
146
1.0
147
0.09
 71
     0
 72
     0
 73
     1
 74
     1
 75
     0
 76
     0
 77
     0
 78
     0
170
     0
171
     2
172
     0
173
     0
174
     0
175
     0
176
     0
177
     0
178
     0
  0
DIMSTYLE
  2
ANNOTATIVE
 70
     0
  3

  4

  5

  6

  7

 40
0.0
 41
2.5
 42
0.625
 43
3.75
 44
1.25
 45
0.0
 46
0.0
 47
0.0
 48
0.0
140
2.5
141
2.5
142
0.0
143
0.03937007874016
144
1.0
145
0.0
146
1.0
147
0.625
 71
     0
 72
     0
 73
     0
 74
     0
 75
     0
 76
     0
 77
     1
 78
     8
170
     0
171
     3
172
     1
173
     0
174
     0
175
     0
176
     0
177
     0
178
     0
  0
DIMSTYLE
  2
ISO-25
 70
     0
  3

  4

  5

  6

  7

 40
1.0
 41
2.5
 42
0.625
 43
3.75
 44
1.25
 45
0.0
 46
0.0
 47
0.0
 48
0.0
140
2.5
141
2.5
142
0.0
143
0.03937007874016
144
1.0
145
0.0
146
1.0
147
0.625
 71
     0
 72
     0
 73
     0
 74
     0
 75
     0
 76
     0
 77
     1
 78
     8
170
     0
171
     3
172
     1
173
     0
174
     0
175
     0
176
     0
177
     0
178
     0
  0
DIMSTYLE
  2
1A1
 70
     0
  3

  4

  5

  6

  7

 40
0.0
 41
3.0
 42
0.8
 43
8.0
 44
1.3
 45
0.000001
 46
0.0
 47
0.0
 48
0.0
140
2.7000000000000002
141
1.8
142
0.0
143
25.3999999999999986
144
1.0
145
0.7
146
1.0
147
0.8
 71
     0
 72
     0
 73
     0
 74
     0
 75
     0
 76
     0
 77
     1
 78
     9
170
     0
171
     2
172
     1
173
     0
174
     1
175
     0
176
     0
177
     0
178
     0
  0
DIMSTYLE
  2
TECHNOPLAST
 70
     0
  3

  4

  5

  6

  7

 40
1.0
 41
0.18
 42
0.0625
 43
0.38
 44
0.18
 45
0.0
 46
0.0
 47
0.0
 48
0.0
140
0.18
141
0.09
142
0.0
143
25.3999999999999986
144
1.0
145
0.0
146
1.0
147
0.09
 71
     0
 72
     0
 73
     0
 74
     0
 75
     0
 76
     0
 77
     1
 78
     0
170
     0
171
     2
172
     1
173
     0
174
     0
175
     0
176
     0
177
     0
178
     0
  0
DIMSTYLE
  2
STANDARD_2_5_MM_DPI
 70
     0
  3

  4

  5

  6

  7

 40
1.0
 41
2.5
 42
1.25
 43
0.0
 44
1.25
 45
0.0
 46
0.0
 47
0.000001
 48
0.000001
140
2.5
141
0.09
142
0.0
143
0.0393700787401575
144
1.0
145
0.0
146
1.0
147
1.25
 71
     0
 72
     0
 73
     0
 74
     0
 75
     0
 76
     0
 77
     1
 78
    11
170
     0
171
     4
172
     1
173
     0
174
     0
175
     0
176
     5
177
     5
178
     5
  0
DIMSTYLE
  2
STANDARD_3_MM
 70
     0
  3

  4

  5

  6

  7

 40
1.0
 41
6.0
 42
3.0
 43
12.0
 44
3.0
 45
0.0
 46
0.0
 47
0.000001
 48
0.000001
140
6.0
141
0.09
142
0.0
143
0.0393700787401575
144
1.0
145
0.0
146
1.0
147
3.0
 71
     0
 72
     0
 73
     0
 74
     0
 75
     0
 76
     0
 77
     1
 78
    11
170
     0
171
     4
172
     1
173
     0
174
     0
175
     0
176
     5
177
     5
178
     5
  0
DIMSTYLE
  2
1_A_1_000
 70
     0
  3

  4

  5

  6

  7

 40
0.0
 41
2.5
 42
0.8
 43
8.0
 44
1.3
 45
0.0000000001
 46
0.0
 47
0.0
 48
0.0
140
2.2000000000000002
141
1.8
142
0.0
143
25.3999999999999986
144
1.0
145
0.7
146
1.0
147
0.8
 71
     0
 72
     0
 73
     0
 74
     0
 75
     0
 76
     0
 77
     1
 78
     9
170
     0
171
     2
172
     1
173
     0
174
     1
175
     0
176
     0
177
     0
178
     0
  0
ENDTAB
  0
ENDSEC
  0
SECTION
  2
BLOCKS
  0
BLOCK
  8
0
  2
$MODEL_SPACE
 70
     0
 10
0.0
 20
0.0
 30
0.0
  3
$MODEL_SPACE
  1

  0
ENDBLK
  5
21
  8
0
  0
BLOCK
 67
     1
  8
0
  2
$PAPER_SPACE
 70
     0
 10
0.0
 20
0.0
 30
0.0
  3
$PAPER_SPACE
  1

  0
ENDBLK
  5
D5
 67
     1
  8
0
  0
BLOCK
  8
0
  2
*U2
 70
     1
 10
0.0
 20
0.0
 30
0.0
  3
*U2
  1

  0
LINE
  5
2D5
  8
0
 10
35.3324712586152927
 20
46.509739477281741
 30
0.0
 11
60.6405219628425769
 21
46.5097394772832331
 31
0.0
  0
ARC
  5
2D6
  8
0
 10
60.6405219628426835
 20
46.2097394772832502
 30
0.0
 40
0.2999999999999874
 50
4.5000002608668801
 51
90.0000000000189999
  0
LINE
  5
2D7
  8
0
 10
60.9395971628554278
 20
46.2332772073632867
 30
0.0
 11
61.1487741846274631
 21
43.5754312973365998
 31
0.0
  0
ARC
  5
2D8
  8
0
 10
60.9493907179522765
 20
43.5597394772832374
 30
0.0
 40
0.1999999999999916
 50
269.9999999998457838
 51
4.5000002608669121
  0
LINE
  5
2D9
  8
0
 10
60.9493907179517365
 20
43.3597394772832629
 30
0.0
 11
60.5364966107282214
 21
43.3597394772845419
 31
0.0
  0
ARC
  5
2DA
  8
0
 10
60.5364966107271201
 20
43.0097394772851018
 30
0.0
 40
0.3499999999994396
 50
89.9999999998197069
 51
270.0000000001052172
  0
LINE
  5
2DB
  8
0
 10
60.5364966107277667
 20
42.6597394772856688
 30
0.0
 11
61.0359626004962976
 21
42.6597394772865925
 31
0.0
  0
ARC
  5
2DC
  8
0
 10
61.0359626004967382
 20
42.4597394772865968
 30
0.0
 40
0.1999999999999916
 50
4.5000002608312579
 51
90.0000000001272156
  0
LINE
  5
2DD
  8
0
 10
61.2353460671719318
 20
42.4754312973398314
 30
0.0
 11
61.9864966107297306
 21
32.9311592586972992
 31
0.0
  0
LINE
  5
2DE
  8
0
 10
61.9864966107297306
 20
32.9311592586972992
 30
0.0
 11
61.9864966107297093
 21
28.5097391551715589
 31
0.0
  0
ARC
  5
2DF
  8
0
 10
61.6864966107297192
 20
28.5097391551715589
 30
0.0
 40
0.2999999999999874
 50
269.9999999999457145
 51
359.9999999999997726
  0
LINE
  5
2E0
  8
0
 10
61.6864966107294421
 20
28.2097391551715688
 30
0.0
 11
60.5364966107273901
 21
28.2097391551724783
 31
0.0
  0
ARC
  5
2E1
  8
0
 10
60.5364966107271201
 20
27.8597391551730489
 30
0.0
 40
0.3499999999994396
 50
89.999999999954639
 51
269.9999999998972839
  0
LINE
  5
2E2
  8
0
 10
60.5364966107265019
 20
27.5097391551736088
 30
0.0
 11
61.6864966107303232
 21
27.5097391551715411
 31
0.0
  0
ARC
  5
2E3
  8
0
 10
61.6864966107297192
 20
27.2097391551715617
 30
0.0
 40
0.2999999999999874
 50
359.999999999968793
 51
89.9999999998880043
  0
LINE
  5
2E4
  8
0
 10
61.9864966107297093
 20
27.2097391551713912
 30
0.0
 11
61.9864966107278477
 21
23.8097391551713784
 31
0.0
  0
ARC
  5
2E5
  8
0
 10
61.6864966107278718
 20
23.8097391551715489
 30
0.0
 40
0.2999999999999874
 50
270.0000000000190994
 51
359.9999999999682245
  0
LINE
  5
2E6
  8
0
 10
61.6864966107279571
 20
23.5097391551715589
 30
0.0
 11
60.5364966107269424
 21
23.5097391551709904
 31
0.0
  0
ARC
  5
2E7
  8
0
 10
60.5364966107271201
 20
23.1597391551715504
 30
0.0
 40
0.3499999999994396
 50
90.0000000000284928
 51
269.9999999999715214
  0
LINE
  5
2E8
  8
0
 10
60.5364966107269424
 20
22.8097391551721103
 30
0.0
 11
61.6864966107280566
 21
22.8097391551715383
 31
0.0
  0
ARC
  5
2E9
  8
0
 10
61.6864966107278718
 20
22.5097391551715518
 30
0.0
 40
0.2999999999999874
 50
0.0
 51
89.9999999999620144
  0
LINE
  5
2EA
  8
0
 10
61.9864966107278477
 20
22.5097391551715518
 30
0.0
 11
61.9864966107278477
 21
17.80973947728436
 31
0.0
  0
ARC
  5
2EB
  8
0
 10
61.6864966107278718
 20
17.80973947728436
 30
0.0
 40
0.2999999999999874
 50
269.9999999999973284
 51
0.0
  0
LINE
  5
2EC
  8
0
 10
61.6864966107278505
 20
17.5097394772843806
 30
0.0
 11
34.2864966107282214
 21
17.5097394772858692
 31
0.0
  0
ARC
  5
2ED
  8
0
 10
34.2864966107282427
 20
17.8097394772858486
 30
0.0
 40
0.2999999999999874
 50
180.0
 51
269.9999999999968736
  0
LINE
  5
2EE
  8
0
 10
33.9864966107282598
 20
17.8097394772858486
 30
0.0
 11
33.9864966107282598
 21
22.5097391551715518
 31
0.0
  0
ARC
  5
2EF
  8
0
 10
34.2864966107282427
 20
22.5097391551715518
 30
0.0
 40
0.2999999999999874
 50
90.000000000038014
 51
180.0
  0
LINE
  5
2F0
  8
0
 10
34.2864966107280367
 20
22.8097391551715383
 30
0.0
 11
35.4364966107291508
 21
22.8097391551721103
 31
0.0
  0
ARC
  5
2F1
  8
0
 10
35.4364966107289803
 20
23.1597391551715504
 30
0.0
 40
0.3499999999994396
 50
270.0000000000284786
 51
89.9999999999714646
  0
LINE
  5
2F2
  8
0
 10
35.4364966107291508
 20
23.5097391551709904
 30
0.0
 11
34.2864966107281433
 21
23.5097391551715589
 31
0.0
  0
ARC
  5
2F3
  8
0
 10
34.2864966107282427
 20
23.8097391551715489
 30
0.0
 40
0.2999999999999874
 50
180.0000000000318039
 51
269.9999999999810143
  0
LINE
  5
2F4
  8
0
 10
33.9864966107282598
 20
23.8097391551713784
 30
0.0
 11
33.9864966107263911
 21
27.2097391551713912
 31
0.0
  0
ARC
  5
2F5
  8
0
 10
34.2864966107263811
 20
27.2097391551715617
 30
0.0
 40
0.2999999999999874
 50
90.0000000001119531
 51
180.0000000000310934
  0
LINE
  5
2F6
  8
0
 10
34.2864966107257771
 20
27.5097391551715411
 30
0.0
 11
35.4364966107296127
 21
27.5097391551736088
 31
0.0
  0
ARC
  5
2F7
  8
0
 10
35.4364966107289803
 20
27.8597391551730489
 30
0.0
 40
0.3499999999994396
 50
270.0000000001026024
 51
90.0000000000456453
  0
LINE
  5
2F8
  8
0
 10
35.4364966107287032
 20
28.2097391551724783
 30
0.0
 11
34.2864966107266582
 21
28.2097391551715688
 31
0.0
  0
ARC
  5
2F9
  8
0
 10
34.2864966107263811
 20
28.5097391551715589
 30
0.0
 40
0.2999999999999874
 50
180.0000000000001137
 51
270.0000000000549107
  0
LINE
  5
2FA
  8
0
 10
33.9864966107263911
 20
28.5097391551715589
 30
0.0
 11
33.9864966107263768
 21
32.9311592586972992
 31
0.0
  0
LINE
  5
2FB
  8
0
 10
33.9864966107263768
 20
32.9311592586972992
 30
0.0
 11
34.7376471542852983
 21
42.4754312973398598
 31
0.0
  0
ARC
  5
2FC
  8
0
 10
34.9370306209604777
 20
42.4597394772865968
 30
0.0
 40
0.1999999999999916
 50
89.9999999998727844
 51
175.499999739162206
  0
LINE
  5
2FD
  8
0
 10
34.9370306209609325
 20
42.6597394772865925
 30
0.0
 11
35.4364966107283408
 21
42.6597394772856688
 31
0.0
  0
ARC
  5
2FE
  8
0
 10
35.4364966107289803
 20
43.0097394772851018
 30
0.0
 40
0.3499999999994396
 50
269.9999999998947828
 51
90.0000000001803357
  0
LINE
  5
2FF
  8
0
 10
35.4364966107278789
 20
43.3597394772845419
 30
0.0
 11
35.0236025035043568
 21
43.3597394772832629
 31
0.0
  0
ARC
  5
300
  8
0
 10
35.0236025035038168
 20
43.5597394772832374
 30
0.0
 40
0.1999999999999916
 50
175.4999997390912085
 51
270.0000000001542162
  0
LINE
  5
301
  8
0
 10
34.8242190368286515
 20
43.575431297336749
 30
0.0
 11
35.0333960586025484
 21
46.233277207362022
 31
0.0
  0
ARC
  5
302
  8
0
 10
35.3324712586152927
 20
46.209739477281758
 30
0.0
 40
0.2999999999999874
 50
90.0
 51
175.4999997390906117
  0
ARC
  5
303
  8
0
 10
58.1864966107282413
 20
5.8097394772866009
 30
0.0
 40
0.2999999999999874
 50
270.0
 51
0.0000000000135092
  0
LINE
  5
304
  8
0
 10
58.1864966107282413
 20
5.5097394772866108
 30
0.0
 11
37.7864966107278732
 21
5.5097394772866108
 31
0.0
  0
ARC
  5
305
  8
0
 10
37.7864966107278732
 20
5.8097394772866009
 30
0.0
 40
0.2999999999999874
 50
179.999999999986386
 51
270.0
  0
LINE
  5
306
  8
0
 10
37.4864966107278832
 20
5.8097394772866719
 30
0.0
 11
37.4864966107289916
 21
10.5097394744353299
 31
0.0
  0
ARC
  5
307
  8
0
 10
37.7864966107289817
 20
10.5097394744352606
 30
0.0
 40
0.2999999999999874
 50
90.0
 51
179.999999999986386
  0
LINE
  5
308
  8
0
 10
37.7864966107289817
 20
10.8097394744352506
 30
0.0
 11
58.1864966107271115
 21
10.8097394744352506
 31
0.0
  0
ARC
  5
309
  8
0
 10
58.1864966107271115
 20
10.5097394744352606
 30
0.0
 40
0.2999999999999874
 50
0.0000000000135873
 51
90.0
  0
LINE
  5
30A
  8
0
 10
58.4864966107271087
 20
10.5097394744353299
 30
0.0
 11
58.4864966107282314
 21
5.8097394772866719
 31
0.0
  0
ARC
  5
30B
  8
0
 10
34.2864966107282427
 20
15.6097394772877198
 30
0.0
 40
0.2999999999999874
 50
180.0
 51
269.9999999173880951
  0
LINE
  5
30C
  8
0
 10
33.9864966107282598
 20
15.6097394772877198
 30
0.0
 11
33.9864966107282598
 21
16.5097394773737705
 31
0.0
  0
ARC
  5
30D
  8
0
 10
34.2864966107282427
 20
16.5097394773737705
 30
0.0
 40
0.2999999999999874
 50
89.9999999877167909
 51
180.0
  0
LINE
  5
30E
  8
0
 10
34.2864966107925468
 20
16.8097394773737605
 30
0.0
 11
61.686496610792183
 21
16.8097394714997215
 31
0.0
  0
ARC
  5
30F
  8
0
 10
61.6864966107278718
 20
16.5097394714997314
 30
0.0
 40
0.2999999999999874
 50
0.0
 51
89.9999999877167767
  0
LINE
  5
310
  8
0
 10
61.9864966107278477
 20
16.5097394714997314
 30
0.0
 11
61.9864966107278477
 21
15.6097394772877198
 31
0.0
  0
ARC
  5
311
  8
0
 10
61.6864966107278718
 20
15.6097394772877198
 30
0.0
 40
0.2999999999999874
 50
270.0000000826123028
 51
0.0
  0
LINE
  5
312
  8
0
 10
61.6864966111604218
 20
15.3097394772877298
 30
0.0
 11
60.9865372150716425
 21
15.3097394769502895
 31
0.0
  0
ARC
  5
313
  8
0
 10
60.9864962371889092
 20
12.8097398508236893
 30
0.0
 40
2.4999996264624311
 50
89.9990608559660643
 51
179.9997478984832071
  0
LINE
  5
314
  8
0
 10
58.4864966107506774
 20
12.8097508508258393
 30
0.0
 11
58.4864966107256166
 21
11.8097394741322592
 31
0.0
  0
ARC
  5
315
  8
0
 10
58.1864966107256265
 20
11.8097394744352595
 30
0.0
 40
0.2999999999999874
 50
270.0
 51
359.9999999421311827
  0
LINE
  5
316
  8
0
 10
58.1864966107256265
 20
11.5097394744352801
 30
0.0
 11
37.7864966107323426
 21
11.5097394744352801
 31
0.0
  0
ARC
  5
317
  8
0
 10
37.7864966107323426
 20
11.8097394744352595
 30
0.0
 40
0.2999999999999874
 50
180.0000000579121888
 51
270.0
  0
LINE
  5
318
  8
0
 10
37.4864966107323525
 20
11.8097394741320301
 30
0.0
 11
37.48649661070543
 21
12.8097508508305005
 31
0.0
  0
ARC
  5
319
  8
0
 10
34.9864969842671911
 20
12.8097398508236893
 30
0.0
 40
2.4999996264624311
 50
0.000252101623546
 51
90.0009391440339073
  0
LINE
  5
31A
  8
0
 10
34.9864560063844579
 20
15.3097394769502895
 30
0.0
 11
34.2864966102956785
 21
15.3097394772877298
 31
0.0
  0
ARC
  5
31B
  8
0
 10
63.2864966107267435
 20
60.2097394772884726
 30
0.0
 40
0.2999999999992598
 50
90.0000000000054285
 51
180.0000000000027001
  0
LINE
  5
31C
  8
0
 10
63.286496610726708
 20
60.5097394772877308
 30
0.0
 11
82.0222429268113444
 21
60.5097394772895498
 31
0.0
  0
ARC
  5
31D
  8
0
 10
82.0222429268113871
 20
60.2097394772884726
 30
0.0
 40
0.3000000000010788
 50
20.000000000014019
 51
90.0000000000054143
  0
LINE
  5
31E
  8
0
 10
82.3041507130481591
 20
60.3123455202865983
 30
0.0
 11
83.9056197438222569
 21
55.9123455202821305
 31
0.0
  0
ARC
  5
31F
  8
0
 10
83.6237119575865364
 20
55.8097394772843671
 30
0.0
 40
0.2999999999999874
 50
270.0000000000352998
 51
20.00000000001328
  0
LINE
  5
320
  8
0
 10
83.6237119575867069
 20
55.50973947728437
 30
0.0
 11
79.9864966929298618
 21
55.5097394772823733
 31
0.0
  0
ARC
  5
321
  8
0
 10
79.9864966929312402
 20
53.0097398508192228
 30
0.0
 40
2.4999996264631439
 50
90.000000000031676
 51
173.849367033967809
  0
ARC
  5
322
  8
0
 10
77.2026148479833836
 20
53.3097394772828821
 30
0.0
 40
0.2999999999999874
 50
269.9999999999944862
 51
353.84936703396761
  0
LINE
  5
323
  8
0
 10
77.2026148479833552
 20
53.009739477282892
 30
0.0
 11
65.8152475361798253
 21
53.0097394772839365
 31
0.0
  0
ARC
  5
324
  8
0
 10
65.8152475361793847
 20
48.0097394772832473
 30
0.0
 40
5.0000000000006981
 50
89.9999999999947136
 51
118.4976565929614054
  0
ARC
  5
325
  8
0
 10
63.2864966107278732
 20
52.6675736049235965
 30
0.0
 40
0.2999999999999874
 50
180.0000000000034106
 51
298.4976565929616754
  0
LINE
  5
326
  8
0
 10
62.986496610727869
 20
52.6675736049235894
 30
0.0
 11
62.9864966107274782
 21
60.2097394772884513
 31
0.0
  0
ARC
  5
327
  8
0
 10
34.2864966107263811
 20
51.3329030000702673
 30
0.0
 40
0.2999999999999874
 50
179.9999999999945999
 51
218.830014675707389
  0
LINE
  5
328
  8
0
 10
33.9864966107263911
 20
51.3329030000703028
 30
0.0
 11
33.9864966107271584
 21
60.2097394772858934
 31
0.0
  0
ARC
  5
329
  8
0
 10
34.2864966107282427
 20
60.2097394772858578
 30
0.0
 40
0.3000000000010788
 50
89.9999999999932356
 51
179.9999999999944862
  0
LINE
  5
32A
  8
0
 10
34.2864966107282712
 20
60.5097394772869421
 30
0.0
 11
61.6864966107297619
 21
60.509739477283631
 31
0.0
  0
ARC
  5
32B
  8
0
 10
61.6864966107297192
 20
60.2097394772843728
 30
0.0
 40
0.2999999999992598
 50
0.0000000000054451
 51
89.9999999999932072
  0
LINE
  5
32C
  8
0
 10
61.9864966107289916
 20
60.2097394772844012
 30
0.0
 11
61.9864966107297093
 21
51.3329030000702886
 31
0.0
  0
ARC
  5
32D
  8
0
 10
61.6864966107297192
 20
51.3329030000702673
 30
0.0
 40
0.2999999999999874
 50
321.1699853243003986
 51
0.0000000000040767
  0
ARC
  5
32E
  8
0
 10
65.8152475361793847
 20
48.0097394772832473
 30
0.0
 40
5.0000000000006981
 50
141.1699853243001996
 51
185.4133122736400026
  0
ARC
  5
32F
  8
0
 10
60.5388851525298932
 20
47.5097394772817623
 30
0.0
 40
0.2999999999999874
 50
269.999999999989825
 51
5.413312273639316
  0
LINE
  5
330
  8
0
 10
60.5388851525298293
 20
47.2097394772817722
 30
0.0
 11
35.4341080689261574
 21
47.2097394772862486
 31
0.0
  0
ARC
  5
331
  8
0
 10
35.4341080689262213
 20
47.5097394772862316
 30
0.0
 40
0.2999999999999874
 50
174.586687726406808
 51
269.999999999989825
  0
ARC
  5
332
  8
0
 10
30.1577456852778383
 20
48.0097394772832473
 30
0.0
 40
5.0000000000006981
 50
354.5866877264069217
 51
38.8300146757073179
  0
ARC
  5
333
  8
0
 10
12.3492812638710792
 20
55.8097394772843671
 30
0.0
 40
0.2999999999999874
 50
160.0000000000098908
 51
269.9999999840900955
  0
LINE
  5
334
  8
0
 10
12.0673734776353108
 20
55.9123455202820097
 30
0.0
 11
13.6688425084074208
 21
60.3123455202866694
 31
0.0
  0
ARC
  5
335
  8
0
 10
13.9507502946447097
 20
60.2097394772884726
 30
0.0
 40
0.3000000000015981
 50
89.9999999999932356
 51
160.0000000000088107
  0
LINE
  5
336
  8
0
 10
13.9507502946447506
 20
60.5097394772900685
 30
0.0
 11
32.6864966107293924
 21
60.5097394772877308
 31
0.0
  0
ARC
  5
337
  8
0
 10
32.6864966107293569
 20
60.2097394772884726
 30
0.0
 40
0.2999999999992598
 50
359.9999999999973284
 51
89.9999999999928946
  0
LINE
  5
338
  8
0
 10
32.9864966107286079
 20
60.2097394772884513
 30
0.0
 11
32.986496610526558
 21
52.6675626049235888
 31
0.0
  0
ARC
  5
339
  8
0
 10
32.6864966107282413
 20
52.6675736049235965
 30
0.0
 40
0.2999999999999874
 50
241.5023434070490111
 51
359.9978991547473015
  0
ARC
  5
33A
  8
0
 10
30.1577456852778383
 20
48.0097394772832473
 30
0.0
 40
5.0000000000006981
 50
61.5023434070490893
 51
90.0000000000053149
  0
LINE
  5
33B
  8
0
 10
30.1577456852773693
 20
53.0097394772839365
 30
0.0
 11
18.7703673734727587
 21
53.0097394774845583
 31
0.0
  0
ARC
  5
33C
  8
0
 10
18.770378373472731
 20
53.3097394772828821
 30
0.0
 40
0.2999999999999874
 50
186.1506329660361985
 51
269.9978991547566807
  0
ARC
  5
33D
  8
0
 10
15.9864965285267306
 20
53.0097398508192228
 30
0.0
 40
2.4999996264631439
 50
6.1506329660363592
 51
90.0009393301830443
  0
LINE
  5
33E
  8
0
 10
15.9864555425217105
 20
55.5097394769464003
 30
0.0
 11
12.3492812637877698
 21
55.50973947728437
 31
0.0
  0
LINE
  5
33F
  8
0
 10
82.9325127264854132
 20
63.0097394772811583
 30
0.0
 11
13.0404804949712592
 21
63.0097394772857911
 31
0.0
  0
ARC
  5
340
  8
0
 10
13.0404804949711597
 20
61.5097394772858621
 30
0.0
 40
1.4999999999999369
 50
89.9999999999962057
 51
160.0000000000158877
  0
LINE
  5
341
  8
0
 10
11.6309415637922093
 20
62.0227696922739469
 30
0.0
 11
7.9864966107304758
 21
52.0097394772828778
 31
0.0
  0
LINE
  5
342
  8
0
 10
7.9864966107304758
 20
52.0097394772828778
 30
0.0
 11
7.9864966107301214
 21
49.5097394772833184
 31
0.0
  0
ARC
  5
343
  8
0
 10
8.4864966107301001
 20
49.5097394772832473
 30
0.0
 40
0.4999999999999791
 50
179.9999999999917861
 51
270.000000000007276
  0
LINE
  5
344
  8
0
 10
8.486496610730164
 20
49.0097394772832686
 30
0.0
 11
11.5293898419108505
 21
49.0097394772836807
 31
0.0
  0
ARC
  5
345
  8
0
 10
11.5293898419107794
 20
49.509740761377401
 30
0.0
 40
0.5000012840937206
 50
270.000000000007276
 51
315.0000626724378776
  0
LINE
  5
346
  8
0
 10
11.8829445272271901
 20
49.1561868495249428
 30
0.0
 11
12.3400494097641609
 21
49.6132927320625612
 31
0.0
  0
ARC
  5
347
  8
0
 10
11.9864943708952101
 20
49.9668469974668028
 30
0.0
 40
0.5000017840919718
 50
315.0000626724369113
 51
359.999999999762224
  0
LINE
  5
348
  8
0
 10
12.48649615498719
 20
49.966846997464728
 30
0.0
 11
12.4864961549881901
 21
50.2097391892738614
 31
0.0
  0
ARC
  5
349
  8
0
 10
12.1864958669792394
 20
50.2097391892750906
 30
0.0
 40
0.300000288008947
 50
359.9999999997638724
 51
90.0000000000163141
  0
LINE
  5
34A
  8
0
 10
12.1864958669791594
 20
50.5097394772840502
 30
0.0
 11
10.6864966107275006
 21
50.5097394772836168
 31
0.0
  0
ARC
  5
34B
  8
0
 10
10.6864966107274899
 20
50.8097394772828821
 30
0.0
 40
0.2999999999992598
 50
180.0000000000542002
 51
270.0000000000013074
  0
LINE
  5
34C
  8
0
 10
10.3864966107282299
 20
50.8097394772825908
 30
0.0
 11
10.3864966107274892
 21
51.5865547235802921
 31
0.0
  0
LINE
  5
34D
  8
0
 10
10.3864966107274892
 20
51.5865547235802921
 30
0.0
 11
10.9667360747824407
 21
53.1807495489490094
 31
0.0
  0
ARC
  5
34E
  8
0
 10
11.4365823851756296
 20
53.0097394772862316
 30
0.0
 40
0.5000000000002021
 50
89.9999999999503331
 51
160.0000000000152056
  0
LINE
  5
34F
  8
0
 10
11.4365823851760595
 20
53.5097394772864305
 30
0.0
 11
15.9864965285271694
 21
53.5097394772824515
 31
0.0
  0
ARC
  5
350
  8
0
 10
15.9864965285267306
 20
53.0097398508192228
 30
0.0
 40
0.4999996264632291
 50
0.0
 51
89.999999999949523
  0
LINE
  5
351
  8
0
 10
16.4864961549899611
 20
53.0097398508192228
 30
0.0
 11
16.4864961549899611
 21
51.0097391037465187
 31
0.0
  0
ARC
  5
352
  8
0
 10
15.9864965285267306
 20
51.0097391037465187
 30
0.0
 40
0.4999996264632291
 50
269.9999999999755005
 51
0.0
  0
LINE
  5
353
  8
0
 10
15.9864965285265104
 20
50.509739477283297
 30
0.0
 11
15.2864959308675896
 21
50.5097394772835884
 31
0.0
  0
ARC
  5
354
  8
0
 10
15.2864959308676003
 20
50.2097397014056526
 30
0.0
 40
0.2999997758779374
 50
90.0000000000027285
 51
179.999999999250889
  0
LINE
  5
355
  8
0
 10
14.9864961549896591
 20
50.2097397014095677
 30
0.0
 11
14.9864961549864901
 21
49.9668469974766793
 31
0.0
  0
ARC
  5
356
  8
0
 10
15.4864979390822004
 20
49.9668469974701566
 30
0.0
 40
0.5000017840957089
 50
179.9999999992517132
 51
224.9999373277888139
  0
LINE
  5
357
  8
0
 10
15.1329429002120008
 20
49.6132927320618791
 30
0.0
 11
15.5900477827524604
 21
49.1561868495243885
 31
0.0
  0
ARC
  5
358
  8
0
 10
15.9436024680681001
 20
49.5097407613788931
 30
0.0
 40
0.5000012840946266
 50
224.9999373277888992
 51
269.99999999997641
  0
LINE
  5
359
  8
0
 10
15.9436024680678994
 20
49.0097394772842705
 30
0.0
 11
18.2864965285246583
 21
49.009739477283297
 31
0.0
  0
ARC
  5
35A
  8
0
 10
18.2864965285248608
 20
49.5097391037465329
 30
0.0
 40
0.4999996264632291
 50
269.99999999997641
 51
359.9999999999756142
  0
LINE
  5
35B
  8
0
 10
18.7864961549880896
 20
49.5097391037463126
 30
0.0
 11
18.7864961549885408
 21
50.509739477283091
 31
0.0
  0
ARC
  5
35C
  8
0
 10
19.2864961549885088
 20
50.5097394772828707
 30
0.0
 40
0.4999999999999791
 50
90.0000000000061249
 51
179.9999999999747047
  0
LINE
  5
35D
  8
0
 10
19.286496154988459
 20
51.0097394772828423
 30
0.0
 11
30.1577456852775114
 21
51.0097394772840289
 31
0.0
  0
ARC
  5
35E
  8
0
 10
30.1577456852778383
 20
48.0097394772832473
 30
0.0
 40
3.0000000000007829
 50
355.4999997391643092
 51
90.0000000000062244
  0
LINE
  5
35F
  8
0
 10
33.1484976854064612
 20
47.7743621764844235
 30
0.0
 11
31.9864966107267499
 21
33.0097394772881003
 31
0.0
  0
LINE
  5
360
  8
0
 10
31.9864966107267499
 20
33.0097394772881003
 30
0.0
 11
31.9864966107302209
 21
14.6624307479729694
 31
0.0
  0
ARC
  5
361
  8
0
 10
31.6864961231175393
 20
14.6624307479729108
 30
0.0
 40
0.3000004876126778
 50
314.999999999997101
 51
0.0000000000101519
  0
LINE
  5
362
  8
0
 10
31.8986285022677301
 20
14.4502983688227093
 30
0.0
 11
31.2252626090512599
 21
13.7769324756062996
 31
0.0
  0
ARC
  5
363
  8
0
 10
30.8717090271297501
 20
14.1304860575278504
 30
0.0
 40
0.5000002705790142
 50
254.9999864805197092
 51
314.9999999999973852
  0
LINE
  5
364
  8
0
 10
30.7422993205877617
 20
13.6475229135594898
 30
0.0
 11
29.7088334774635499
 21
13.9244395129938905
 31
0.0
  0
ARC
  5
365
  8
0
 10
29.7864792601484396
 20
14.2142172454641393
 30
0.0
 40
0.3000000030072446
 50
180.4275816752137871
 51
254.9999864805199081
  0
ARC
  5
366
  8
0
 10
29.1864961509365202
 20
14.2097396635608
 30
0.0
 40
0.2999998137253201
 50
0.4275816752132237
 51
89.9999999999749036
  0
LINE
  5
367
  8
0
 10
29.1864961509366516
 20
14.5097394772861197
 30
0.0
 11
28.9864962371921102
 21
14.5097394772862103
 31
0.0
  0
ARC
  5
368
  8
0
 10
28.9864962371918899
 20
14.0097398508236903
 30
0.0
 40
0.4999996264625159
 50
89.9999999999751594
 51
180.0000000000277112
  0
LINE
  5
369
  8
0
 10
28.4864966107293789
 20
14.0097398508234505
 30
0.0
 11
28.4864966107300717
 21
12.5650753548635699
 31
0.0
  0
ARC
  5
36A
  8
0
 10
28.9864967311024309
 20
12.5650753548638097
 30
0.0
 40
0.5000001203723569
 50
180.0000000000277112
 51
254.9999988438949003
  0
LINE
  5
36B
  8
0
 10
28.8570871676513612
 20
12.0821123280597096
 30
0.0
 11
30.9296280895977915
 21
11.5267766169218309
 31
0.0
  0
ARC
  5
36C
  8
0
 10
31.059038002976731
 20
12.0097409496744394
 30
0.0
 40
0.5000014723897456
 50
254.9999988438952983
 51
270.0000000000105729
  0
LINE
  5
36D
  8
0
 10
31.0590380029768198
 20
11.5097394772846897
 30
0.0
 11
32.6864968348503311
 21
11.5097394772850006
 31
0.0
  0
ARC
  5
36E
  8
0
 10
32.6864968348502813
 20
11.8097392531623306
 30
0.0
 40
0.2999997758773389
 50
270.0000000000108002
 51
359.9999999997332907
  0
LINE
  5
36F
  8
0
 10
32.9864966107276203
 20
11.8097392531609398
 30
0.0
 11
32.9864966107314217
 21
12.5854752065987299
 31
0.0
  0
ARC
  5
370
  8
0
 10
33.2864970983449027
 20
12.5854752065972608
 30
0.0
 40
0.3000004876134818
 50
135.0000000001724914
 51
179.9999999997189946
  0
LINE
  5
371
  8
0
 10
33.0743647191934969
 20
12.7976075857473806
 30
0.0
 11
33.4986285022654613
 21
13.2218713688218994
 31
0.0
  0
ARC
  5
372
  8
0
 10
33.7107608814164621
 20
13.0097389896721793
 30
0.0
 40
0.3000004876129155
 50
90.0000000000502069
 51
135.0000000001724914
  0
LINE
  5
373
  8
0
 10
33.7107608814161992
 20
13.3097394772850901
 30
0.0
 11
34.9864969842667577
 21
13.3097394772862092
 31
0.0
  0
ARC
  5
374
  8
0
 10
34.9864969842671911
 20
12.8097398508236893
 30
0.0
 40
0.4999996264625159
 50
359.9999999999869829
 51
90.0000000000500364
  0
LINE
  5
375
  8
0
 10
35.4864966107297093
 20
12.8097398508235791
 30
0.0
 11
35.4864966107289916
 21
9.5597398025323805
 31
0.0
  0
ARC
  5
376
  8
0
 10
35.4864966107289916
 20
9.2597398025323834
 30
0.0
 40
0.2999999999999987
 50
270.0
 51
90.0
  0
LINE
  5
377
  8
0
 10
35.4864966107289916
 20
8.9597398025323827
 30
0.0
 11
35.4864966107316704
 21
6.5097387302105281
 31
0.0
  0
ARC
  5
378
  8
0
 10
34.4864973578065204
 20
6.5097387302094312
 30
0.0
 40
0.9999992529251454
 50
269.9999999999909051
 51
0.0000000000629097
  0
LINE
  5
379
  8
0
 10
34.4864973578063569
 20
5.5097394772842838
 30
0.0
 11
30.7864963866072792
 21
5.5097394772848807
 31
0.0
  0
ARC
  5
37A
  8
0
 10
30.7864963866073182
 20
5.8097392531623342
 30
0.0
 40
0.2999997758774526
 50
180.0000000000488001
 51
269.9999999999910756
  0
LINE
  5
37B
  8
0
 10
30.4864966107298692
 20
5.8097392531620784
 30
0.0
 11
30.4864966107294002
 21
6.4130684201054002
 31
0.0
  0
ARC
  5
37C
  8
0
 10
30.1864958344831606
 20
6.4130684201051622
 30
0.0
 40
0.3000007762462294
 50
0.0000000000454606
 51
80.0000010399155741
  0
LINE
  5
37D
  8
0
 10
30.2385904172147093
 20
6.7085115114076457
 30
0.0
 11
28.5733204227827784
 21
7.0021435104259337
 31
0.0
  0
ARC
  5
37E
  8
0
 10
28.4864963825154689
 20
6.5097398570914917
 30
0.0
 40
0.4999997717853926
 50
80.0000010399159436
 51
180.0000000000150067
  0
LINE
  5
37F
  8
0
 10
27.9864966107300717
 20
6.5097398570913612
 30
0.0
 11
27.986496610730871
 21
3.509739477284973
 31
0.0
  0
ARC
  5
380
  8
0
 10
28.4864966107308497
 20
3.5097394772851049
 30
0.0
 40
0.4999999999999791
 50
180.0000000000150067
 51
270.0
  0
LINE
  5
381
  8
0
 10
28.4864966107308497
 20
3.0097394772851258
 30
0.0
 11
67.4864966107252542
 21
3.0097394772851258
 31
0.0
  0
ARC
  5
382
  8
0
 10
67.4864966107252542
 20
3.5097394772851049
 30
0.0
 40
0.4999999999999791
 50
270.0
 51
359.9999999999848797
  0
LINE
  5
383
  8
0
 10
67.9864966107252258
 20
3.509739477284973
 30
0.0
 11
67.9864966107260358
 21
6.5097398570913612
 31
0.0
  0
ARC
  5
384
  8
0
 10
67.4864968389406386
 20
6.5097398570914917
 30
0.0
 40
0.4999997717853926
 50
359.9999999999848797
 51
99.9999989600841275
  0
LINE
  5
385
  8
0
 10
67.3996727986733219
 20
7.0021435104259337
 30
0.0
 11
65.7344028042413981
 21
6.7085115114076457
 31
0.0
  0
ARC
  5
386
  8
0
 10
65.7864973869729255
 20
6.4130684201051622
 30
0.0
 40
0.3000007762462294
 50
99.9999989600844117
 51
179.9999999999544968
  0
LINE
  5
387
  8
0
 10
65.4864966107267037
 20
6.4130684201054002
 30
0.0
 11
65.4864966107262347
 21
5.8097392531620784
 31
0.0
  0
ARC
  5
388
  8
0
 10
65.1864968348487821
 20
5.8097392531623342
 30
0.0
 40
0.2999997758774526
 50
270.0000000000088107
 51
359.9999999999512283
  0
LINE
  5
389
  8
0
 10
65.1864968348488247
 20
5.5097394772848807
 30
0.0
 11
61.486495863650859
 21
5.5097394772842838
 31
0.0
  0
ARC
  5
38A
  8
0
 10
61.4864958636507026
 20
6.5097387302094312
 30
0.0
 40
0.9999992529251454
 50
179.9999999999371028
 51
270.0000000000089813
  0
LINE
  5
38B
  8
0
 10
60.4864966107255526
 20
6.5097387302105281
 30
0.0
 11
60.4864966107282385
 21
8.9597398025323827
 31
0.0
  0
ARC
  5
38C
  8
0
 10
60.4864966107282385
 20
9.2597398025323834
 30
0.0
 40
0.2999999999999987
 50
90.0
 51
270.0
  0
LINE
  5
38D
  8
0
 10
60.4864966107282385
 20
9.5597398025323805
 30
0.0
 11
60.4864966107263911
 21
12.8097398508234104
 31
0.0
  0
ARC
  5
38E
  8
0
 10
60.9864962371889092
 20
12.8097398508236893
 30
0.0
 40
0.4999996264625159
 50
89.999999999949523
 51
180.000000000032486
  0
LINE
  5
38F
  8
0
 10
60.9864962371893498
 20
13.3097394772862092
 30
0.0
 11
62.2622323400399083
 21
13.3097394772850901
 31
0.0
  0
ARC
  5
390
  8
0
 10
62.2622323400396382
 20
13.0097389896721793
 30
0.0
 40
0.3000004876129155
 50
44.9999999998526974
 51
89.9999999999497931
  0
LINE
  5
391
  8
0
 10
62.4743647191905467
 20
13.2218713688220006
 30
0.0
 11
62.8986285022628806
 21
12.79760758574748
 31
0.0
  0
ARC
  5
392
  8
0
 10
62.6864961231115814
 20
12.5854752065972608
 30
0.0
 40
0.3000004876134818
 50
0.0000000002537828
 51
44.9999999998527329
  0
LINE
  5
393
  8
0
 10
62.9864966107250623
 20
12.5854752065985895
 30
0.0
 11
62.9864966107284872
 21
11.8097392531609398
 31
0.0
  0
ARC
  5
394
  8
0
 10
63.2864963866058332
 20
11.8097392531623306
 30
0.0
 40
0.2999997758773389
 50
180.0000000002665956
 51
269.9999999999890861
  0
LINE
  5
395
  8
0
 10
63.2864963866057835
 20
11.5097394772850006
 30
0.0
 11
64.9139552184792734
 21
11.5097394772846897
 31
0.0
  0
ARC
  5
396
  8
0
 10
64.9139552184793729
 20
12.0097409496744394
 30
0.0
 40
0.5000014723897456
 50
269.9999999999894271
 51
285.0000011561048154
  0
LINE
  5
397
  8
0
 10
65.0433651318583088
 20
11.5267766169218309
 30
0.0
 11
67.1159060538047356
 21
12.0821123280597096
 31
0.0
  0
ARC
  5
398
  8
0
 10
66.986496490353673
 20
12.5650753548638097
 30
0.0
 40
0.5000001203723569
 50
285.0000011561047017
 51
359.9999999999723173
  0
LINE
  5
399
  8
0
 10
67.4864966107260358
 20
12.5650753548635699
 30
0.0
 11
67.4864966107267321
 21
14.0097398508234505
 31
0.0
  0
ARC
  5
39A
  8
0
 10
66.9864969842642211
 20
14.0097398508236903
 30
0.0
 40
0.4999996264625159
 50
359.9999999999723173
 51
90.0000000000248548
  0
LINE
  5
39B
  8
0
 10
66.9864969842639937
 20
14.5097394772862103
 30
0.0
 11
66.7864970705194452
 21
14.5097394772861197
 31
0.0
  0
ARC
  5
39C
  8
0
 10
66.7864970705195873
 20
14.2097396635608
 30
0.0
 40
0.2999998137253201
 50
90.0000000000251106
 51
179.5724183247857866
  0
ARC
  5
39D
  8
0
 10
66.1865139613080373
 20
14.2142172454641393
 30
0.0
 40
0.3000000030072446
 50
285.0000135194750897
 51
359.5724183247864971
  0
LINE
  5
39E
  8
0
 10
66.2641597439928915
 20
13.9244395129938798
 30
0.0
 11
65.2306939008683031
 21
13.6475229135594702
 31
0.0
  0
ARC
  5
39F
  8
0
 10
65.1012841943263538
 20
14.1304860575278504
 30
0.0
 40
0.5000002705790142
 50
224.9999999999392912
 51
285.0000135194757149
  0
LINE
  5
3A0
  8
0
 10
64.7477306124044532
 20
13.7769324756066904
 30
0.0
 11
64.0743647191896315
 21
14.4502983688229403
 31
0.0
  0
ARC
  5
3A1
  8
0
 10
64.2864970983400354
 20
14.6624307479729108
 30
0.0
 40
0.3000004876126778
 50
179.9999999999945999
 51
224.9999999999390923
  0
LINE
  5
3A2
  8
0
 10
63.9864966107273787
 20
14.6624307479729392
 30
0.0
 11
63.9864966107293469
 21
33.0097394772881003
 31
0.0
  0
LINE
  5
3A3
  8
0
 10
63.9864966107293469
 20
33.0097394772881003
 30
0.0
 11
62.8244955360506196
 21
47.7743621764846083
 31
0.0
  0
ARC
  5
3A4
  8
0
 10
65.8152475361793847
 20
48.0097394772832473
 30
0.0
 40
3.0000000000008948
 50
89.9999999999932356
 51
184.5000002608319107
  0
LINE
  5
3A5
  8
0
 10
65.8152475361797258
 20
51.0097394772841426
 30
0.0
 11
76.6864970664676378
 21
51.0097394772828423
 31
0.0
  0
ARC
  5
3A6
  8
0
 10
76.6864970664675809
 20
50.5097394772828707
 30
0.0
 40
0.4999999999999791
 50
0.0000000000252409
 51
89.9999999999934914
  0
LINE
  5
3A7
  8
0
 10
77.1864970664675667
 20
50.509739477283091
 30
0.0
 11
77.186497066467993
 21
49.5097391037463126
 31
0.0
  0
ARC
  5
3A8
  8
0
 10
77.686496692931243
 20
49.5097391037465329
 30
0.0
 40
0.4999996264632291
 50
180.0000000000243858
 51
270.0000000000227942
  0
LINE
  5
3A9
  8
0
 10
77.686496692931442
 20
49.009739477283297
 30
0.0
 11
80.0293907533881992
 21
49.0097394772842634
 31
0.0
  0
ARC
  5
3AA
  8
0
 10
80.029390753387986
 20
49.5097407613788931
 30
0.0
 40
0.5000012840946301
 50
270.00000000002359
 51
315.0000626722002153
  0
LINE
  5
3AB
  8
0
 10
80.3829454387035867
 20
49.1561868495243104
 30
0.0
 11
80.8400503212441208
 21
49.6132927320617227
 31
0.0
  0
ARC
  5
3AC
  8
0
 10
80.4864952823738946
 20
49.9668469974701566
 30
0.0
 40
0.5000017840958304
 50
315.00006267219959
 51
0.0000000004266187
  0
LINE
  5
3AD
  8
0
 10
80.9864970664697523
 20
49.9668469974738798
 30
0.0
 11
80.9864970664679333
 21
50.2097397014078908
 31
0.0
  0
ARC
  5
3AE
  8
0
 10
80.6864972905899975
 20
50.2097397014056526
 30
0.0
 40
0.2999997758779374
 50
0.0000000004274669
 51
89.9999999999986358
  0
LINE
  5
3AF
  8
0
 10
80.686497290590026
 20
50.5097394772835884
 30
0.0
 11
79.9864966929314534
 21
50.509739477283297
 31
0.0
  0
ARC
  5
3B0
  8
0
 10
79.9864966929312402
 20
51.0097391037465187
 30
0.0
 40
0.4999996264632291
 50
180.0
 51
270.0000000000243858
  0
LINE
  5
3B1
  8
0
 10
79.4864970664680186
 20
51.0097391037465187
 30
0.0
 11
79.4864970664680186
 21
53.0097398508192228
 31
0.0
  0
ARC
  5
3B2
  8
0
 10
79.9864966929312402
 20
53.0097398508192228
 30
0.0
 40
0.4999996264632291
 50
90.0000000000472369
 51
180.0
  0
LINE
  5
3B3
  8
0
 10
79.9864966929308281
 20
53.5097394772824515
 30
0.0
 11
84.536410836280055
 21
53.5097394772862032
 31
0.0
  0
ARC
  5
3B4
  8
0
 10
84.5364108362804672
 20
53.0097394772862316
 30
0.0
 40
0.4999999999999791
 50
19.9999999999924505
 51
90.0000000000472369
  0
LINE
  5
3B5
  8
0
 10
85.0062571466734056
 20
53.1807495489490023
 30
0.0
 11
85.5864966107286165
 21
51.5865547235802921
 31
0.0
  0
LINE
  5
3B6
  8
0
 10
85.5864966107286165
 20
51.5865547235802921
 30
0.0
 11
85.5864966107293696
 21
50.8097394772831734
 31
0.0
  0
ARC
  5
3B7
  8
0
 10
85.286496610730083
 20
50.8097394772828821
 30
0.0
 40
0.2999999999992598
 50
270.0
 51
0.0000000000556355
  0
LINE
  5
3B8
  8
0
 10
85.286496610730083
 20
50.5097394772836168
 30
0.0
 11
83.7864973544788114
 21
50.5097394772840502
 31
0.0
  0
ARC
  5
3B9
  8
0
 10
83.7864973544787262
 20
50.2097391892750906
 30
0.0
 40
0.300000288008947
 50
89.9999999999837144
 51
179.9999999998642863
  0
LINE
  5
3BA
  8
0
 10
83.486497066469795
 20
50.2097391892758012
 30
0.0
 11
83.4864970664691981
 21
49.9668469974679965
 31
0.0
  0
ARC
  5
3BB
  8
0
 10
83.9864988505612757
 20
49.9668469974668028
 30
0.0
 40
0.5000017840920709
 50
179.9999999998632063
 51
224.9999373275246057
  0
LINE
  5
3BC
  8
0
 10
83.6329438116920159
 20
49.6132927320627317
 30
0.0
 11
84.0900486942284857
 21
49.1561868495249783
 31
0.0
  0
ARC
  5
3BD
  8
0
 10
84.4436033795453369
 20
49.509740761377401
 30
0.0
 40
0.5000012840939834
 50
224.9999373275252026
 51
269.9999999999976126
  0
LINE
  5
3BE
  8
0
 10
84.4436033795452943
 20
49.0097394772834178
 30
0.0
 11
87.4864966107270874
 21
49.0097394772832686
 31
0.0
  0
ARC
  5
3BF
  8
0
 10
87.48649661072713
 20
49.5097394772832473
 30
0.0
 40
0.4999999999999791
 50
269.9999999999976126
 51
0.0000000000081535
  0
LINE
  5
3C0
  8
0
 10
87.9864966107271016
 20
49.5097394772833184
 30
0.0
 11
87.9864966107267463
 21
52.0097394772828778
 31
0.0
  0
LINE
  5
3C1
  8
0
 10
87.9864966107267463
 20
52.0097394772828778
 30
0.0
 11
84.3420516576643564
 21
62.0227696922694705
 31
0.0
  0
ARC
  5
3C2
  8
0
 10
82.9325127264853137
 20
61.5097394772810091
 30
0.0
 40
1.500000000000141
 50
19.9999999999957296
 51
89.9999999999962057
  0
ENDBLK
  5
3C4
  8
0
  0
BLOCK
  8
0
  2
*U3
 70
     1
 10
0.0
 20
0.0
 30
0.0
  3
*U3
  1

  0
LINE
  5
3C6
  8
0
 10
35.3558094805055774
 20
46.7646014389563121
 30
0.0
 11
60.6638601847328829
 21
46.7646014389578113
 31
0.0
  0
ARC
  5
3C7
  8
0
 10
60.6638601847329824
 20
46.4646014389578212
 30
0.0
 40
0.2999999999999874
 50
4.5000002608668801
 51
90.0000000000189999
  0
LINE
  5
3C8
  8
0
 10
60.9629353847457267
 20
46.4881391690378578
 30
0.0
 11
61.1721124065177619
 21
43.8302932590111922
 31
0.0
  0
ARC
  5
3C9
  8
0
 10
60.9727289398425825
 20
43.8146014389578227
 30
0.0
 40
0.1999999999999916
 50
269.9999999998457838
 51
4.5000002608669121
  0
LINE
  5
3CA
  8
0
 10
60.9727289398420425
 20
43.6146014389578269
 30
0.0
 11
60.5598348326185203
 21
43.6146014389591272
 31
0.0
  0
ARC
  5
3CB
  8
0
 10
60.559834832617419
 20
43.26460143895968
 30
0.0
 40
0.3499999999994396
 50
89.9999999998197069
 51
270.0000000001052172
  0
LINE
  5
3CC
  8
0
 10
60.5598348326180584
 20
42.914601438960247
 30
0.0
 11
61.0593008223865965
 21
42.9146014389611707
 31
0.0
  0
ARC
  5
3CD
  8
0
 10
61.059300822387037
 20
42.7146014389611821
 30
0.0
 40
0.1999999999999916
 50
4.5000002608312579
 51
90.0000000001272156
  0
LINE
  5
3CE
  8
0
 10
61.2586842890622307
 20
42.7302932590144167
 30
0.0
 11
62.0098348326200295
 21
33.1860212203718703
 31
0.0
  0
LINE
  5
3CF
  8
0
 10
62.0098348326200295
 20
33.1860212203718703
 30
0.0
 11
62.0098348326200082
 21
28.76460111684613
 31
0.0
  0
ARC
  5
3D0
  8
0
 10
61.7098348326200181
 20
28.76460111684613
 30
0.0
 40
0.2999999999999874
 50
269.9999999999457145
 51
359.9999999999997726
  0
LINE
  5
3D1
  8
0
 10
61.709834832619741
 20
28.4646011168461506
 30
0.0
 11
60.559834832617689
 21
28.4646011168470601
 31
0.0
  0
ARC
  5
3D2
  8
0
 10
60.559834832617419
 20
28.1146011168476306
 30
0.0
 40
0.3499999999994396
 50
89.999999999954639
 51
269.9999999998972839
  0
LINE
  5
3D3
  8
0
 10
60.5598348326167866
 20
27.7646011168481799
 30
0.0
 11
61.7098348326206221
 21
27.7646011168461193
 31
0.0
  0
ARC
  5
3D4
  8
0
 10
61.7098348326200181
 20
27.4646011168461293
 30
0.0
 40
0.2999999999999874
 50
359.999999999968793
 51
89.9999999998880043
  0
LINE
  5
3D5
  8
0
 10
62.0098348326200082
 20
27.4646011168459694
 30
0.0
 11
62.0098348326181465
 21
24.0646011168459708
 31
0.0
  0
ARC
  5
3D6
  8
0
 10
61.7098348326181565
 20
24.0646011168461307
 30
0.0
 40
0.2999999999999874
 50
270.0000000000190994
 51
359.9999999999682245
  0
LINE
  5
3D7
  8
0
 10
61.7098348326182631
 20
23.7646011168461513
 30
0.0
 11
60.5598348326172413
 21
23.7646011168455686
 31
0.0
  0
ARC
  5
3D8
  8
0
 10
60.559834832617419
 20
23.4146011168461285
 30
0.0
 40
0.3499999999994396
 50
90.0000000000284928
 51
269.9999999999715214
  0
LINE
  5
3D9
  8
0
 10
60.5598348326172413
 20
23.0646011168466885
 30
0.0
 11
61.7098348326183626
 21
23.06460111684612
 31
0.0
  0
ARC
  5
3DA
  8
0
 10
61.7098348326181565
 20
22.76460111684613
 30
0.0
 40
0.2999999999999874
 50
0.0
 51
89.9999999999620144
  0
LINE
  5
3DB
  8
0
 10
62.0098348326181465
 20
22.76460111684613
 30
0.0
 11
62.0098348326181465
 21
18.0646014389589418
 31
0.0
  0
ARC
  5
3DC
  8
0
 10
61.7098348326181565
 20
18.0646014389589418
 30
0.0
 40
0.2999999999999874
 50
269.9999999999973284
 51
0.0
  0
LINE
  5
3DD
  8
0
 10
61.7098348326181494
 20
17.7646014389589517
 30
0.0
 11
34.3098348326185203
 21
17.764601438960451
 31
0.0
  0
ARC
  5
3DE
  8
0
 10
34.3098348326185274
 20
18.0646014389604304
 30
0.0
 40
0.2999999999999874
 50
180.0
 51
269.9999999999968736
  0
LINE
  5
3DF
  8
0
 10
34.0098348326185516
 20
18.0646014389604304
 30
0.0
 11
34.0098348326185516
 21
22.76460111684613
 31
0.0
  0
ARC
  5
3E0
  8
0
 10
34.3098348326185274
 20
22.76460111684613
 30
0.0
 40
0.2999999999999874
 50
90.000000000038014
 51
180.0
  0
LINE
  5
3E1
  8
0
 10
34.3098348326183284
 20
23.06460111684612
 30
0.0
 11
35.4598348326194497
 21
23.0646011168466885
 31
0.0
  0
ARC
  5
3E2
  8
0
 10
35.4598348326192792
 20
23.4146011168461285
 30
0.0
 40
0.3499999999994396
 50
270.0000000000284786
 51
89.9999999999714646
  0
LINE
  5
3E3
  8
0
 10
35.4598348326194497
 20
23.7646011168455686
 30
0.0
 11
34.3098348326184421
 21
23.7646011168461513
 31
0.0
  0
ARC
  5
3E4
  8
0
 10
34.3098348326185274
 20
24.0646011168461307
 30
0.0
 40
0.2999999999999874
 50
180.0000000000318039
 51
269.9999999999810143
  0
LINE
  5
3E5
  8
0
 10
34.0098348326185516
 20
24.0646011168459708
 30
0.0
 11
34.0098348326166828
 21
27.4646011168459694
 31
0.0
  0
ARC
  5
3E6
  8
0
 10
34.3098348326166729
 20
27.4646011168461293
 30
0.0
 40
0.2999999999999874
 50
90.0000000001119531
 51
180.0000000000310934
  0
LINE
  5
3E7
  8
0
 10
34.3098348326160831
 20
27.7646011168461193
 30
0.0
 11
35.4598348326198973
 21
27.7646011168481799
 31
0.0
  0
ARC
  5
3E8
  8
0
 10
35.4598348326192792
 20
28.1146011168476306
 30
0.0
 40
0.3499999999994396
 50
270.0000000001026024
 51
90.0000000000456453
  0
LINE
  5
3E9
  8
0
 10
35.459834832619002
 20
28.4646011168470601
 30
0.0
 11
34.3098348326169571
 21
28.4646011168461506
 31
0.0
  0
ARC
  5
3EA
  8
0
 10
34.3098348326166729
 20
28.76460111684613
 30
0.0
 40
0.2999999999999874
 50
180.0000000000001137
 51
270.0000000000549107
  0
LINE
  5
3EB
  8
0
 10
34.0098348326166828
 20
28.76460111684613
 30
0.0
 11
34.0098348326166828
 21
33.1860212203718703
 31
0.0
  0
LINE
  5
3EC
  8
0
 10
34.0098348326166828
 20
33.1860212203718703
 30
0.0
 11
34.7609853761755971
 21
42.7302932590144309
 31
0.0
  0
ARC
  5
3ED
  8
0
 10
34.9603688428507766
 20
42.7146014389611821
 30
0.0
 40
0.1999999999999916
 50
89.9999999998727844
 51
175.499999739162206
  0
LINE
  5
3EE
  8
0
 10
34.9603688428512314
 20
42.9146014389611707
 30
0.0
 11
35.4598348326186397
 21
42.914601438960247
 31
0.0
  0
ARC
  5
3EF
  8
0
 10
35.4598348326192792
 20
43.26460143895968
 30
0.0
 40
0.3499999999994396
 50
269.9999999998947828
 51
90.0000000001803357
  0
LINE
  5
3F0
  8
0
 10
35.4598348326181778
 20
43.6146014389591272
 30
0.0
 11
35.0469407253946628
 21
43.6146014389578269
 31
0.0
  0
ARC
  5
3F1
  8
0
 10
35.0469407253941228
 20
43.8146014389578227
 30
0.0
 40
0.1999999999999916
 50
175.4999997390912085
 51
270.0000000001542162
  0
LINE
  5
3F2
  8
0
 10
34.8475572587189504
 20
43.8302932590113272
 30
0.0
 11
35.0567342804928472
 21
46.488139169036593
 31
0.0
  0
ARC
  5
3F3
  8
0
 10
35.3558094805055774
 20
46.4646014389563291
 30
0.0
 40
0.2999999999999874
 50
90.0
 51
175.4999997390906117
  0
ARC
  5
3F4
  8
0
 10
58.2098348326185402
 20
6.0646014389611791
 30
0.0
 40
0.2999999999999874
 50
270.0
 51
0.0000000000135092
  0
LINE
  5
3F5
  8
0
 10
58.2098348326185402
 20
5.764601438961189
 30
0.0
 11
37.8098348326181721
 21
5.764601438961189
 31
0.0
  0
ARC
  5
3F6
  8
0
 10
37.8098348326181721
 20
6.0646014389611791
 30
0.0
 40
0.2999999999999874
 50
179.999999999986386
 51
270.0
  0
LINE
  5
3F7
  8
0
 10
37.5098348326181821
 20
6.064601438961251
 30
0.0
 11
37.5098348326192905
 21
10.7646014361099098
 31
0.0
  0
ARC
  5
3F8
  8
0
 10
37.8098348326192806
 20
10.7646014361098405
 30
0.0
 40
0.2999999999999874
 50
90.0
 51
179.999999999986386
  0
LINE
  5
3F9
  8
0
 10
37.8098348326192806
 20
11.0646014361098306
 30
0.0
 11
58.2098348326174104
 21
11.0646014361098306
 31
0.0
  0
ARC
  5
3FA
  8
0
 10
58.2098348326174104
 20
10.7646014361098405
 30
0.0
 40
0.2999999999999874
 50
0.0000000000135873
 51
90.0
  0
LINE
  5
3FB
  8
0
 10
58.5098348326174076
 20
10.7646014361099098
 30
0.0
 11
58.5098348326185302
 21
6.064601438961251
 31
0.0
  0
ARC
  5
3FC
  8
0
 10
34.3098348326185274
 20
15.8646014389622891
 30
0.0
 40
0.2999999999999874
 50
180.0
 51
269.9999999173880951
  0
LINE
  5
3FD
  8
0
 10
34.0098348326185516
 20
15.8646014389622891
 30
0.0
 11
34.0098348326185516
 21
16.7646014390483487
 31
0.0
  0
ARC
  5
3FE
  8
0
 10
34.3098348326185274
 20
16.7646014390483487
 30
0.0
 40
0.2999999999999874
 50
89.9999999877167909
 51
180.0
  0
LINE
  5
3FF
  8
0
 10
34.3098348326828528
 20
17.0646014390483387
 30
0.0
 11
61.7098348326824819
 21
17.0646014331742997
 31
0.0
  0
ARC
  5
400
  8
0
 10
61.7098348326181565
 20
16.7646014331743096
 30
0.0
 40
0.2999999999999874
 50
0.0
 51
89.9999999877167767
  0
LINE
  5
401
  8
0
 10
62.0098348326181465
 20
16.7646014331743096
 30
0.0
 11
62.0098348326181465
 21
15.8646014389622891
 31
0.0
  0
ARC
  5
402
  8
0
 10
61.7098348326181565
 20
15.8646014389622891
 30
0.0
 40
0.2999999999999874
 50
270.0000000826123028
 51
0.0
  0
LINE
  5
403
  8
0
 10
61.7098348330507207
 20
15.5646014389623009
 30
0.0
 11
61.0098754369619414
 21
15.5646014386248606
 31
0.0
  0
ARC
  5
404
  8
0
 10
61.0098344590792081
 20
13.0646018124982692
 30
0.0
 40
2.4999996264624311
 50
89.9990608559660643
 51
179.9997478984832071
  0
LINE
  5
405
  8
0
 10
58.5098348326409834
 20
13.0646128125004193
 30
0.0
 11
58.5098348326159083
 21
12.0646014358068392
 31
0.0
  0
ARC
  5
406
  8
0
 10
58.2098348326159325
 20
12.0646014361098395
 30
0.0
 40
0.2999999999999874
 50
270.0
 51
359.9999999421311827
  0
LINE
  5
407
  8
0
 10
58.2098348326159325
 20
11.7646014361098494
 30
0.0
 11
37.8098348326226272
 21
11.7646014361098494
 31
0.0
  0
ARC
  5
408
  8
0
 10
37.8098348326226272
 20
12.0646014361098395
 30
0.0
 40
0.2999999999999874
 50
180.0000000579121888
 51
270.0
  0
LINE
  5
409
  8
0
 10
37.5098348326226514
 20
12.06460143580661
 30
0.0
 11
37.5098348325957218
 21
13.0646128125050804
 31
0.0
  0
ARC
  5
40A
  8
0
 10
35.00983520615749
 20
13.0646018124982692
 30
0.0
 40
2.4999996264624311
 50
0.000252101623546
 51
90.0009391440339073
  0
LINE
  5
40B
  8
0
 10
35.0097942282747567
 20
15.5646014386248606
 30
0.0
 11
34.3098348321859774
 21
15.5646014389623009
 31
0.0
  0
ARC
  5
40C
  8
0
 10
63.3098348326170424
 20
60.4646014389630366
 30
0.0
 40
0.2999999999992598
 50
90.0000000000054285
 51
180.0000000000027001
  0
LINE
  5
40D
  8
0
 10
63.3098348326170068
 20
60.7646014389623019
 30
0.0
 11
82.0455811487016433
 21
60.7646014389641209
 31
0.0
  0
ARC
  5
40E
  8
0
 10
82.0455811487016859
 20
60.4646014389630366
 30
0.0
 40
0.3000000000010788
 50
20.000000000014019
 51
90.0000000000054143
  0
LINE
  5
40F
  8
0
 10
82.327488934938458
 20
60.5672074819611765
 30
0.0
 11
83.9289579657125557
 21
56.1672074819567086
 31
0.0
  0
ARC
  5
410
  8
0
 10
83.6470501794768353
 20
56.0646014389589382
 30
0.0
 40
0.2999999999999874
 50
270.0000000000352998
 51
20.00000000001328
  0
LINE
  5
411
  8
0
 10
83.6470501794770058
 20
55.7646014389589624
 30
0.0
 11
80.0098349148201464
 21
55.7646014389569373
 31
0.0
  0
ARC
  5
412
  8
0
 10
80.0098349148215391
 20
53.264601812493801
 30
0.0
 40
2.4999996264631439
 50
90.000000000031676
 51
173.849367033967809
  0
ARC
  5
413
  8
0
 10
77.2259530698736825
 20
53.5646014389574532
 30
0.0
 40
0.2999999999999874
 50
269.9999999999944862
 51
353.84936703396761
  0
LINE
  5
414
  8
0
 10
77.225953069873654
 20
53.2646014389574702
 30
0.0
 11
65.8385857580701241
 21
53.2646014389585218
 31
0.0
  0
ARC
  5
415
  8
0
 10
65.8385857580696836
 20
48.2646014389578326
 30
0.0
 40
5.0000000000006981
 50
89.9999999999947136
 51
118.4976565929614054
  0
ARC
  5
416
  8
0
 10
63.3098348326181721
 20
52.9224355665981818
 30
0.0
 40
0.2999999999999874
 50
180.0000000000034106
 51
298.4976565929616754
  0
LINE
  5
417
  8
0
 10
63.0098348326181679
 20
52.9224355665981605
 30
0.0
 11
63.0098348326177771
 21
60.4646014389630295
 31
0.0
  0
ARC
  5
418
  8
0
 10
34.3098348326166729
 20
51.5877649617448526
 30
0.0
 40
0.2999999999999874
 50
179.9999999999945999
 51
218.830014675707389
  0
LINE
  5
419
  8
0
 10
34.0098348326166828
 20
51.587764961744881
 30
0.0
 11
34.0098348326174573
 21
60.4646014389604716
 31
0.0
  0
ARC
  5
41A
  8
0
 10
34.3098348326185274
 20
60.4646014389604503
 30
0.0
 40
0.3000000000010788
 50
89.9999999999932356
 51
179.9999999999944862
  0
LINE
  5
41B
  8
0
 10
34.30983483261857
 20
60.7646014389615203
 30
0.0
 11
61.7098348326200608
 21
60.7646014389582092
 31
0.0
  0
ARC
  5
41C
  8
0
 10
61.7098348326200181
 20
60.464601438958951
 30
0.0
 40
0.2999999999992598
 50
0.0000000000054451
 51
89.9999999999932072
  0
LINE
  5
41D
  8
0
 10
62.0098348326192905
 20
60.4646014389589794
 30
0.0
 11
62.0098348326200082
 21
51.5877649617448668
 31
0.0
  0
ARC
  5
41E
  8
0
 10
61.7098348326200181
 20
51.5877649617448526
 30
0.0
 40
0.2999999999999874
 50
321.1699853243003986
 51
0.0000000000040767
  0
ARC
  5
41F
  8
0
 10
65.8385857580696836
 20
48.2646014389578326
 30
0.0
 40
5.0000000000006981
 50
141.1699853243001996
 51
185.4133122736400026
  0
ARC
  5
420
  8
0
 10
60.5622233744201921
 20
47.7646014389563405
 30
0.0
 40
0.2999999999999874
 50
269.999999999989825
 51
5.413312273639316
  0
LINE
  5
421
  8
0
 10
60.562223374420121
 20
47.4646014389563433
 30
0.0
 11
35.4574462908164634
 21
47.4646014389608197
 31
0.0
  0
ARC
  5
422
  8
0
 10
35.4574462908165202
 20
47.7646014389608027
 30
0.0
 40
0.2999999999999874
 50
174.586687726406808
 51
269.999999999989825
  0
ARC
  5
423
  8
0
 10
30.1810839071681407
 20
48.2646014389578326
 30
0.0
 40
5.0000000000006981
 50
354.5866877264069217
 51
38.8300146757073179
  0
ARC
  5
424
  8
0
 10
12.3726194857613798
 20
56.0646014389589382
 30
0.0
 40
0.2999999999999874
 50
160.0000000000098908
 51
269.9999999840900955
  0
LINE
  5
425
  8
0
 10
12.0907116995256008
 20
56.1672074819566021
 30
0.0
 11
13.6921807302977196
 21
60.5672074819612405
 31
0.0
  0
ARC
  5
426
  8
0
 10
13.9740885165350104
 20
60.4646014389630366
 30
0.0
 40
0.3000000000015981
 50
89.9999999999932356
 51
160.0000000000088107
  0
LINE
  5
427
  8
0
 10
13.9740885165350495
 20
60.7646014389646467
 30
0.0
 11
32.7098348326196913
 21
60.7646014389623019
 31
0.0
  0
ARC
  5
428
  8
0
 10
32.7098348326196628
 20
60.4646014389630366
 30
0.0
 40
0.2999999999992598
 50
359.9999999999973284
 51
89.9999999999928946
  0
LINE
  5
429
  8
0
 10
33.0098348326189068
 20
60.4646014389630295
 30
0.0
 11
33.0098348324168569
 21
52.922424566598167
 31
0.0
  0
ARC
  5
42A
  8
0
 10
32.7098348326185402
 20
52.9224355665981818
 30
0.0
 40
0.2999999999999874
 50
241.5023434070490111
 51
359.9978991547473015
  0
ARC
  5
42B
  8
0
 10
30.1810839071681407
 20
48.2646014389578326
 30
0.0
 40
5.0000000000006981
 50
61.5023434070490893
 51
90.0000000000053149
  0
LINE
  5
42C
  8
0
 10
30.1810839071676718
 20
53.2646014389585218
 30
0.0
 11
18.7937055953630612
 21
53.2646014391591294
 31
0.0
  0
ARC
  5
42D
  8
0
 10
18.7937165953630192
 20
53.5646014389574532
 30
0.0
 40
0.2999999999999874
 50
186.1506329660361985
 51
269.9978991547566807
  0
ARC
  5
42E
  8
0
 10
16.0098347504170313
 20
53.264601812493801
 30
0.0
 40
2.4999996264631439
 50
6.1506329660363592
 51
90.0009393301830443
  0
LINE
  5
42F
  8
0
 10
16.0097937644120094
 20
55.7646014386209714
 30
0.0
 11
12.3726194856780705
 21
55.7646014389589624
 31
0.0
  0
LINE
  5
430
  8
0
 10
82.9558509483757121
 20
63.2646014389557294
 30
0.0
 11
13.0638187168615598
 21
63.2646014389603835
 31
0.0
  0
ARC
  5
431
  8
0
 10
13.0638187168614603
 20
61.7646014389604403
 30
0.0
 40
1.4999999999999369
 50
89.9999999999962057
 51
160.0000000000158877
  0
LINE
  5
432
  8
0
 10
11.65427978568251
 20
62.2776316539485322
 30
0.0
 11
8.0098348326207756
 21
52.2646014389574631
 31
0.0
  0
LINE
  5
433
  8
0
 10
8.0098348326207756
 20
52.2646014389574631
 30
0.0
 11
8.0098348326204203
 21
49.7646014389578895
 31
0.0
  0
ARC
  5
434
  8
0
 10
8.5098348326203972
 20
49.7646014389578184
 30
0.0
 40
0.4999999999999791
 50
179.9999999999917861
 51
270.000000000007276
  0
LINE
  5
435
  8
0
 10
8.5098348326204611
 20
49.2646014389578397
 30
0.0
 11
11.5527280638011405
 21
49.2646014389582589
 31
0.0
  0
ARC
  5
436
  8
0
 10
11.5527280638010801
 20
49.7646027230519792
 30
0.0
 40
0.5000012840937206
 50
270.000000000007276
 51
315.0000626724378776
  0
LINE
  5
437
  8
0
 10
11.9062827491174907
 20
49.4110488111995068
 30
0.0
 11
12.3633876316544598
 21
49.8681546937371394
 31
0.0
  0
ARC
  5
438
  8
0
 10
12.0098325927855107
 20
50.221708959141381
 30
0.0
 40
0.5000017840919718
 50
315.0000626724369113
 51
359.999999999762224
  0
LINE
  5
439
  8
0
 10
12.50983437687748
 20
50.2217089591392991
 30
0.0
 11
12.5098343768784908
 21
50.4646011509484396
 31
0.0
  0
ARC
  5
43A
  8
0
 10
12.20983408886954
 20
50.4646011509496688
 30
0.0
 40
0.300000288008947
 50
359.9999999997638724
 51
90.0000000000163141
  0
LINE
  5
43B
  8
0
 10
12.2098340888694601
 20
50.7646014389586213
 30
0.0
 11
10.7098348326177994
 21
50.7646014389581879
 31
0.0
  0
ARC
  5
43C
  8
0
 10
10.7098348326177906
 20
51.0646014389574532
 30
0.0
 40
0.2999999999992598
 50
180.0000000000542002
 51
270.0000000000013074
  0
LINE
  5
43D
  8
0
 10
10.4098348326185306
 20
51.0646014389571619
 30
0.0
 11
10.4098348326177899
 21
51.8414166852548703
 31
0.0
  0
LINE
  5
43E
  8
0
 10
10.4098348326177899
 20
51.8414166852548703
 30
0.0
 11
10.9900742966727396
 21
53.4356115106235876
 31
0.0
  0
ARC
  5
43F
  8
0
 10
11.4599206070659303
 20
53.2646014389608098
 30
0.0
 40
0.5000000000002021
 50
89.9999999999503331
 51
160.0000000000152056
  0
LINE
  5
440
  8
0
 10
11.4599206070663602
 20
53.7646014389610087
 30
0.0
 11
16.0098347504174683
 21
53.7646014389570297
 31
0.0
  0
ARC
  5
441
  8
0
 10
16.0098347504170313
 20
53.264601812493801
 30
0.0
 40
0.4999996264632291
 50
0.0
 51
89.999999999949523
  0
LINE
  5
442
  8
0
 10
16.5098343768802494
 20
53.264601812493801
 30
0.0
 11
16.5098343768802494
 21
51.2646010654210968
 31
0.0
  0
ARC
  5
443
  8
0
 10
16.0098347504170313
 20
51.2646010654210968
 30
0.0
 40
0.4999996264632291
 50
269.9999999999755005
 51
0.0
  0
LINE
  5
444
  8
0
 10
16.009834750416811
 20
50.7646014389578824
 30
0.0
 11
15.3098341527578903
 21
50.7646014389581666
 31
0.0
  0
ARC
  5
445
  8
0
 10
15.3098341527578992
 20
50.4646016630802308
 30
0.0
 40
0.2999997758779374
 50
90.0000000000027285
 51
179.999999999250889
  0
LINE
  5
446
  8
0
 10
15.0098343768799598
 20
50.464601663084153
 30
0.0
 11
15.0098343768767908
 21
50.2217089591512575
 31
0.0
  0
ARC
  5
447
  8
0
 10
15.5098361609724993
 20
50.2217089591447419
 30
0.0
 40
0.5000017840957089
 50
179.9999999992517132
 51
224.9999373277888139
  0
LINE
  5
448
  8
0
 10
15.1562811221022997
 20
49.8681546937364502
 30
0.0
 11
15.6133860046427504
 21
49.4110488111989667
 31
0.0
  0
ARC
  5
449
  8
0
 10
15.9669406899584008
 20
49.7646027230534713
 30
0.0
 40
0.5000012840946266
 50
224.9999373277888992
 51
269.99999999997641
  0
LINE
  5
44A
  8
0
 10
15.9669406899582
 20
49.2646014389588487
 30
0.0
 11
18.3098347504149501
 21
49.2646014389578824
 31
0.0
  0
ARC
  5
44B
  8
0
 10
18.3098347504151597
 20
49.7646010654210968
 30
0.0
 40
0.4999996264632291
 50
269.99999999997641
 51
359.9999999999756142
  0
LINE
  5
44C
  8
0
 10
18.8098343768783884
 20
49.7646010654208908
 30
0.0
 11
18.809834376878829
 21
50.7646014389576834
 31
0.0
  0
ARC
  5
44D
  8
0
 10
19.3098343768788112
 20
50.7646014389574489
 30
0.0
 40
0.4999999999999791
 50
90.0000000000061249
 51
179.9999999999747047
  0
LINE
  5
44E
  8
0
 10
19.3098343768787615
 20
51.2646014389574276
 30
0.0
 11
30.1810839071678103
 21
51.2646014389586071
 31
0.0
  0
ARC
  5
44F
  8
0
 10
30.1810839071681407
 20
48.2646014389578326
 30
0.0
 40
3.0000000000007829
 50
355.4999997391643092
 51
90.0000000000062244
  0
LINE
  5
450
  8
0
 10
33.1718359072967601
 20
48.0292241381590017
 30
0.0
 11
32.0098348326170523
 21
33.2646014389626714
 31
0.0
  0
LINE
  5
451
  8
0
 10
32.0098348326170523
 20
33.2646014389626714
 30
0.0
 11
32.0098348326205198
 21
14.9172927096475494
 31
0.0
  0
ARC
  5
452
  8
0
 10
31.7098343450078417
 20
14.9172927096474908
 30
0.0
 40
0.3000004876126778
 50
314.999999999997101
 51
0.0000000000101519
  0
LINE
  5
453
  8
0
 10
31.9219667241580289
 20
14.7051603304972804
 30
0.0
 11
31.2486008309415517
 21
14.0317944372808796
 31
0.0
  0
ARC
  5
454
  8
0
 10
30.8950472490200383
 20
14.3853480192024303
 30
0.0
 40
0.5000002705790142
 50
254.9999864805197092
 51
314.9999999999973852
  0
LINE
  5
455
  8
0
 10
30.7656375424780606
 20
13.9023848752340609
 30
0.0
 11
29.7321716993538487
 21
14.1793014746684705
 31
0.0
  0
ARC
  5
456
  8
0
 10
29.8098174820387385
 20
14.4690792071387104
 30
0.0
 40
0.3000000030072446
 50
180.4275816752137871
 51
254.9999864805199081
  0
ARC
  5
457
  8
0
 10
29.209834372826819
 20
14.4646016252353693
 30
0.0
 40
0.2999998137253201
 50
0.4275816752132237
 51
89.9999999999749036
  0
LINE
  5
458
  8
0
 10
29.2098343728269505
 20
14.7646014389606997
 30
0.0
 11
29.0098344590824091
 21
14.7646014389607796
 31
0.0
  0
ARC
  5
459
  8
0
 10
29.0098344590821888
 20
14.2646018124982703
 30
0.0
 40
0.4999996264625159
 50
89.9999999999751594
 51
180.0000000000277112
  0
LINE
  5
45A
  8
0
 10
28.5098348326196813
 20
14.2646018124980305
 30
0.0
 11
28.5098348326203705
 21
12.8199373165381498
 31
0.0
  0
ARC
  5
45B
  8
0
 10
29.0098349529927297
 20
12.8199373165383896
 30
0.0
 40
0.5000001203723569
 50
180.0000000000277112
 51
254.9999988438949003
  0
LINE
  5
45C
  8
0
 10
28.8804253895416601
 20
12.3369742897342896
 30
0.0
 11
30.9529663114880904
 21
11.7816385785964108
 31
0.0
  0
ARC
  5
45D
  8
0
 10
31.0823762248670299
 20
12.2646029113490105
 30
0.0
 40
0.5000014723897456
 50
254.9999988438952983
 51
270.0000000000105729
  0
LINE
  5
45E
  8
0
 10
31.0823762248671187
 20
11.7646014389592697
 30
0.0
 11
32.70983505674063
 21
11.7646014389595699
 31
0.0
  0
ARC
  5
45F
  8
0
 10
32.7098350567405731
 20
12.0646012148369106
 30
0.0
 40
0.2999997758773389
 50
270.0000000000108002
 51
359.9999999997332907
  0
LINE
  5
460
  8
0
 10
33.0098348326179121
 20
12.0646012148355108
 30
0.0
 11
33.0098348326217206
 21
12.8403371682733098
 31
0.0
  0
ARC
  5
461
  8
0
 10
33.3098353202352016
 20
12.8403371682718408
 30
0.0
 40
0.3000004876134818
 50
135.0000000001724914
 51
179.9999999997189946
  0
LINE
  5
462
  8
0
 10
33.0977029410838028
 20
13.0524695474219605
 30
0.0
 11
33.5219667241557602
 21
13.4767333304964794
 31
0.0
  0
ARC
  5
463
  8
0
 10
33.734099103306761
 20
13.2646009513467593
 30
0.0
 40
0.3000004876129155
 50
90.0000000000502069
 51
135.0000000001724914
  0
LINE
  5
464
  8
0
 10
33.7340991033064981
 20
13.5646014389596701
 30
0.0
 11
35.0098352061570566
 21
13.5646014389607803
 31
0.0
  0
ARC
  5
465
  8
0
 10
35.00983520615749
 20
13.0646018124982692
 30
0.0
 40
0.4999996264625159
 50
359.9999999999869829
 51
90.0000000000500364
  0
LINE
  5
466
  8
0
 10
35.5098348326200082
 20
13.0646018124981502
 30
0.0
 11
35.5098348326192905
 21
9.8146017642069587
 31
0.0
  0
ARC
  5
467
  8
0
 10
35.5098348326192905
 20
9.5146017642069616
 30
0.0
 40
0.2999999999999987
 50
270.0
 51
90.0
  0
LINE
  5
468
  8
0
 10
35.5098348326192905
 20
9.2146017642069609
 30
0.0
 11
35.5098348326219622
 21
6.7646006918851072
 31
0.0
  0
ARC
  5
469
  8
0
 10
34.5098355796968193
 20
6.7646006918840094
 30
0.0
 40
0.9999992529251454
 50
269.9999999999909051
 51
0.0000000000629097
  0
LINE
  5
46A
  8
0
 10
34.5098355796966629
 20
5.764601438958862
 30
0.0
 11
30.8098346084975816
 21
5.7646014389594589
 31
0.0
  0
ARC
  5
46B
  8
0
 10
30.8098346084976207
 20
6.0646012148369124
 30
0.0
 40
0.2999997758774526
 50
180.0000000000488001
 51
269.9999999999910756
  0
LINE
  5
46C
  8
0
 10
30.5098348326201716
 20
6.0646012148366557
 30
0.0
 11
30.5098348326196884
 21
6.6679303817799784
 31
0.0
  0
ARC
  5
46D
  8
0
 10
30.2098340563734595
 20
6.6679303817797404
 30
0.0
 40
0.3000007762462294
 50
0.0000000000454606
 51
80.0000010399155741
  0
LINE
  5
46E
  8
0
 10
30.2619286391050011
 20
6.9633734730822239
 30
0.0
 11
28.5966586446730808
 21
7.2570054721005119
 31
0.0
  0
ARC
  5
46F
  8
0
 10
28.5098346044057713
 20
6.7646018187660699
 30
0.0
 40
0.4999997717853926
 50
80.0000010399159436
 51
180.0000000000150067
  0
LINE
  5
470
  8
0
 10
28.0098348326203705
 20
6.7646018187659394
 30
0.0
 11
28.0098348326211699
 21
3.7646014389595521
 31
0.0
  0
ARC
  5
471
  8
0
 10
28.5098348326211486
 20
3.7646014389596831
 30
0.0
 40
0.4999999999999791
 50
180.0000000000150067
 51
270.0
  0
LINE
  5
472
  8
0
 10
28.5098348326211486
 20
3.264601438959704
 30
0.0
 11
67.5098348326155531
 21
3.264601438959704
 31
0.0
  0
ARC
  5
473
  8
0
 10
67.5098348326155531
 20
3.7646014389596831
 30
0.0
 40
0.4999999999999791
 50
270.0
 51
359.9999999999848797
  0
LINE
  5
474
  8
0
 10
68.0098348326155246
 20
3.7646014389595521
 30
0.0
 11
68.0098348326163347
 21
6.7646018187659394
 31
0.0
  0
ARC
  5
475
  8
0
 10
67.5098350608309374
 20
6.7646018187660699
 30
0.0
 40
0.4999997717853926
 50
359.9999999999848797
 51
99.9999989600841275
  0
LINE
  5
476
  8
0
 10
67.4230110205636208
 20
7.2570054721005119
 30
0.0
 11
65.757741026131697
 21
6.9633734730822239
 31
0.0
  0
ARC
  5
477
  8
0
 10
65.8098356088632244
 20
6.6679303817797404
 30
0.0
 40
0.3000007762462294
 50
99.9999989600844117
 51
179.9999999999544968
  0
LINE
  5
478
  8
0
 10
65.5098348326170026
 20
6.6679303817799784
 30
0.0
 11
65.5098348326165336
 21
6.0646012148366557
 31
0.0
  0
ARC
  5
479
  8
0
 10
65.209835056739081
 20
6.0646012148369124
 30
0.0
 40
0.2999997758774526
 50
270.0000000000088107
 51
359.9999999999512283
  0
LINE
  5
47A
  8
0
 10
65.2098350567391236
 20
5.7646014389594589
 30
0.0
 11
61.5098340855411507
 21
5.764601438958862
 31
0.0
  0
ARC
  5
47B
  8
0
 10
61.5098340855410015
 20
6.7646006918840094
 30
0.0
 40
0.9999992529251454
 50
179.9999999999371028
 51
270.0000000000089813
  0
LINE
  5
47C
  8
0
 10
60.5098348326158515
 20
6.7646006918851072
 30
0.0
 11
60.5098348326185373
 21
9.2146017642069609
 31
0.0
  0
ARC
  5
47D
  8
0
 10
60.5098348326185373
 20
9.5146017642069616
 30
0.0
 40
0.2999999999999987
 50
90.0
 51
270.0
  0
LINE
  5
47E
  8
0
 10
60.5098348326185373
 20
9.8146017642069587
 30
0.0
 11
60.5098348326166899
 21
13.0646018124979797
 31
0.0
  0
ARC
  5
47F
  8
0
 10
61.0098344590792081
 20
13.0646018124982692
 30
0.0
 40
0.4999996264625159
 50
89.999999999949523
 51
180.000000000032486
  0
LINE
  5
480
  8
0
 10
61.0098344590796486
 20
13.5646014389607803
 30
0.0
 11
62.2855705619302071
 21
13.5646014389596701
 31
0.0
  0
ARC
  5
481
  8
0
 10
62.2855705619299371
 20
13.2646009513467593
 30
0.0
 40
0.3000004876129155
 50
44.9999999998526974
 51
89.9999999999497931
  0
LINE
  5
482
  8
0
 10
62.4977029410808527
 20
13.47673333049657
 30
0.0
 11
62.9219667241531795
 21
13.0524695474220493
 31
0.0
  0
ARC
  5
483
  8
0
 10
62.7098343450018803
 20
12.8403371682718408
 30
0.0
 40
0.3000004876134818
 50
0.0000000002537828
 51
44.9999999998527329
  0
LINE
  5
484
  8
0
 10
63.0098348326153612
 20
12.8403371682731695
 30
0.0
 11
63.0098348326187931
 21
12.0646012148355108
 31
0.0
  0
ARC
  5
485
  8
0
 10
63.3098346084961321
 20
12.0646012148369106
 30
0.0
 40
0.2999997758773389
 50
180.0000000002665956
 51
269.9999999999890861
  0
LINE
  5
486
  8
0
 10
63.3098346084960824
 20
11.7646014389595699
 30
0.0
 11
64.9372934403695723
 21
11.7646014389592697
 31
0.0
  0
ARC
  5
487
  8
0
 10
64.9372934403696718
 20
12.2646029113490105
 30
0.0
 40
0.5000014723897456
 50
269.9999999999894271
 51
285.0000011561048154
  0
LINE
  5
488
  8
0
 10
65.0667033537485935
 20
11.7816385785964108
 30
0.0
 11
67.1392442756950345
 21
12.3369742897342896
 31
0.0
  0
ARC
  5
489
  8
0
 10
67.0098347122439719
 20
12.8199373165383896
 30
0.0
 40
0.5000001203723569
 50
285.0000011561047017
 51
359.9999999999723173
  0
LINE
  5
48A
  8
0
 10
67.5098348326163347
 20
12.8199373165381498
 30
0.0
 11
67.509834832617031
 21
14.2646018124980305
 31
0.0
  0
ARC
  5
48B
  8
0
 10
67.0098352061545057
 20
14.2646018124982703
 30
0.0
 40
0.4999996264625159
 50
359.9999999999723173
 51
90.0000000000248548
  0
LINE
  5
48C
  8
0
 10
67.0098352061542926
 20
14.7646014389607796
 30
0.0
 11
66.8098352924097441
 21
14.7646014389606997
 31
0.0
  0
ARC
  5
48D
  8
0
 10
66.8098352924098862
 20
14.4646016252353693
 30
0.0
 40
0.2999998137253201
 50
90.0000000000251106
 51
179.5724183247857866
  0
ARC
  5
48E
  8
0
 10
66.2098521831983362
 20
14.4690792071387104
 30
0.0
 40
0.3000000030072446
 50
285.0000135194750897
 51
359.5724183247864971
  0
LINE
  5
48F
  8
0
 10
66.2874979658831904
 20
14.1793014746684598
 30
0.0
 11
65.254032122758602
 21
13.9023848752340502
 31
0.0
  0
ARC
  5
490
  8
0
 10
65.1246224162166527
 20
14.3853480192024303
 30
0.0
 40
0.5000002705790142
 50
224.9999999999392912
 51
285.0000135194757149
  0
LINE
  5
491
  8
0
 10
64.771068834294752
 20
14.0317944372812704
 30
0.0
 11
64.0977029410799304
 21
14.7051603304975202
 31
0.0
  0
ARC
  5
492
  8
0
 10
64.3098353202303343
 20
14.9172927096474908
 30
0.0
 40
0.3000004876126778
 50
179.9999999999945999
 51
224.9999999999390923
  0
LINE
  5
493
  8
0
 10
64.0098348326176847
 20
14.9172927096475192
 30
0.0
 11
64.0098348326196458
 21
33.2646014389626714
 31
0.0
  0
LINE
  5
494
  8
0
 10
64.0098348326196458
 20
33.2646014389626714
 30
0.0
 11
62.8478337579409185
 21
48.0292241381591865
 31
0.0
  0
ARC
  5
495
  8
0
 10
65.8385857580696836
 20
48.2646014389578326
 30
0.0
 40
3.0000000000008948
 50
89.9999999999932356
 51
184.5000002608319107
  0
LINE
  5
496
  8
0
 10
65.8385857580700247
 20
51.2646014389587208
 30
0.0
 11
76.7098352883579366
 21
51.2646014389574276
 31
0.0
  0
ARC
  5
497
  8
0
 10
76.7098352883578798
 20
50.7646014389574489
 30
0.0
 40
0.4999999999999791
 50
0.0000000000252409
 51
89.9999999999934914
  0
LINE
  5
498
  8
0
 10
77.2098352883578656
 20
50.7646014389576834
 30
0.0
 11
77.2098352883583061
 21
49.7646010654208908
 31
0.0
  0
ARC
  5
499
  8
0
 10
77.7098349148215419
 20
49.7646010654210968
 30
0.0
 40
0.4999996264632291
 50
180.0000000000243858
 51
270.0000000000227942
  0
LINE
  5
49A
  8
0
 10
77.7098349148217409
 20
49.2646014389578824
 30
0.0
 11
80.0527289752784981
 21
49.2646014389588416
 31
0.0
  0
ARC
  5
49B
  8
0
 10
80.0527289752782849
 20
49.7646027230534713
 30
0.0
 40
0.5000012840946301
 50
270.00000000002359
 51
315.0000626722002153
  0
LINE
  5
49C
  8
0
 10
80.4062836605938855
 20
49.4110488111989028
 30
0.0
 11
80.8633885431344197
 21
49.8681546937363009
 31
0.0
  0
ARC
  5
49D
  8
0
 10
80.5098335042641935
 20
50.2217089591447419
 30
0.0
 40
0.5000017840958304
 50
315.00006267219959
 51
0.0000000004266187
  0
LINE
  5
49E
  8
0
 10
81.0098352883600512
 20
50.221708959148458
 30
0.0
 11
81.0098352883582464
 21
50.4646016630824619
 31
0.0
  0
ARC
  5
49F
  8
0
 10
80.7098355124802964
 20
50.4646016630802308
 30
0.0
 40
0.2999997758779374
 50
0.0000000004274669
 51
89.9999999999986358
  0
LINE
  5
4A0
  8
0
 10
80.7098355124803248
 20
50.7646014389581666
 30
0.0
 11
80.0098349148217522
 21
50.7646014389578824
 31
0.0
  0
ARC
  5
4A1
  8
0
 10
80.0098349148215391
 20
51.2646010654210968
 30
0.0
 40
0.4999996264632291
 50
180.0
 51
270.0000000000243858
  0
LINE
  5
4A2
  8
0
 10
79.5098352883583033
 20
51.2646010654210968
 30
0.0
 11
79.5098352883583033
 21
53.264601812493801
 31
0.0
  0
ARC
  5
4A3
  8
0
 10
80.0098349148215391
 20
53.264601812493801
 30
0.0
 40
0.4999996264632291
 50
90.0000000000472369
 51
180.0
  0
LINE
  5
4A4
  8
0
 10
80.009834914821127
 20
53.7646014389570297
 30
0.0
 11
84.5597490581703539
 21
53.7646014389607814
 31
0.0
  0
ARC
  5
4A5
  8
0
 10
84.559749058170766
 20
53.2646014389608098
 30
0.0
 40
0.4999999999999791
 50
19.9999999999924505
 51
90.0000000000472369
  0
LINE
  5
4A6
  8
0
 10
85.0295953685637045
 20
53.4356115106235734
 30
0.0
 11
85.6098348326189154
 21
51.8414166852548703
 31
0.0
  0
LINE
  5
4A7
  8
0
 10
85.6098348326189154
 20
51.8414166852548703
 30
0.0
 11
85.6098348326196685
 21
51.0646014389577374
 31
0.0
  0
ARC
  5
4A8
  8
0
 10
85.3098348326203961
 20
51.0646014389574532
 30
0.0
 40
0.2999999999992598
 50
270.0
 51
0.0000000000556355
  0
LINE
  5
4A9
  8
0
 10
85.3098348326203961
 20
50.7646014389581879
 30
0.0
 11
83.8098355763691103
 21
50.7646014389586213
 31
0.0
  0
ARC
  5
4AA
  8
0
 10
83.809835576369025
 20
50.4646011509496688
 30
0.0
 40
0.300000288008947
 50
89.9999999999837144
 51
179.9999999998642863
  0
LINE
  5
4AB
  8
0
 10
83.5098352883600938
 20
50.4646011509503865
 30
0.0
 11
83.509835288359497
 21
50.2217089591425676
 31
0.0
  0
ARC
  5
4AC
  8
0
 10
84.0098370724515746
 20
50.221708959141381
 30
0.0
 40
0.5000017840920709
 50
179.9999999998632063
 51
224.9999373275246057
  0
LINE
  5
4AD
  8
0
 10
83.6562820335823147
 20
49.8681546937373028
 30
0.0
 11
84.1133869161187846
 21
49.4110488111995494
 31
0.0
  0
ARC
  5
4AE
  8
0
 10
84.4669416014356358
 20
49.7646027230519792
 30
0.0
 40
0.5000012840939834
 50
224.9999373275252026
 51
269.9999999999976126
  0
LINE
  5
4AF
  8
0
 10
84.4669416014355932
 20
49.2646014389579889
 30
0.0
 11
87.5098348326173863
 21
49.2646014389578397
 31
0.0
  0
ARC
  5
4B0
  8
0
 10
87.5098348326174289
 20
49.7646014389578184
 30
0.0
 40
0.4999999999999791
 50
269.9999999999976126
 51
0.0000000000081535
  0
LINE
  5
4B1
  8
0
 10
88.0098348326174005
 20
49.7646014389578895
 30
0.0
 11
88.0098348326170452
 21
52.2646014389574631
 31
0.0
  0
LINE
  5
4B2
  8
0
 10
88.0098348326170452
 20
52.2646014389574631
 30
0.0
 11
84.3653898795546553
 21
62.2776316539440415
 31
0.0
  0
ARC
  5
4B3
  8
0
 10
82.9558509483756268
 20
61.7646014389555873
 30
0.0
 40
1.500000000000141
 50
19.9999999999957296
 51
89.9999999999962057
  0
ENDBLK
  5
4B5
  8
0
  0
ENDSEC
  0
SECTION
  2
ENTITIES
  0
INSERT
  5
280
  8
0
  2
*U3
 10
0.0
 20
0.0
 30
0.0
  0
ENDSEC
  0
EOF
