  0
SECTION
  2
HEADER
  9
$ACADVER
  1
AC1009
  9
$INSBASE
 10
0.0
 20
0.0
 30
0.0
  9
$EXTMIN
 10
3.4891548127252459
 20
2.9126018398246449
 30
0.0
  9
$EXTMAX
 10
62.489154812727577
 20
84.912601839826166
 30
0.0
  9
$LIMMIN
 10
0.0
 20
0.0
  9
$LIMMAX
 10
420.0
 20
297.0
  9
$ORTHOMODE
 70
     0
  9
$REGENMODE
 70
     1
  9
$FILLMODE
 70
     1
  9
$QTEXTMODE
 70
     0
  9
$MIRRTEXT
 70
     0
  9
$DRAGMODE
 70
     2
  9
$LTSCALE
 40
1.0
  9
$OSMODE
 70
   311
  9
$ATTMODE
 70
     1
  9
$TEXTSIZE
 40
2.5
  9
$TRACEWID
 40
1.0
  9
$TEXTSTYLE
  7
STANDARD
  9
$CLAYER
  8
0
  9
$CELTYPE
  6
BYLAYER
  9
$CECOLOR
 62
   256
  9
$DIMSCALE
 40
1.0
  9
$DIMASZ
 40
2.5
  9
$DIMEXO
 40
0.625
  9
$DIMDLI
 40
3.75
  9
$DIMRND
 40
0.0
  9
$DIMDLE
 40
0.0
  9
$DIMEXE
 40
1.25
  9
$DIMTP
 40
0.0
  9
$DIMTM
 40
0.0
  9
$DIMTXT
 40
2.5
  9
$DIMCEN
 40
2.5
  9
$DIMTSZ
 40
0.0
  9
$DIMTOL
 70
     0
  9
$DIMLIM
 70
     0
  9
$DIMTIH
 70
     0
  9
$DIMTOH
 70
     0
  9
$DIMSE1
 70
     0
  9
$DIMSE2
 70
     0
  9
$DIMTAD
 70
     1
  9
$DIMZIN
 70
     8
  9
$DIMBLK
  1

  9
$DIMASO
 70
     1
  9
$DIMSHO
 70
     1
  9
$DIMPOST
  1

  9
$DIMAPOST
  1

  9
$DIMALT
 70
     0
  9
$DIMALTD
 70
     3
  9
$DIMALTF
 40
0.03937007874016
  9
$DIMLFAC
 40
1.0
  9
$DIMTOFL
 70
     1
  9
$DIMTVP
 40
0.0
  9
$DIMTIX
 70
     0
  9
$DIMSOXD
 70
     0
  9
$DIMSAH
 70
     0
  9
$DIMBLK1
  1

  9
$DIMBLK2
  1

  9
$DIMSTYLE
  2
ISO-25
  9
$DIMCLRD
 70
     0
  9
$DIMCLRE
 70
     0
  9
$DIMCLRT
 70
     0
  9
$DIMTFAC
 40
1.0
  9
$DIMGAP
 40
0.625
  9
$LUNITS
 70
     2
  9
$LUPREC
 70
     4
  9
$SKETCHINC
 40
1.0
  9
$FILLETRAD
 40
0.0
  9
$AUNITS
 70
     0
  9
$AUPREC
 70
     0
  9
$MENU
  1
.
  9
$ELEVATION
 40
0.0
  9
$PELEVATION
 40
0.0
  9
$THICKNESS
 40
0.0
  9
$LIMCHECK
 70
     0
  9
$BLIPMODE
 70
     0
  9
$CHAMFERA
 40
0.0
  9
$CHAMFERB
 40
0.0
  9
$SKPOLY
 70
     0
  9
$TDCREATE
 40
2460892.9912170032
  9
$TDUPDATE
 40
2460892.9914992251
  9
$TDINDWG
 40
0.0002864699
  9
$TDUSRTIMER
 40
0.0002864236
  9
$USRTIMER
 70
     1
  9
$ANGBASE
 50
0.0
  9
$ANGDIR
 70
     0
  9
$PDMODE
 70
     0
  9
$PDSIZE
 40
0.0
  9
$PLINEWID
 40
0.0
  9
$COORDS
 70
     1
  9
$SPLFRAME
 70
     0
  9
$SPLINETYPE
 70
     6
  9
$SPLINESEGS
 70
     8
  9
$ATTDIA
 70
     1
  9
$ATTREQ
 70
     1
  9
$HANDLING
 70
     1
  9
$HANDSEED
  5
440
  9
$SURFTAB1
 70
     6
  9
$SURFTAB2
 70
     6
  9
$SURFTYPE
 70
     6
  9
$SURFU
 70
     6
  9
$SURFV
 70
     6
  9
$UCSNAME
  2

  9
$UCSORG
 10
0.0
 20
0.0
 30
0.0
  9
$UCSXDIR
 10
1.0
 20
0.0
 30
0.0
  9
$UCSYDIR
 10
0.0
 20
1.0
 30
0.0
  9
$PUCSNAME
  2

  9
$PUCSORG
 10
0.0
 20
0.0
 30
0.0
  9
$PUCSXDIR
 10
1.0
 20
0.0
 30
0.0
  9
$PUCSYDIR
 10
0.0
 20
1.0
 30
0.0
  9
$USERI1
 70
     0
  9
$USERI2
 70
     0
  9
$USERI3
 70
     0
  9
$USERI4
 70
     0
  9
$USERI5
 70
     0
  9
$USERR1
 40
0.0
  9
$USERR2
 40
0.0
  9
$USERR3
 40
0.0
  9
$USERR4
 40
0.0
  9
$USERR5
 40
0.0
  9
$WORLDVIEW
 70
     1
  9
$SHADEDGE
 70
     3
  9
$SHADEDIF
 70
    70
  9
$TILEMODE
 70
     1
  9
$MAXACTVP
 70
    64
  9
$PLIMCHECK
 70
     0
  9
$PEXTMIN
 10
0.0
 20
0.0
 30
0.0
  9
$PEXTMAX
 10
0.0
 20
0.0
 30
0.0
  9
$PLIMMIN
 10
0.0
 20
0.0
  9
$PLIMMAX
 10
12.0
 20
9.0
  9
$UNITMODE
 70
     0
  9
$VISRETAIN
 70
     1
  9
$PLINEGEN
 70
     0
  9
$PSLTSCALE
 70
     1
  0
ENDSEC
  0
SECTION
  2
TABLES
  0
TABLE
  2
VPORT
 70
     1
  0
VPORT
  2
*ACTIVE
 70
     0
 10
0.0
 20
0.0
 11
1.0
 21
1.0
 12
85.669795319016828
 22
-27.65098276064754
 13
0.0
 23
0.0
 14
10.0
 24
10.0
 15
10.0
 25
10.0
 16
0.0
 26
0.0
 36
1.0
 17
0.0
 27
0.0
 37
0.0
 40
259.42743004523862
 41
2.4760051880674441
 42
50.0
 43
0.0
 44
0.0
 50
0.0
 51
0.0
 71
     0
 72
  1000
 73
     1
 74
     3
 75
     0
 76
     1
 77
     0
 78
     0
  0
ENDTAB
  0
TABLE
  2
LTYPE
 70
     1
  0
LTYPE
  2
CONTINUOUS
 70
     0
  3
Solid line
 72
    65
 73
     0
 40
0.0
  0
ENDTAB
  0
TABLE
  2
LAYER
 70
     3
  0
LAYER
  2
0
 70
     0
 62
     7
  6
CONTINUOUS
  0
LAYER
  2
PERFIL
 70
     0
 62
     7
  6
CONTINUOUS
  0
LAYER
  2
COTAS
 70
     0
 62
     3
  6
CONTINUOUS
  0
ENDTAB
  0
TABLE
  2
STYLE
 70
     3
  0
STYLE
  2
STANDARD
 70
     0
 40
0.0
 41
1.0
 50
0.0
 71
     0
 42
2.5
  3
txt
  4

  0
STYLE
  2
ANNOTATIVE
 70
     0
 40
0.0
 41
1.0
 50
0.0
 71
     0
 42
2.5
  3
txt
  4

  0
STYLE
  2
ROMANS
 70
     0
 40
0.0
 41
1.0
 50
0.0
 71
     0
 42
5.0
  3
romans
  4

  0
ENDTAB
  0
TABLE
  2
VIEW
 70
     0
  0
ENDTAB
  0
TABLE
  2
UCS
 70
     0
  0
ENDTAB
  0
TABLE
  2
APPID
 70
    12
  0
APPID
  2
ACAD
 70
     0
  0
APPID
  2
ACAD_PSEXT
 70
     0
  0
APPID
  2
ACADANNOPO
 70
     0
  0
APPID
  2
ACADANNOTATIVE
 70
     0
  0
APPID
  2
ACAD_DSTYLE_DIMJAG
 70
     0
  0
APPID
  2
ACAD_DSTYLE_DIMTALN
 70
     0
  0
APPID
  2
ACAD_MLEADERVER
 70
     0
  0
APPID
  2
ACAD_NAV_VCDISPLAY
 70
     0
  0
APPID
  2
ACAD_DSTYLE_DIMJOGGED_JOGA
 70
     0
  0
APPID
  2
ACAECLAYERSTANDARD
 70
     0
  0
APPID
  2
ACCMTRANSPARENCY
 70
     0
  0
APPID
  2
ACAD_DSTYLE_DIMBREAK
 70
     0
  0
ENDTAB
  0
TABLE
  2
DIMSTYLE
 70
     6
  0
DIMSTYLE
  2
STANDARD
 70
     0
  3

  4

  5

  6

  7

 40
1.0
 41
0.18
 42
0.0625
 43
0.38
 44
0.18
 45
0.0
 46
0.0
 47
0.0
 48
0.0
140
0.18
141
0.09
142
0.0
143
25.399999999999999
144
1.0
145
0.0
146
1.0
147
0.09
 71
     0
 72
     0
 73
     1
 74
     1
 75
     0
 76
     0
 77
     0
 78
     0
170
     0
171
     2
172
     0
173
     0
174
     0
175
     0
176
     0
177
     0
178
     0
  0
DIMSTYLE
  2
ANNOTATIVE
 70
     0
  3

  4

  5

  6

  7

 40
0.0
 41
2.5
 42
0.625
 43
3.75
 44
1.25
 45
0.0
 46
0.0
 47
0.0
 48
0.0
140
2.5
141
2.5
142
0.0
143
0.03937007874016
144
1.0
145
0.0
146
1.0
147
0.625
 71
     0
 72
     0
 73
     0
 74
     0
 75
     0
 76
     0
 77
     1
 78
     8
170
     0
171
     3
172
     1
173
     0
174
     0
175
     0
176
     0
177
     0
178
     0
  0
DIMSTYLE
  2
ISO-25
 70
     0
  3

  4

  5

  6

  7

 40
1.0
 41
2.5
 42
0.625
 43
3.75
 44
1.25
 45
0.0
 46
0.0
 47
0.0
 48
0.0
140
2.5
141
2.5
142
0.0
143
0.03937007874016
144
1.0
145
0.0
146
1.0
147
0.625
 71
     0
 72
     0
 73
     0
 74
     0
 75
     0
 76
     0
 77
     1
 78
     8
170
     0
171
     3
172
     1
173
     0
174
     0
175
     0
176
     0
177
     0
178
     0
  0
DIMSTYLE
  2
1A1
 70
     0
  3

  4

  5

  6

  7

 40
0.0
 41
2.5
 42
0.8
 43
8.0
 44
1.3
 45
0.01
 46
0.0
 47
0.0
 48
0.0
140
2.2000000000000002
141
1.8
142
0.0
143
25.399999999999999
144
1.0
145
0.7
146
1.0
147
0.8
 71
     0
 72
     0
 73
     0
 74
     0
 75
     0
 76
     0
 77
     1
 78
     9
170
     0
171
     2
172
     1
173
     0
174
     1
175
     0
176
     0
177
     0
178
     0
  0
DIMSTYLE
  2
1A1-INERCIA
 70
     0
  3

  4

  5

  6

  7

 40
0.0
 41
2.5
 42
0.8
 43
8.0
 44
1.3
 45
0.0001
 46
0.0
 47
0.0
 48
0.0
140
1.5
141
1.8
142
0.0
143
25.399999999999999
144
1.0
145
0.7
146
1.0
147
0.8
 71
     0
 72
     0
 73
     0
 74
     0
 75
     0
 76
     0
 77
     1
 78
     9
170
     0
171
     2
172
     1
173
     0
174
     1
175
     0
176
     0
177
     0
178
     0
  0
DIMSTYLE
  2
1_A_1_000
 70
     0
  3

  4

  5

  6

  7

 40
0.0
 41
2.5
 42
0.8
 43
8.0
 44
1.3
 45
0.001
 46
0.0
 47
0.0
 48
0.0
140
2.2000000000000002
141
1.8
142
0.0
143
25.399999999999999
144
1.0
145
0.7
146
1.0
147
0.8
 71
     0
 72
     0
 73
     0
 74
     0
 75
     0
 76
     0
 77
     1
 78
     9
170
     0
171
     2
172
     1
173
     0
174
     1
175
     0
176
     0
177
     0
178
     0
  0
ENDTAB
  0
ENDSEC
  0
SECTION
  2
BLOCKS
  0
BLOCK
  8
0
  2
$MODEL_SPACE
 70
     0
 10
0.0
 20
0.0
 30
0.0
  3
$MODEL_SPACE
  1

  0
ENDBLK
  5
21
  8
0
  0
BLOCK
 67
     1
  8
0
  2
$PAPER_SPACE
 70
     0
 10
0.0
 20
0.0
 30
0.0
  3
$PAPER_SPACE
  1

  0
ENDBLK
  5
D5
 67
     1
  8
0
  0
BLOCK
  8
0
  2
*U2
 70
     1
 10
0.0
 20
0.0
 30
0.0
  3
*U2
  1

  0
ARC
  5
2C1
  8
PERFIL
  6
CONTINUOUS
 10
56.500030579107438
 20
4.6622776598884954
 30
0.0
 40
0.299999999999987
 50
289.99999999999062
 51
0.0000000000013589
  0
LINE
  5
2C2
  8
PERFIL
  6
CONTINUOUS
 10
56.602636622105102
 20
4.380369873652711
 30
0.0
 11
50.61211122154964
 21
2.1999969402357351
 31
0.0
  0
LINE
  5
2C3
  8
PERFIL
  6
CONTINUOUS
 10
50.61211122154964
 20
2.1999969402357351
 30
0.0
 11
46.900030579108829
 21
2.1999969402342421
 31
0.0
  0
ARC
  5
2C4
  8
PERFIL
  6
CONTINUOUS
 10
46.900030579108737
 20
2.4999969402342641
 30
0.0
 40
0.3000000000000398
 50
180.0
 51
270.00000000001768
  0
LINE
  5
2C5
  8
PERFIL
  6
CONTINUOUS
 10
46.600030579108697
 20
2.4999969402342721
 30
0.0
 11
46.600030579110573
 21
6.7999969402403329
 31
0.0
  0
ARC
  5
2C6
  8
PERFIL
  6
CONTINUOUS
 10
46.90003057911062
 20
6.7999969402401383
 30
0.0
 40
0.300000000000054
 50
90.000000000005414
 51
179.9999999999626
  0
LINE
  5
2C7
  8
PERFIL
  6
CONTINUOUS
 10
46.900030579110577
 20
7.0999969402401923
 30
0.0
 11
56.500030579107431
 21
7.099996940240203
 31
0.0
  0
ARC
  5
2C8
  8
PERFIL
  6
CONTINUOUS
 10
56.500030579107431
 20
6.7999969402401801
 30
0.0
 40
0.2999999999999971
 50
0.0
 51
89.999999999998636
  0
LINE
  5
2C9
  8
PERFIL
  6
CONTINUOUS
 10
56.800030579107428
 20
6.7999969402401881
 30
0.0
 11
56.800030579107428
 21
4.6622776598885016
 31
0.0
  0
LINE
  5
2CA
  8
PERFIL
  6
CONTINUOUS
 10
46.600030579110211
 20
8.1999969402342678
 30
0.0
 11
46.600030579108697
 21
27.449996940241672
 31
0.0
  0
ARC
  5
2CB
  8
PERFIL
  6
CONTINUOUS
 10
46.900030579108709
 20
27.449996940241679
 30
0.0
 40
0.3000000000000131
 50
89.999999999853443
 51
180.00000000000179
  0
LINE
  5
2CC
  8
PERFIL
  6
CONTINUOUS
 10
46.900030579109483
 20
27.74999694024169
 30
0.0
 11
50.951644774134387
 21
27.749996940231259
 31
0.0
  0
ARC
  5
2CD
  8
PERFIL
  6
CONTINUOUS
 10
50.951644774142643
 20
30.949996940231269
 30
0.0
 40
3.2000000000000108
 50
269.99999999985238
 51
337.49999999993253
  0
LINE
  5
2CE
  8
PERFIL
  6
CONTINUOUS
 10
53.908059278177319
 20
29.725409956659501
 30
0.0
 11
56.607642625858936
 21
36.242780687367443
 31
0.0
  0
ARC
  5
2CF
  8
PERFIL
  6
CONTINUOUS
 10
56.70003057911002
 20
36.204512344130812
 30
0.0
 40
0.0999999999999943
 50
0.0000000000048344
 51
157.4999999999263
  0
LINE
  5
2D0
  8
PERFIL
  6
CONTINUOUS
 10
56.800030579110029
 20
36.204512344130819
 30
0.0
 11
56.800030579110761
 21
28.117220854906709
 31
0.0
  0
ARC
  5
2D1
  8
PERFIL
  6
CONTINUOUS
 10
56.500030579110799
 20
28.117220854906659
 30
0.0
 40
0.2999999999999719
 50
283.49364620048698
 51
0.0000000000093525
  0
ARC
  5
2D2
  8
PERFIL
  6
CONTINUOUS
 10
57.200043174298251
 20
25.200033448076201
 30
0.0
 40
2.699999999999986
 50
103.49364620049241
 51
180.0000000000002
  0
LINE
  5
2D3
  8
PERFIL
  6
CONTINUOUS
 10
54.50004317429827
 20
25.20003344807618
 30
0.0
 11
54.50004317429827
 21
12.800033448077681
 31
0.0
  0
ARC
  5
2D4
  8
PERFIL
  6
CONTINUOUS
 10
57.200043174298301
 20
12.8000334480777
 30
0.0
 40
2.7000000000000308
 50
180.0
 51
256.50635379947857
  0
ARC
  5
2D5
  8
PERFIL
  6
CONTINUOUS
 10
56.500030579109293
 20
9.8828460412471948
 30
0.0
 40
0.2999999999999829
 50
0.0000000000020356
 51
76.506353799479982
  0
LINE
  5
2D6
  8
PERFIL
  6
CONTINUOUS
 10
56.800030579109269
 20
9.8828460412471912
 30
0.0
 11
56.800030579109261
 21
8.1999969402357351
 31
0.0
  0
ARC
  5
2D7
  8
PERFIL
  6
CONTINUOUS
 10
56.500030579109257
 20
8.1999969402357245
 30
0.0
 40
0.29999999999999
 50
270.00000000001359
 51
0.0000000000019984
  0
LINE
  5
2D8
  8
PERFIL
  6
CONTINUOUS
 10
56.500030579109328
 20
7.8999969402357344
 30
0.0
 11
46.900030579110187
 21
7.8999969402342201
 31
0.0
  0
ARC
  5
2D9
  8
PERFIL
  6
CONTINUOUS
 10
46.900030579110251
 20
8.1999969402342607
 30
0.0
 40
0.3000000000000398
 50
180.0
 51
269.99999999999051
  0
LINE
  5
2DA
  8
PERFIL
  6
CONTINUOUS
 10
13.87215450735644
 20
55.218559495285447
 30
0.0
 11
20.102464429393759
 21
55.799996940237207
 31
0.0
  0
LINE
  5
2DB
  8
PERFIL
  6
CONTINUOUS
 10
20.102464429393759
 20
55.799996940237207
 30
0.0
 11
35.200030579111939
 21
55.799996940237243
 31
0.0
  0
ARC
  5
2DC
  8
PERFIL
  6
CONTINUOUS
 10
35.200030579111882
 20
55.499996940237203
 30
0.0
 40
0.3000000000000398
 50
0.0000000000054451
 51
89.999999999990507
  0
LINE
  5
2DD
  8
PERFIL
  6
CONTINUOUS
 10
35.500030579111893
 20
55.499996940237217
 30
0.0
 11
35.500030579111893
 21
54.999996940229771
 31
0.0
  0
ARC
  5
2DE
  8
PERFIL
  6
CONTINUOUS
 10
38.20003057911191
 20
54.999996940229792
 30
0.0
 40
2.7000000000000171
 50
180.0
 51
270.0000000000116
  0
LINE
  5
2DF
  8
PERFIL
  6
CONTINUOUS
 10
38.200030579112479
 20
52.299996940229761
 30
0.0
 11
45.100030579111461
 21
52.299996940231281
 31
0.0
  0
ARC
  5
2E0
  8
PERFIL
  6
CONTINUOUS
 10
45.100030579111092
 20
51.999996940231213
 30
0.0
 40
0.3000000000000682
 50
0.0000000000705829
 51
89.999999999926047
  0
LINE
  5
2E1
  8
PERFIL
  6
CONTINUOUS
 10
45.40003057911116
 20
51.99999694023159
 30
0.0
 11
45.400030579112837
 21
50.49999694023159
 31
0.0
  0
ARC
  5
2E2
  8
PERFIL
  6
CONTINUOUS
 10
45.10003057911279
 20
50.499996940231298
 30
0.0
 40
0.3000000000000398
 50
269.99999999997289
 51
0.0000000000563549
  0
LINE
  5
2E3
  8
PERFIL
  6
CONTINUOUS
 10
45.100030579112619
 20
50.199996940231273
 30
0.0
 11
13.900030579110391
 21
50.199996940249122
 31
0.0
  0
ARC
  5
2E4
  8
PERFIL
  6
CONTINUOUS
 10
13.90003057911062
 20
50.499996940249162
 30
0.0
 40
0.3000000000000398
 50
180.00000000000611
 51
269.99999999995657
  0
LINE
  5
2E5
  8
PERFIL
  6
CONTINUOUS
 10
13.60003057911058
 20
50.499996940249133
 30
0.0
 11
13.60003057911058
 21
54.919857428631133
 31
0.0
  0
ARC
  5
2E6
  8
PERFIL
  6
CONTINUOUS
 10
13.90003057911062
 20
54.919857428631069
 30
0.0
 40
0.300000000000054
 50
95.331628755024767
 51
179.9999999999898
  0
LINE
  5
2E7
  8
PERFIL
  6
CONTINUOUS
 10
2.6000305791124272
 20
50.499996940259578
 30
0.0
 11
2.6000305791120581
 21
56.699996940238712
 31
0.0
  0
ARC
  5
2E8
  8
PERFIL
  6
CONTINUOUS
 10
2.9000305791120971
 20
56.699996940238663
 30
0.0
 40
0.300000000000054
 50
90.000000000005414
 51
179.99999999999321
  0
LINE
  5
2E9
  8
PERFIL
  6
CONTINUOUS
 10
2.9000305791120691
 20
56.999996940238702
 30
0.0
 11
7.2737867885205674
 21
56.999996940238717
 31
0.0
  0
ARC
  5
2EA
  8
PERFIL
  6
CONTINUOUS
 10
7.2737867885205674
 20
56.699996940238726
 30
0.0
 40
0.2999999999999904
 50
39.788860310575892
 51
90.0
  0
ARC
  5
2EB
  8
PERFIL
  6
CONTINUOUS
 10
11.50003057910908
 20
60.219778669622443
 30
0.0
 40
5.1999999999999673
 50
219.78886031057661
 51
275.33162875576983
  0
LINE
  5
2EC
  8
PERFIL
  6
CONTINUOUS
 10
11.98321582291541
 20
55.042276180954048
 30
0.0
 11
12.472154507354301
 21
55.087905894887363
 31
0.0
  0
ARC
  5
2ED
  8
PERFIL
  6
CONTINUOUS
 10
12.5000305791124
 20
54.789203828233369
 30
0.0
 40
0.3000000000000398
 50
0.0
 51
95.331628755775881
  0
LINE
  5
2EE
  8
PERFIL
  6
CONTINUOUS
 10
12.800030579112439
 20
54.789203828233319
 30
0.0
 11
12.80003057911097
 21
50.499996940252018
 31
0.0
  0
ARC
  5
2EF
  8
PERFIL
  6
CONTINUOUS
 10
12.50003057911095
 20
50.499996940252132
 30
0.0
 40
0.300000000000022
 50
269.99999999995657
 51
359.9999999999763
  0
LINE
  5
2F0
  8
PERFIL
  6
CONTINUOUS
 10
12.50003057911073
 20
50.19999694025212
 30
0.0
 11
2.9000305791121832
 21
50.199996940259567
 31
0.0
  0
ARC
  5
2F1
  8
PERFIL
  6
CONTINUOUS
 10
2.9000305791124101
 20
50.49999694025955
 30
0.0
 40
0.2999999999999829
 50
180.0
 51
269.99999999996072
  0
LINE
  5
2F2
  8
PERFIL
  6
CONTINUOUS
 10
2.9000305791145422
 20
49.39999694025807
 30
0.0
 11
12.500030579111209
 21
49.39999694025061
 31
0.0
  0
ARC
  5
2F3
  8
PERFIL
  6
CONTINUOUS
 10
12.50003057911098
 20
49.099996940250641
 30
0.0
 40
0.2999999999999829
 50
0.0000000000030533
 51
89.999999999960309
  0
LINE
  5
2F4
  8
PERFIL
  6
CONTINUOUS
 10
12.80003057911097
 20
49.099996940250641
 30
0.0
 11
12.800030579112439
 21
8.1999969402357351
 31
0.0
  0
ARC
  5
2F5
  8
PERFIL
  6
CONTINUOUS
 10
12.50003057911243
 20
8.1999969402357458
 30
0.0
 40
0.3000000000000114
 50
270.00000000001091
 51
359.99999999999801
  0
LINE
  5
2F6
  8
PERFIL
  6
CONTINUOUS
 10
12.50003057911249
 20
7.8999969402357229
 30
0.0
 11
2.9000305791125238
 21
7.8999969402342129
 31
0.0
  0
ARC
  5
2F7
  8
PERFIL
  6
CONTINUOUS
 10
2.9000305791124381
 20
8.1999969402342252
 30
0.0
 40
0.3000000000000114
 50
180.0
 51
270.00000000001359
  0
LINE
  5
2F8
  8
PERFIL
  6
CONTINUOUS
 10
2.6000305791124272
 20
8.1999969402342412
 30
0.0
 11
2.600030579114303
 21
49.099996940258109
 31
0.0
  0
ARC
  5
2F9
  8
PERFIL
  6
CONTINUOUS
 10
2.9000305791143139
 20
49.099996940258059
 30
0.0
 40
0.3000000000000167
 50
89.999999999956557
 51
179.9999999999915
  0
LINE
  5
2FA
  8
PERFIL
  6
CONTINUOUS
 10
13.90003057911073
 20
49.399996940247647
 30
0.0
 11
45.10003057911117
 21
49.399996940232747
 31
0.0
  0
ARC
  5
2FB
  8
PERFIL
  6
CONTINUOUS
 10
45.100030579110921
 20
49.099996940232707
 30
0.0
 40
0.3000000000000398
 50
0.0000000000156229
 51
89.999999999948088
  0
LINE
  5
2FC
  8
PERFIL
  6
CONTINUOUS
 10
45.400030579110947
 20
49.099996940232813
 30
0.0
 11
45.400030579120283
 21
8.1999969402387762
 31
0.0
  0
ARC
  5
2FD
  8
PERFIL
  6
CONTINUOUS
 10
45.100030579120236
 20
8.1999969402387585
 30
0.0
 40
0.3000000000000398
 50
270.00000000001631
 51
0.0000000000034373
  0
LINE
  5
2FE
  8
PERFIL
  6
CONTINUOUS
 10
45.100030579120322
 20
7.899996940238708
 30
0.0
 11
13.90003057911392
 21
7.8999969402342201
 31
0.0
  0
ARC
  5
2FF
  8
PERFIL
  6
CONTINUOUS
 10
13.90003057911397
 20
8.1999969402342607
 30
0.0
 40
0.3000000000000398
 50
180.00000000001151
 51
269.99999999999051
  0
LINE
  5
300
  8
PERFIL
  6
CONTINUOUS
 10
13.60003057911393
 20
8.1999969402342074
 30
0.0
 11
13.60003057911058
 21
49.099996940247621
 31
0.0
  0
ARC
  5
301
  8
PERFIL
  6
CONTINUOUS
 10
13.90003057911059
 20
49.099996940247649
 30
0.0
 40
0.3000000000000043
 50
89.999999999972829
 51
180.00000000000401
  0
LINE
  5
302
  8
PERFIL
  6
CONTINUOUS
 10
2.6000305791120581
 20
58.299996940237222
 30
0.0
 11
2.6000305791102098
 21
77.057633205296014
 31
0.0
  0
ARC
  5
303
  8
PERFIL
  6
CONTINUOUS
 10
2.9000305791102781
 20
77.057633205295986
 30
0.0
 40
0.300000000000068
 50
109.9999999997716
 51
179.99999999999591
  0
LINE
  5
304
  8
PERFIL
  6
CONTINUOUS
 10
2.79742453611368
 20
77.339540991532232
 30
0.0
 11
3.597424536118182
 21
77.630717178943044
 31
0.0
  0
ARC
  5
305
  8
PERFIL
  6
CONTINUOUS
 10
3.7000305791150652
 20
77.348809392706954
 30
0.0
 40
0.3000000000000114
 50
0.0
 51
109.9999999998328
  0
LINE
  5
306
  8
PERFIL
  6
CONTINUOUS
 10
4.0000305791150481
 20
77.348809392706585
 30
0.0
 11
4.0000305791106143
 21
73.999997022440965
 31
0.0
  0
ARC
  5
307
  8
PERFIL
  6
CONTINUOUS
 10
6.0000302055738644
 20
73.999997022440979
 30
0.0
 40
1.99999962646325
 50
180.0
 51
270.0000093053057
  0
ARC
  5
308
  8
PERFIL
  6
CONTINUOUS
 10
6.0000305791128312
 20
71.699997395978784
 30
0.0
 40
0.3000000000000114
 50
0.0
 51
90.00000930532255
  0
LINE
  5
309
  8
PERFIL
  6
CONTINUOUS
 10
6.3000305791128142
 20
71.699997395978684
 30
0.0
 11
6.30003057910909
 21
60.219778669622208
 31
0.0
  0
ARC
  5
30A
  8
PERFIL
  6
CONTINUOUS
 10
11.50003057910723
 20
60.219778669622158
 30
0.0
 40
5.1999999999981412
 50
180.0
 51
200.429294690429
  0
ARC
  5
30B
  8
PERFIL
  6
CONTINUOUS
 10
6.3459605260811136
 20
58.299996940237222
 30
0.0
 40
0.3000000000000149
 50
270.00000000000551
 51
20.429294690418811
  0
LINE
  5
30C
  8
PERFIL
  6
CONTINUOUS
 10
6.345960526081142
 20
57.99999694023721
 30
0.0
 11
2.9000305791120411
 21
57.99999694023721
 31
0.0
  0
ARC
  5
30D
  8
PERFIL
  6
CONTINUOUS
 10
2.9000305791120691
 20
58.299996940237222
 30
0.0
 40
0.3000000000000114
 50
180.0
 51
269.9999999999946
  0
LINE
  5
30E
  8
PERFIL
  6
CONTINUOUS
 10
45.1000305791203
 20
2.1999969402372228
 30
0.0
 11
13.90003057911397
 21
2.1999969402342501
 31
0.0
  0
ARC
  5
30F
  8
PERFIL
  6
CONTINUOUS
 10
13.90003057911394
 20
2.499996940234261
 30
0.0
 40
0.3000000000000114
 50
180.00000000000199
 51
270.00000000000341
  0
LINE
  5
310
  8
PERFIL
  6
CONTINUOUS
 10
13.60003057911393
 20
2.4999969402342401
 30
0.0
 11
13.60003057911393
 21
6.7999969402372207
 31
0.0
  0
ARC
  5
311
  8
PERFIL
  6
CONTINUOUS
 10
13.90003057911397
 20
6.7999969402371816
 30
0.0
 40
0.3000000000000398
 50
90.000000000005414
 51
179.9999999999925
  0
LINE
  5
312
  8
PERFIL
  6
CONTINUOUS
 10
13.90003057911394
 20
7.0999969402372178
 30
0.0
 11
45.1000305791203
 21
7.09999694023724
 31
0.0
  0
ARC
  5
313
  8
PERFIL
  6
CONTINUOUS
 10
45.100030579120236
 20
6.7999969402372002
 30
0.0
 40
0.3000000000000398
 50
0.0000000000054451
 51
89.999999999990507
  0
LINE
  5
314
  8
PERFIL
  6
CONTINUOUS
 10
45.400030579120283
 20
6.7999969402372207
 30
0.0
 11
45.400030579120283
 21
2.499996940237224
 31
0.0
  0
ARC
  5
315
  8
PERFIL
  6
CONTINUOUS
 10
45.100030579120222
 20
2.4999969402372808
 30
0.0
 40
0.3000000000000575
 50
270.00000000001631
 51
359.99999999998909
  0
ARC
  5
316
  8
PERFIL
  6
CONTINUOUS
 10
12.500030579112799
 20
2.4999969402342681
 30
0.0
 40
0.3000000000000291
 50
269.99999999994583
 51
0.0000000000244604
  0
LINE
  5
317
  8
PERFIL
  6
CONTINUOUS
 10
12.50003057911249
 20
2.1999969402342421
 30
0.0
 11
8.3879499366667005
 21
2.1999969402387052
 31
0.0
  0
LINE
  5
318
  8
PERFIL
  6
CONTINUOUS
 10
8.3879499366667005
 20
2.1999969402387052
 30
0.0
 11
2.7974245361129699
 21
4.2347817799472116
 31
0.0
  0
ARC
  5
319
  8
PERFIL
  6
CONTINUOUS
 10
2.90003057911062
 20
4.5166895661830528
 30
0.0
 40
0.3000000000000398
 50
180.0
 51
250.00000000000421
  0
LINE
  5
31A
  8
PERFIL
  6
CONTINUOUS
 10
2.6000305791105802
 20
4.5166895661830386
 30
0.0
 11
2.6000305791102098
 21
6.799996940237178
 31
0.0
  0
ARC
  5
31B
  8
PERFIL
  6
CONTINUOUS
 10
2.9000305791102221
 20
6.799996940237218
 30
0.0
 40
0.3000000000000043
 50
90.0
 51
180.0000000000075
  0
LINE
  5
31C
  8
PERFIL
  6
CONTINUOUS
 10
2.9000305791102221
 20
7.0999969402372223
 30
0.0
 11
12.500030579110581
 21
7.0999969402372178
 31
0.0
  0
ARC
  5
31D
  8
PERFIL
  6
CONTINUOUS
 10
12.500030579110559
 20
6.7999969402372029
 30
0.0
 40
0.3000000000000398
 50
0.0
 51
89.999999999958618
  0
LINE
  5
31E
  8
PERFIL
  6
CONTINUOUS
 10
12.80003057911059
 20
6.7999969402371931
 30
0.0
 11
12.800030579112811
 21
2.499996940234396
 31
0.0
  0
LINE
  5
31F
  8
PERFIL
  6
CONTINUOUS
 10
8.0000305791053563
 20
-0.0000030597657599
 30
0.0
 11
51.000030579109101
 21
-0.0000030597657599
 31
0.0
  0
LINE
  5
320
  8
PERFIL
  6
CONTINUOUS
 10
51.000030579109101
 20
-0.0000030597657599
 30
0.0
 11
58.013060794100682
 21
2.5525311904981289
 31
0.0
  0
ARC
  5
321
  8
PERFIL
  6
CONTINUOUS
 10
57.500030579112611
 20
3.9620701216771721
 30
0.0
 40
1.500000000000018
 50
289.99999999998192
 51
359.99992664335792
  0
LINE
  5
322
  8
PERFIL
  6
CONTINUOUS
 10
59.00003057911141
 20
3.9620682012047719
 30
0.0
 11
59.000030579109307
 21
13.80358246720593
 31
0.0
  0
ARC
  5
323
  8
PERFIL
  6
CONTINUOUS
 10
58.500043174804929
 20
13.8000334480747
 30
0.0
 40
0.4999999999998228
 50
0.4066910503037768
 51
89.999999999509328
  0
LINE
  5
324
  8
PERFIL
  6
CONTINUOUS
 10
58.5000431748092
 20
14.300033448074521
 30
0.0
 11
58.3000431748887
 21
14.300033448076251
 31
0.0
  0
ARC
  5
325
  8
PERFIL
  6
CONTINUOUS
 10
58.30004317488612
 20
14.000033448076181
 30
0.0
 40
0.3000000000000647
 50
89.999999999508759
 51
179.9999999759431
  0
LINE
  5
326
  8
PERFIL
  6
CONTINUOUS
 10
58.000043174886059
 20
14.00003344820214
 30
0.0
 11
58.000043174298341
 21
12.600033447951731
 31
0.0
  0
ARC
  5
327
  8
PERFIL
  6
CONTINUOUS
 10
57.700043174298273
 20
12.60003344807768
 30
0.0
 40
0.3000000000000718
 50
269.99999999999193
 51
359.99999997594449
  0
LINE
  5
328
  8
PERFIL
  6
CONTINUOUS
 10
57.70004317429823
 20
12.30003344807761
 30
0.0
 11
57.200043174298202
 21
12.30003344807767
 31
0.0
  0
ARC
  5
329
  8
PERFIL
  6
CONTINUOUS
 10
57.200043174298251
 20
12.800033448077659
 30
0.0
 40
0.4999999999999858
 50
180.0
 51
269.99999999999471
  0
LINE
  5
32A
  8
PERFIL
  6
CONTINUOUS
 10
56.700043174298273
 20
12.800033448077659
 30
0.0
 11
56.700043174298273
 21
25.20003344807618
 31
0.0
  0
ARC
  5
32B
  8
PERFIL
  6
CONTINUOUS
 10
57.200043174298287
 20
25.200033448076169
 30
0.0
 40
0.5000000000000142
 50
90.000000000206825
 51
179.99999999999841
  0
LINE
  5
32C
  8
PERFIL
  6
CONTINUOUS
 10
57.200043174296482
 20
25.700033448076191
 30
0.0
 11
57.700043174297193
 21
25.70003344807796
 31
0.0
  0
ARC
  5
32D
  8
PERFIL
  6
CONTINUOUS
 10
57.700043174298258
 20
25.400033448077679
 30
0.0
 40
0.3000000000003098
 50
0.0
 51
89.999999975856625
  0
LINE
  5
32E
  8
PERFIL
  6
CONTINUOUS
 10
58.000043174298568
 20
25.400033448077689
 30
0.0
 11
58.000043174893491
 21
23.999868075816959
 31
0.0
  0
ARC
  5
32F
  8
PERFIL
  6
CONTINUOUS
 10
58.300043174893581
 20
23.999868075944431
 30
0.0
 40
0.3000000000000824
 50
180.0
 51
270.09365703215741
  0
LINE
  5
330
  8
PERFIL
  6
CONTINUOUS
 10
58.30053356174885
 20
23.69986847674339
 30
0.0
 11
58.501817695989267
 21
23.70019841717135
 31
0.0
  0
ARC
  5
331
  8
PERFIL
  6
CONTINUOUS
 10
58.500043174803039
 20
24.20019526823603
 30
0.0
 40
0.500000000000041
 50
270.20334557613711
 51
359.59330896449387
  0
LINE
  5
332
  8
PERFIL
  6
CONTINUOUS
 10
59.000030579108547
 20
24.19664624923394
 30
0.0
 11
59.000030579108667
 21
43.399997661871481
 31
0.0
  0
ARC
  5
333
  8
PERFIL
  6
CONTINUOUS
 10
57.900030579108908
 20
43.399996940235717
 30
0.0
 40
1.099999999999989
 50
0.0000375854393728
 51
179.99999999757381
  0
LINE
  5
334
  8
PERFIL
  6
CONTINUOUS
 10
56.800030579108927
 20
43.399996940282307
 30
0.0
 11
56.800030579111137
 21
38.796808623454062
 31
0.0
  0
ARC
  5
335
  8
PERFIL
  6
CONTINUOUS
 10
56.500030579111169
 20
38.796808623453892
 30
0.0
 40
0.2999999999999747
 50
274.41172578580688
 51
0.0000000000315747
  0
ARC
  5
336
  8
PERFIL
  6
CONTINUOUS
 10
56.700030579110027
 20
36.204512344130777
 30
0.0
 40
2.3000000000000238
 50
94.411725785814099
 51
157.49999999993241
  0
LINE
  5
337
  8
PERFIL
  6
CONTINUOUS
 10
54.575107654335078
 20
37.084684238573011
 30
0.0
 11
51.87552430665346
 21
30.56731350786507
 31
0.0
  0
ARC
  5
338
  8
PERFIL
  6
CONTINUOUS
 10
50.951644774142643
 20
30.949996940231259
 30
0.0
 40
0.9999999999999968
 50
269.99999999983879
 51
337.4999999999315
  0
LINE
  5
339
  8
PERFIL
  6
CONTINUOUS
 10
50.951644774139822
 20
29.949996940231259
 30
0.0
 11
48.30003057910897
 21
29.949996940238709
 31
0.0
  0
ARC
  5
33A
  8
PERFIL
  6
CONTINUOUS
 10
48.30003057910983
 20
30.249996940238709
 30
0.0
 40
0.3000000000000114
 50
180.0
 51
269.9999999998372
  0
LINE
  5
33B
  8
PERFIL
  6
CONTINUOUS
 10
48.000030579109819
 20
30.249996940238709
 30
0.0
 11
48.000030579111119
 21
61.499996940234212
 31
0.0
  0
ARC
  5
33C
  8
PERFIL
  6
CONTINUOUS
 10
47.500030579111183
 20
61.499996940234283
 30
0.0
 40
0.4999999999999432
 50
0.0
 51
90.000000000022382
  0
LINE
  5
33D
  8
PERFIL
  6
CONTINUOUS
 10
47.500030579111012
 20
61.999996940234219
 30
0.0
 11
44.500030199302472
 21
61.999996940233927
 31
0.0
  0
ARC
  5
33E
  8
PERFIL
  6
CONTINUOUS
 10
44.500030199302522
 20
61.499997168448509
 30
0.0
 40
0.4999997717854221
 50
90.000000000006509
 51
189.9999989600702
  0
LINE
  5
33F
  8
PERFIL
  6
CONTINUOUS
 10
44.00762654596803
 20
61.413173128181313
 30
0.0
 11
44.301258544985949
 21
59.747903133748963
 31
0.0
  0
ARC
  5
340
  8
PERFIL
  6
CONTINUOUS
 10
44.596701636288493
 20
59.799997716480419
 30
0.0
 40
0.3000007762462343
 50
189.9999989600671
 51
269.99999999999449
  0
LINE
  5
341
  8
PERFIL
  6
CONTINUOUS
 10
44.596701636288451
 20
59.499996940234183
 30
0.0
 11
45.200030803233233
 21
59.499996940234119
 31
0.0
  0
ARC
  5
342
  8
PERFIL
  6
CONTINUOUS
 10
45.200030803233147
 20
59.19999716435661
 30
0.0
 40
0.2999997758774953
 50
0.0
 51
89.999999999991857
  0
LINE
  5
343
  8
PERFIL
  6
CONTINUOUS
 10
45.500030579110643
 20
59.199997164356631
 30
0.0
 11
45.500030579109762
 21
55.499996193159831
 31
0.0
  0
ARC
  5
344
  8
PERFIL
  6
CONTINUOUS
 10
44.500031326184541
 20
55.499996193160079
 30
0.0
 40
0.999999252925221
 50
270.00000000001631
 51
359.99999999998522
  0
LINE
  5
345
  8
PERFIL
  6
CONTINUOUS
 10
44.500031326184832
 20
54.499996940234858
 30
0.0
 11
42.050030253860882
 21
54.49999694023424
 31
0.0
  0
ARC
  5
346
  8
PERFIL
  6
CONTINUOUS
 10
41.750030253860871
 20
54.49999694023424
 30
0.0
 40
0.3000000000000114
 50
180.0
 51
0.0
  0
LINE
  5
347
  8
PERFIL
  6
CONTINUOUS
 10
41.450030253860859
 20
54.49999694023424
 30
0.0
 11
38.200030205571267
 21
54.499996940235349
 31
0.0
  0
ARC
  5
348
  8
PERFIL
  6
CONTINUOUS
 10
38.200030205571473
 20
54.999996566697916
 30
0.0
 40
0.4999996264625679
 50
180.0
 51
270.00000000005741
  0
LINE
  5
349
  8
PERFIL
  6
CONTINUOUS
 10
37.700030579108898
 20
54.999996566697909
 30
0.0
 11
37.700030579110781
 21
56.275732669546073
 31
0.0
  0
ARC
  5
34A
  8
PERFIL
  6
CONTINUOUS
 10
38.000031066723579
 20
56.275732669545697
 30
0.0
 40
0.3000004876128045
 50
135.00000000007049
 51
179.99999999993011
  0
LINE
  5
34B
  8
PERFIL
  6
CONTINUOUS
 10
37.78789868757304
 20
56.487865048695731
 30
0.0
 11
38.212162470648678
 21
56.91212883177252
 31
0.0
  0
ARC
  5
34C
  8
PERFIL
  6
CONTINUOUS
 10
38.424294849799772
 20
56.699996452621981
 30
0.0
 40
0.300000487613584
 50
89.999999999929443
 51
135.0000000000739
  0
LINE
  5
34D
  8
PERFIL
  6
CONTINUOUS
 10
38.424294849800141
 20
56.999996940235548
 30
0.0
 11
39.200030803232693
 21
56.99999694023446
 31
0.0
  0
ARC
  5
34E
  8
PERFIL
  6
CONTINUOUS
 10
39.200030803233183
 20
57.299996716111849
 30
0.0
 40
0.2999997758773567
 50
269.99999999990769
 51
0.0000000000535572
  0
LINE
  5
34F
  8
PERFIL
  6
CONTINUOUS
 10
39.500030579110529
 20
57.29999671611214
 30
0.0
 11
39.500030579108973
 21
58.927455547985858
 31
0.0
  0
ARC
  5
350
  8
PERFIL
  6
CONTINUOUS
 10
39.0000291067172
 20
58.927455547985161
 30
0.0
 40
0.500001472391773
 50
0.0
 51
15.00000115591979
  0
LINE
  5
351
  8
PERFIL
  6
CONTINUOUS
 10
39.482993439472118
 20
59.056865461363238
 30
0.0
 11
38.927657728335589
 21
61.129406383314631
 31
0.0
  0
ARC
  5
352
  8
PERFIL
  6
CONTINUOUS
 10
38.444694701531319
 20
60.999996819864172
 30
0.0
 40
0.5000001203723673
 50
15.00000115603269
 51
89.999999999957666
  0
LINE
  5
353
  8
PERFIL
  6
CONTINUOUS
 10
38.444694701531688
 20
61.499996940236528
 30
0.0
 11
37.000030205571079
 21
61.499996940237587
 31
0.0
  0
ARC
  5
354
  8
PERFIL
  6
CONTINUOUS
 10
37.000030205570681
 20
60.99999731377504
 30
0.0
 40
0.4999996264625502
 50
89.999999999957666
 51
180.0000000003468
  0
LINE
  5
355
  8
PERFIL
  6
CONTINUOUS
 10
36.500030579108142
 20
60.999997313772013
 30
0.0
 11
36.500030579109357
 21
60.799997400025632
 31
0.0
  0
ARC
  5
356
  8
PERFIL
  6
CONTINUOUS
 10
36.800030392834721
 20
60.799997400027472
 30
0.0
 40
0.2999998137253215
 50
180.0
 51
269.57241832436591
  0
ARC
  5
357
  8
PERFIL
  6
CONTINUOUS
 10
36.795552810930623
 20
60.200014290814003
 30
0.0
 40
0.3000000030072752
 50
15.00001351952775
 51
89.572418324717646
  0
LINE
  5
358
  8
PERFIL
  6
CONTINUOUS
 10
37.085330543400829
 20
60.277660073499142
 30
0.0
 11
37.36224714283594
 21
59.244194230375051
 31
0.0
  0
ARC
  5
359
  8
PERFIL
  6
CONTINUOUS
 10
36.879283998867614
 20
59.114784523832711
 30
0.0
 40
0.5000002705790769
 50
314.99999999986642
 51
15.000013519520889
  0
LINE
  5
35A
  8
PERFIL
  6
CONTINUOUS
 10
37.232837580788363
 20
58.76123094191032
 30
0.0
 11
36.559471687570408
 21
58.087865048695697
 31
0.0
  0
ARC
  5
35B
  8
PERFIL
  6
CONTINUOUS
 10
36.347339308420722
 20
58.299997427846471
 30
0.0
 40
0.3000004876127384
 50
269.99999999998909
 51
314.99999999985408
  0
LINE
  5
35C
  8
PERFIL
  6
CONTINUOUS
 10
36.347339308420658
 20
57.999996940233729
 30
0.0
 11
20.00003057910908
 21
57.999996940237217
 31
0.0
  0
LINE
  5
35D
  8
PERFIL
  6
CONTINUOUS
 10
20.00003057910908
 20
57.999996940237217
 30
0.0
 11
11.778791296651629
 21
57.232758003079446
 31
0.0
  0
ARC
  5
35E
  8
PERFIL
  6
CONTINUOUS
 10
11.500030579109049
 20
60.219778669622471
 30
0.0
 40
2.9999999999999711
 50
180.0
 51
275.33162875505832
  0
LINE
  5
35F
  8
PERFIL
  6
CONTINUOUS
 10
8.5000305791090796
 20
60.219778669622492
 30
0.0
 11
8.5000305791124617
 21
71.199997395978812
 31
0.0
  0
LINE
  5
360
  8
PERFIL
  6
CONTINUOUS
 10
8.5000305791124617
 20
71.199997395978812
 30
0.0
 11
9.5000305791079711
 21
71.19999739598029
 31
0.0
  0
ARC
  5
361
  8
PERFIL
  6
CONTINUOUS
 10
9.5000305791072321
 20
71.699997395980262
 30
0.0
 40
0.4999999999999787
 50
270.0000000000847
 51
359.99999999990149
  0
LINE
  5
362
  8
PERFIL
  6
CONTINUOUS
 10
10.0000305791072
 20
71.699997395979395
 30
0.0
 11
10.00003057911146
 21
74.042891082898294
 31
0.0
  0
ARC
  5
363
  8
PERFIL
  6
CONTINUOUS
 10
9.5000292950169865
 20
74.042891082899303
 30
0.0
 40
0.5000012840944806
 50
0.0
 51
45.000062672565598
  0
LINE
  5
364
  8
PERFIL
  6
CONTINUOUS
 10
9.8535832068692741
 20
74.396445768217006
 30
0.0
 11
9.396477324332551
 21
74.853550650752851
 31
0.0
  0
ARC
  5
365
  8
PERFIL
  6
CONTINUOUS
 10
9.0429230589251688
 20
74.499995611880635
 30
0.0
 40
0.5000017840964897
 50
45.000062672445488
 51
89.999999999876238
  0
LINE
  5
366
  8
PERFIL
  6
CONTINUOUS
 10
9.0429230589262488
 20
74.999997395977147
 30
0.0
 11
8.8000303549895591
 21
74.999997395977658
 31
0.0
  0
ARC
  5
367
  8
PERFIL
  6
CONTINUOUS
 10
8.8000303549889338
 20
74.699997620099708
 30
0.0
 40
0.2999997758779429
 50
89.999999999875143
 51
179.99999999999591
  0
LINE
  5
368
  8
PERFIL
  6
CONTINUOUS
 10
8.5000305791109838
 20
74.699997620099737
 30
0.0
 11
8.5000305791109252
 21
73.999997022442443
 31
0.0
  0
ARC
  5
369
  8
PERFIL
  6
CONTINUOUS
 10
8.0000309526476485
 20
73.999997022442471
 30
0.0
 40
0.4999996264632856
 50
270.00000000004559
 51
359.99999999999591
  0
LINE
  5
36A
  8
PERFIL
  6
CONTINUOUS
 10
8.0000309526480464
 20
73.499997395979193
 30
0.0
 11
6.0000302055742329
 21
73.499997395977715
 31
0.0
  0
ARC
  5
36B
  8
PERFIL
  6
CONTINUOUS
 10
6.0000302055738644
 20
73.999997022440965
 30
0.0
 40
0.4999996264632501
 50
180.0
 51
269.99999999997073
  0
LINE
  5
36C
  8
PERFIL
  6
CONTINUOUS
 10
5.5000305791106143
 20
73.999997022440965
 30
0.0
 11
5.5000305791053838
 21
78.185940931522168
 31
0.0
  0
ARC
  5
36D
  8
PERFIL
  6
CONTINUOUS
 10
6.0000305791053563
 20
78.185940931522822
 30
0.0
 40
0.4999999999999664
 50
109.9999999999494
 51
180.00000000007489
  0
LINE
  5
36E
  8
PERFIL
  6
CONTINUOUS
 10
5.8290205074429471
 20
78.655787241915903
 30
0.0
 11
8.0974245361138628
 21
79.481418787639427
 31
0.0
  0
ARC
  5
36F
  8
PERFIL
  6
CONTINUOUS
 10
8.2000305791113401
 20
79.199511001403565
 30
0.0
 40
0.3000000000000114
 50
0.0
 51
109.9999999999617
  0
LINE
  5
370
  8
PERFIL
  6
CONTINUOUS
 10
8.5000305791113533
 20
79.19951100140355
 30
0.0
 11
8.5000305791108985
 21
77.799997683985566
 31
0.0
  0
ARC
  5
371
  8
PERFIL
  6
CONTINUOUS
 10
8.8000308671198866
 20
77.799997683985509
 30
0.0
 40
0.300000288008988
 50
180.0
 51
270.00000000000267
  0
LINE
  5
372
  8
PERFIL
  6
CONTINUOUS
 10
8.800030867119915
 20
77.499997395976521
 30
0.0
 11
9.0429230589266467
 21
77.499997395976493
 31
0.0
  0
ARC
  5
373
  8
PERFIL
  6
CONTINUOUS
 10
9.0429230589266751
 20
77.999999180069466
 30
0.0
 40
0.500001784092973
 50
269.99999999999682
 51
314.99993732750551
  0
LINE
  5
374
  8
PERFIL
  6
CONTINUOUS
 10
9.396477324331272
 20
77.646444141199453
 30
0.0
 11
9.8535832068689881
 21
78.10354902373561
 31
0.0
  0
ARC
  5
375
  8
PERFIL
  6
CONTINUOUS
 10
9.5000292950154517
 20
78.457103709053854
 30
0.0
 40
0.5000012840957882
 50
314.9999373274988
 51
0.0000000000114309
  0
LINE
  5
376
  8
PERFIL
  6
CONTINUOUS
 10
10.00003057911124
 20
78.457103709053968
 30
0.0
 11
10.00003057911095
 21
81.499996940235775
 31
0.0
  0
ARC
  5
377
  8
PERFIL
  6
CONTINUOUS
 10
9.5000305791109252
 20
81.499996940235704
 30
0.0
 40
0.5000000000000285
 50
0.0
 51
90.000000000047237
  0
LINE
  5
378
  8
PERFIL
  6
CONTINUOUS
 10
9.5000305791105006
 20
81.999996940235718
 30
0.0
 11
8.0000305791124333
 21
81.999996940234226
 31
0.0
  0
LINE
  5
379
  8
PERFIL
  6
CONTINUOUS
 10
8.0000305791124333
 20
81.999996940234226
 30
0.0
 11
0.9870003641210303
 21
79.447462689970337
 31
0.0
  0
ARC
  5
37A
  8
PERFIL
  6
CONTINUOUS
 10
1.5000305791091071
 20
78.037923758791322
 30
0.0
 40
1.5
 50
109.9999999999815
 51
179.99999999999969
  0
LINE
  5
37B
  8
PERFIL
  6
CONTINUOUS
 10
0.000030579109108
 20
78.037923758791322
 30
0.0
 11
0.0000305791090796
 21
3.962070121677157
 31
0.0
  0
ARC
  5
37C
  8
PERFIL
  6
CONTINUOUS
 10
1.5000305791090791
 20
3.9620701216771539
 30
0.0
 40
1.5
 50
180.0
 51
250.0
  0
LINE
  5
37D
  8
PERFIL
  6
CONTINUOUS
 10
0.9870003641205755
 20
2.5525311904982919
 30
0.0
 11
8.0000305791053563
 21
-0.0000030597657599
 31
0.0
  0
ENDBLK
  5
37F
  8
0
  0
BLOCK
  8
0
  2
*U3
 70
     1
 10
0.0
 20
0.0
 30
0.0
  3
*U3
  1

  0
ARC
  5
381
  8
PERFIL
  6
CONTINUOUS
 10
59.989154812723612
 20
7.5748825594789011
 30
0.0
 40
0.299999999999987
 50
289.99999999999062
 51
0.0000000000013589
  0
LINE
  5
382
  8
PERFIL
  6
CONTINUOUS
 10
60.091760855721262
 20
7.2929747732431158
 30
0.0
 11
54.101235455165799
 21
5.1126018398261399
 31
0.0
  0
LINE
  5
383
  8
PERFIL
  6
CONTINUOUS
 10
54.101235455165799
 20
5.1126018398261399
 30
0.0
 11
50.389154812725003
 21
5.1126018398246478
 31
0.0
  0
ARC
  5
384
  8
PERFIL
  6
CONTINUOUS
 10
50.389154812724911
 20
5.4126018398246698
 30
0.0
 40
0.3000000000000398
 50
180.0
 51
270.00000000001768
  0
LINE
  5
385
  8
PERFIL
  6
CONTINUOUS
 10
50.089154812724871
 20
5.4126018398246769
 30
0.0
 11
50.089154812726747
 21
9.7126018398307394
 31
0.0
  0
ARC
  5
386
  8
PERFIL
  6
CONTINUOUS
 10
50.38915481272678
 20
9.712601839830544
 30
0.0
 40
0.300000000000054
 50
90.000000000005414
 51
179.9999999999626
  0
LINE
  5
387
  8
PERFIL
  6
CONTINUOUS
 10
50.389154812726758
 20
10.0126018398306
 30
0.0
 11
59.989154812723591
 21
10.01260183983061
 31
0.0
  0
ARC
  5
388
  8
PERFIL
  6
CONTINUOUS
 10
59.989154812723591
 20
9.7126018398305867
 30
0.0
 40
0.2999999999999971
 50
0.0
 51
89.999999999998636
  0
LINE
  5
389
  8
PERFIL
  6
CONTINUOUS
 10
60.289154812723602
 20
9.7126018398305938
 30
0.0
 11
60.289154812723602
 21
7.5748825594789082
 31
0.0
  0
LINE
  5
38A
  8
PERFIL
  6
CONTINUOUS
 10
50.08915481272637
 20
11.11260183982467
 30
0.0
 11
50.089154812724871
 21
30.362601839832081
 31
0.0
  0
ARC
  5
38B
  8
PERFIL
  6
CONTINUOUS
 10
50.389154812724883
 20
30.362601839832081
 30
0.0
 40
0.3000000000000131
 50
89.999999999853443
 51
180.00000000000179
  0
LINE
  5
38C
  8
PERFIL
  6
CONTINUOUS
 10
50.38915481272565
 20
30.662601839832089
 30
0.0
 11
54.440769007750561
 21
30.662601839821662
 31
0.0
  0
ARC
  5
38D
  8
PERFIL
  6
CONTINUOUS
 10
54.440769007758803
 20
33.862601839821671
 30
0.0
 40
3.2000000000000108
 50
269.99999999985238
 51
337.49999999993253
  0
LINE
  5
38E
  8
PERFIL
  6
CONTINUOUS
 10
57.397183511793479
 20
32.63801485624991
 30
0.0
 11
60.09676685947511
 21
39.155385586957841
 31
0.0
  0
ARC
  5
38F
  8
PERFIL
  6
CONTINUOUS
 10
60.18915481272618
 20
39.117117243721218
 30
0.0
 40
0.0999999999999943
 50
0.0000000000048344
 51
157.4999999999263
  0
LINE
  5
390
  8
PERFIL
  6
CONTINUOUS
 10
60.289154812726188
 20
39.117117243721232
 30
0.0
 11
60.289154812726942
 21
31.029825754497111
 31
0.0
  0
ARC
  5
391
  8
PERFIL
  6
CONTINUOUS
 10
59.989154812726959
 20
31.029825754497061
 30
0.0
 40
0.2999999999999719
 50
283.49364620048698
 51
0.0000000000093525
  0
ARC
  5
392
  8
PERFIL
  6
CONTINUOUS
 10
60.689167407914432
 20
28.1126383476666
 30
0.0
 40
2.699999999999986
 50
103.49364620049241
 51
180.0000000000002
  0
LINE
  5
393
  8
PERFIL
  6
CONTINUOUS
 10
57.989167407914437
 20
28.112638347666589
 30
0.0
 11
57.989167407914437
 21
15.712638347668079
 31
0.0
  0
ARC
  5
394
  8
PERFIL
  6
CONTINUOUS
 10
60.689167407914468
 20
15.712638347668101
 30
0.0
 40
2.7000000000000308
 50
180.0
 51
256.50635379947857
  0
ARC
  5
395
  8
PERFIL
  6
CONTINUOUS
 10
59.989154812725459
 20
12.7954509408376
 30
0.0
 40
0.2999999999999829
 50
0.0000000000020356
 51
76.506353799479982
  0
LINE
  5
396
  8
PERFIL
  6
CONTINUOUS
 10
60.289154812725442
 20
12.7954509408376
 30
0.0
 11
60.289154812725428
 21
11.112601839826141
 31
0.0
  0
ARC
  5
397
  8
PERFIL
  6
CONTINUOUS
 10
59.989154812725431
 20
11.11260183982613
 30
0.0
 40
0.29999999999999
 50
270.00000000001359
 51
0.0000000000019984
  0
LINE
  5
398
  8
PERFIL
  6
CONTINUOUS
 10
59.989154812725502
 20
10.81260183982614
 30
0.0
 11
50.38915481272636
 21
10.81260183982462
 31
0.0
  0
ARC
  5
399
  8
PERFIL
  6
CONTINUOUS
 10
50.389154812726417
 20
11.112601839824659
 30
0.0
 40
0.3000000000000398
 50
180.0
 51
269.99999999999051
  0
LINE
  5
39A
  8
PERFIL
  6
CONTINUOUS
 10
17.361278740972612
 20
58.131164394875853
 30
0.0
 11
23.591588663009929
 21
58.712601839827613
 31
0.0
  0
LINE
  5
39B
  8
PERFIL
  6
CONTINUOUS
 10
23.591588663009929
 20
58.712601839827613
 30
0.0
 11
38.689154812728113
 21
58.712601839827649
 31
0.0
  0
ARC
  5
39C
  8
PERFIL
  6
CONTINUOUS
 10
38.689154812728049
 20
58.412601839827609
 30
0.0
 40
0.3000000000000398
 50
0.0000000000054451
 51
89.999999999990507
  0
LINE
  5
39D
  8
PERFIL
  6
CONTINUOUS
 10
38.98915481272806
 20
58.41260183982763
 30
0.0
 11
38.98915481272806
 21
57.912601839820177
 31
0.0
  0
ARC
  5
39E
  8
PERFIL
  6
CONTINUOUS
 10
41.68915481272807
 20
57.912601839820198
 30
0.0
 40
2.7000000000000171
 50
180.0
 51
270.0000000000116
  0
LINE
  5
39F
  8
PERFIL
  6
CONTINUOUS
 10
41.689154812728638
 20
55.212601839820167
 30
0.0
 11
48.589154812727628
 21
55.21260183982168
 31
0.0
  0
ARC
  5
3A0
  8
PERFIL
  6
CONTINUOUS
 10
48.589154812727259
 20
54.912601839821619
 30
0.0
 40
0.3000000000000682
 50
0.0000000000705829
 51
89.999999999926047
  0
LINE
  5
3A1
  8
PERFIL
  6
CONTINUOUS
 10
48.88915481272732
 20
54.912601839822003
 30
0.0
 11
48.889154812728997
 21
53.412601839822003
 31
0.0
  0
ARC
  5
3A2
  8
PERFIL
  6
CONTINUOUS
 10
48.589154812728957
 20
53.412601839821697
 30
0.0
 40
0.3000000000000398
 50
269.99999999997289
 51
0.0000000000563549
  0
LINE
  5
3A3
  8
PERFIL
  6
CONTINUOUS
 10
48.589154812728793
 20
53.112601839821679
 30
0.0
 11
17.389154812726559
 21
53.112601839839527
 31
0.0
  0
ARC
  5
3A4
  8
PERFIL
  6
CONTINUOUS
 10
17.38915481272679
 20
53.412601839839567
 30
0.0
 40
0.3000000000000398
 50
180.00000000000611
 51
269.99999999995657
  0
LINE
  5
3A5
  8
PERFIL
  6
CONTINUOUS
 10
17.089154812726751
 20
53.412601839839539
 30
0.0
 11
17.089154812726751
 21
57.832462328221538
 31
0.0
  0
ARC
  5
3A6
  8
PERFIL
  6
CONTINUOUS
 10
17.38915481272679
 20
57.832462328221482
 30
0.0
 40
0.300000000000054
 50
95.331628755024767
 51
179.9999999999898
  0
LINE
  5
3A7
  8
PERFIL
  6
CONTINUOUS
 10
6.0891548127285944
 20
53.412601839849977
 30
0.0
 11
6.089154812728224
 21
59.612601839829111
 31
0.0
  0
ARC
  5
3A8
  8
PERFIL
  6
CONTINUOUS
 10
6.3891548127282638
 20
59.612601839829068
 30
0.0
 40
0.300000000000054
 50
90.000000000005414
 51
179.99999999999321
  0
LINE
  5
3A9
  8
PERFIL
  6
CONTINUOUS
 10
6.3891548127282363
 20
59.912601839829108
 30
0.0
 11
10.762911022136731
 21
59.912601839829122
 31
0.0
  0
ARC
  5
3AA
  8
PERFIL
  6
CONTINUOUS
 10
10.762911022136731
 20
59.612601839829139
 30
0.0
 40
0.2999999999999904
 50
39.788860310575892
 51
90.0
  0
ARC
  5
3AB
  8
PERFIL
  6
CONTINUOUS
 10
14.989154812725239
 20
63.132383569212848
 30
0.0
 40
5.1999999999999673
 50
219.78886031057661
 51
275.33162875576983
  0
LINE
  5
3AC
  8
PERFIL
  6
CONTINUOUS
 10
15.47234005653158
 20
57.95488108054446
 30
0.0
 11
15.961278740970471
 21
58.000510794477762
 31
0.0
  0
ARC
  5
3AD
  8
PERFIL
  6
CONTINUOUS
 10
15.98915481272857
 20
57.701808727823767
 30
0.0
 40
0.3000000000000398
 50
0.0
 51
95.331628755775881
  0
LINE
  5
3AE
  8
PERFIL
  6
CONTINUOUS
 10
16.289154812728611
 20
57.701808727823732
 30
0.0
 11
16.28915481272713
 21
53.412601839842431
 31
0.0
  0
ARC
  5
3AF
  8
PERFIL
  6
CONTINUOUS
 10
15.98915481272712
 20
53.412601839842537
 30
0.0
 40
0.300000000000022
 50
269.99999999995657
 51
359.9999999999763
  0
LINE
  5
3B0
  8
PERFIL
  6
CONTINUOUS
 10
15.989154812726889
 20
53.112601839842519
 30
0.0
 11
6.3891548127283491
 21
53.112601839849972
 31
0.0
  0
ARC
  5
3B1
  8
PERFIL
  6
CONTINUOUS
 10
6.3891548127285773
 20
53.412601839849962
 30
0.0
 40
0.2999999999999829
 50
180.0
 51
269.99999999996072
  0
LINE
  5
3B2
  8
PERFIL
  6
CONTINUOUS
 10
6.3891548127307081
 20
52.312601839848483
 30
0.0
 11
15.98915481272738
 21
52.312601839841022
 31
0.0
  0
ARC
  5
3B3
  8
PERFIL
  6
CONTINUOUS
 10
15.989154812727151
 20
52.012601839841032
 30
0.0
 40
0.2999999999999829
 50
0.0000000000030533
 51
89.999999999960309
  0
LINE
  5
3B4
  8
PERFIL
  6
CONTINUOUS
 10
16.28915481272713
 20
52.012601839841032
 30
0.0
 11
16.289154812728611
 21
11.112601839826141
 31
0.0
  0
ARC
  5
3B5
  8
PERFIL
  6
CONTINUOUS
 10
15.9891548127286
 20
11.11260183982615
 30
0.0
 40
0.3000000000000114
 50
270.00000000001091
 51
359.99999999999801
  0
LINE
  5
3B6
  8
PERFIL
  6
CONTINUOUS
 10
15.98915481272866
 20
10.812601839826129
 30
0.0
 11
6.389154812728691
 21
10.81260183982462
 31
0.0
  0
ARC
  5
3B7
  8
PERFIL
  6
CONTINUOUS
 10
6.3891548127286049
 20
11.112601839824629
 30
0.0
 40
0.3000000000000114
 50
180.0
 51
270.00000000001359
  0
LINE
  5
3B8
  8
PERFIL
  6
CONTINUOUS
 10
6.0891548127285944
 20
11.11260183982465
 30
0.0
 11
6.0891548127304702
 21
52.012601839848507
 31
0.0
  0
ARC
  5
3B9
  8
PERFIL
  6
CONTINUOUS
 10
6.3891548127304807
 20
52.012601839848472
 30
0.0
 40
0.3000000000000167
 50
89.999999999956557
 51
179.9999999999915
  0
LINE
  5
3BA
  8
PERFIL
  6
CONTINUOUS
 10
17.3891548127269
 20
52.312601839838052
 30
0.0
 11
48.589154812727351
 21
52.312601839823159
 31
0.0
  0
ARC
  5
3BB
  8
PERFIL
  6
CONTINUOUS
 10
48.589154812727088
 20
52.01260183982312
 30
0.0
 40
0.3000000000000398
 50
0.0000000000156229
 51
89.999999999948088
  0
LINE
  5
3BC
  8
PERFIL
  6
CONTINUOUS
 10
48.889154812727128
 20
52.012601839823219
 30
0.0
 11
48.88915481273645
 21
11.11260183982918
 31
0.0
  0
ARC
  5
3BD
  8
PERFIL
  6
CONTINUOUS
 10
48.58915481273641
 20
11.112601839829161
 30
0.0
 40
0.3000000000000398
 50
270.00000000001631
 51
0.0000000000034373
  0
LINE
  5
3BE
  8
PERFIL
  6
CONTINUOUS
 10
48.589154812736489
 20
10.81260183982911
 30
0.0
 11
17.38915481273008
 21
10.81260183982462
 31
0.0
  0
ARC
  5
3BF
  8
PERFIL
  6
CONTINUOUS
 10
17.389154812730141
 20
11.112601839824659
 30
0.0
 40
0.3000000000000398
 50
180.00000000001151
 51
269.99999999999051
  0
LINE
  5
3C0
  8
PERFIL
  6
CONTINUOUS
 10
17.089154812730101
 20
11.11260183982461
 30
0.0
 11
17.089154812726751
 21
52.01260183983802
 31
0.0
  0
ARC
  5
3C1
  8
PERFIL
  6
CONTINUOUS
 10
17.389154812726758
 20
52.012601839838048
 30
0.0
 40
0.3000000000000043
 50
89.999999999972829
 51
180.00000000000401
  0
LINE
  5
3C2
  8
PERFIL
  6
CONTINUOUS
 10
6.089154812728224
 20
61.21260183982762
 30
0.0
 11
6.0891548127263766
 21
79.970238104886405
 31
0.0
  0
ARC
  5
3C3
  8
PERFIL
  6
CONTINUOUS
 10
6.3891548127264448
 20
79.970238104886391
 30
0.0
 40
0.300000000000068
 50
109.9999999997716
 51
179.99999999999591
  0
LINE
  5
3C4
  8
PERFIL
  6
CONTINUOUS
 10
6.2865487697298468
 20
80.252145891122638
 30
0.0
 11
7.0865487697343488
 21
80.54332207853345
 31
0.0
  0
ARC
  5
3C5
  8
PERFIL
  6
CONTINUOUS
 10
7.189154812731231
 20
80.261414292297374
 30
0.0
 40
0.3000000000000114
 50
0.0
 51
109.9999999998328
  0
LINE
  5
3C6
  8
PERFIL
  6
CONTINUOUS
 10
7.489154812731214
 20
80.26141429229699
 30
0.0
 11
7.4891548127267811
 21
76.912601922031371
 31
0.0
  0
ARC
  5
3C7
  8
PERFIL
  6
CONTINUOUS
 10
9.4891544391900311
 20
76.912601922031385
 30
0.0
 40
1.99999962646325
 50
180.0
 51
270.0000093053057
  0
ARC
  5
3C8
  8
PERFIL
  6
CONTINUOUS
 10
9.4891548127289962
 20
74.612602295569189
 30
0.0
 40
0.3000000000000114
 50
0.0
 51
90.00000930532255
  0
LINE
  5
3C9
  8
PERFIL
  6
CONTINUOUS
 10
9.7891548127289791
 20
74.612602295569104
 30
0.0
 11
9.7891548127252577
 21
63.132383569212621
 31
0.0
  0
ARC
  5
3CA
  8
PERFIL
  6
CONTINUOUS
 10
14.989154812723401
 20
63.132383569212571
 30
0.0
 40
5.1999999999981412
 50
180.0
 51
200.429294690429
  0
ARC
  5
3CB
  8
PERFIL
  6
CONTINUOUS
 10
9.8350847596972812
 20
61.21260183982762
 30
0.0
 40
0.3000000000000149
 50
270.00000000000551
 51
20.429294690418811
  0
LINE
  5
3CC
  8
PERFIL
  6
CONTINUOUS
 10
9.8350847596973097
 20
60.912601839827609
 30
0.0
 11
6.389154812728207
 21
60.912601839827609
 31
0.0
  0
ARC
  5
3CD
  8
PERFIL
  6
CONTINUOUS
 10
6.3891548127282363
 20
61.21260183982762
 30
0.0
 40
0.3000000000000114
 50
180.0
 51
269.9999999999946
  0
LINE
  5
3CE
  8
PERFIL
  6
CONTINUOUS
 10
48.589154812736467
 20
5.1126018398276294
 30
0.0
 11
17.389154812730141
 21
5.1126018398246549
 31
0.0
  0
ARC
  5
3CF
  8
PERFIL
  6
CONTINUOUS
 10
17.389154812730109
 20
5.4126018398246671
 30
0.0
 40
0.3000000000000114
 50
180.00000000000199
 51
270.00000000000341
  0
LINE
  5
3D0
  8
PERFIL
  6
CONTINUOUS
 10
17.089154812730101
 20
5.4126018398246449
 30
0.0
 11
17.089154812730101
 21
9.7126018398276273
 31
0.0
  0
ARC
  5
3D1
  8
PERFIL
  6
CONTINUOUS
 10
17.389154812730141
 20
9.7126018398275882
 30
0.0
 40
0.3000000000000398
 50
90.000000000005414
 51
179.9999999999925
  0
LINE
  5
3D2
  8
PERFIL
  6
CONTINUOUS
 10
17.389154812730109
 20
10.012601839827621
 30
0.0
 11
48.589154812736467
 21
10.01260183982764
 31
0.0
  0
ARC
  5
3D3
  8
PERFIL
  6
CONTINUOUS
 10
48.58915481273641
 20
9.7126018398276042
 30
0.0
 40
0.3000000000000398
 50
0.0000000000054451
 51
89.999999999990507
  0
LINE
  5
3D4
  8
PERFIL
  6
CONTINUOUS
 10
48.88915481273645
 20
9.7126018398276273
 30
0.0
 11
48.88915481273645
 21
5.4126018398276301
 31
0.0
  0
ARC
  5
3D5
  8
PERFIL
  6
CONTINUOUS
 10
48.589154812736382
 20
5.4126018398276861
 30
0.0
 40
0.3000000000000575
 50
270.00000000001631
 51
359.99999999998909
  0
ARC
  5
3D6
  8
PERFIL
  6
CONTINUOUS
 10
15.98915481272897
 20
5.4126018398246742
 30
0.0
 40
0.3000000000000291
 50
269.99999999994583
 51
0.0000000000244604
  0
LINE
  5
3D7
  8
PERFIL
  6
CONTINUOUS
 10
15.98915481272866
 20
5.1126018398246478
 30
0.0
 11
11.877074170282871
 21
5.11260183982911
 31
0.0
  0
LINE
  5
3D8
  8
PERFIL
  6
CONTINUOUS
 10
11.877074170282871
 20
5.11260183982911
 30
0.0
 11
6.2865487697291371
 21
7.1473866795376182
 31
0.0
  0
ARC
  5
3D9
  8
PERFIL
  6
CONTINUOUS
 10
6.3891548127267859
 20
7.4292944657734594
 30
0.0
 40
0.3000000000000398
 50
180.0
 51
250.00000000000421
  0
LINE
  5
3DA
  8
PERFIL
  6
CONTINUOUS
 10
6.0891548127267461
 20
7.4292944657734452
 30
0.0
 11
6.0891548127263766
 21
9.7126018398275846
 31
0.0
  0
ARC
  5
3DB
  8
PERFIL
  6
CONTINUOUS
 10
6.389154812726388
 20
9.7126018398276237
 30
0.0
 40
0.3000000000000043
 50
90.0
 51
180.0000000000075
  0
LINE
  5
3DC
  8
PERFIL
  6
CONTINUOUS
 10
6.389154812726388
 20
10.01260183982763
 30
0.0
 11
15.989154812726751
 21
10.012601839827621
 31
0.0
  0
ARC
  5
3DD
  8
PERFIL
  6
CONTINUOUS
 10
15.989154812726721
 20
9.7126018398276095
 30
0.0
 40
0.3000000000000398
 50
0.0
 51
89.999999999958618
  0
LINE
  5
3DE
  8
PERFIL
  6
CONTINUOUS
 10
16.28915481272676
 20
9.7126018398275988
 30
0.0
 11
16.289154812728981
 21
5.4126018398248021
 31
0.0
  0
LINE
  5
3DF
  8
PERFIL
  6
CONTINUOUS
 10
11.48915481272152
 20
2.9126018398246449
 30
0.0
 11
54.489154812725282
 21
2.9126018398246449
 31
0.0
  0
LINE
  5
3E0
  8
PERFIL
  6
CONTINUOUS
 10
54.489154812725282
 20
2.9126018398246449
 30
0.0
 11
61.502185027716848
 21
5.4651360900885351
 31
0.0
  0
ARC
  5
3E1
  8
PERFIL
  6
CONTINUOUS
 10
60.989154812728792
 20
6.8746750212675769
 30
0.0
 40
1.500000000000018
 50
289.99999999998192
 51
359.99992664335792
  0
LINE
  5
3E2
  8
PERFIL
  6
CONTINUOUS
 10
62.48915481272757
 20
6.874673100795178
 30
0.0
 11
62.489154812725467
 21
16.71618736679633
 31
0.0
  0
ARC
  5
3E3
  8
PERFIL
  6
CONTINUOUS
 10
61.989167408421089
 20
16.712638347665099
 30
0.0
 40
0.4999999999998228
 50
0.4066910503037768
 51
89.999999999509328
  0
LINE
  5
3E4
  8
PERFIL
  6
CONTINUOUS
 10
61.989167408425381
 20
17.212638347664921
 30
0.0
 11
61.789167408504859
 21
17.212638347666651
 31
0.0
  0
ARC
  5
3E5
  8
PERFIL
  6
CONTINUOUS
 10
61.789167408502301
 20
16.91263834766659
 30
0.0
 40
0.3000000000000647
 50
89.999999999508759
 51
179.9999999759431
  0
LINE
  5
3E6
  8
PERFIL
  6
CONTINUOUS
 10
61.489167408502219
 20
16.912638347792551
 30
0.0
 11
61.489167407914508
 21
15.512638347542129
 31
0.0
  0
ARC
  5
3E7
  8
PERFIL
  6
CONTINUOUS
 10
61.189167407914439
 20
15.512638347668091
 30
0.0
 40
0.3000000000000718
 50
269.99999999999193
 51
359.99999997594449
  0
LINE
  5
3E8
  8
PERFIL
  6
CONTINUOUS
 10
61.189167407914397
 20
15.212638347668021
 30
0.0
 11
60.689167407914361
 21
15.21263834766807
 31
0.0
  0
ARC
  5
3E9
  8
PERFIL
  6
CONTINUOUS
 10
60.689167407914432
 20
15.71263834766807
 30
0.0
 40
0.4999999999999858
 50
180.0
 51
269.99999999999471
  0
LINE
  5
3EA
  8
PERFIL
  6
CONTINUOUS
 10
60.189167407914439
 20
15.71263834766806
 30
0.0
 11
60.189167407914439
 21
28.112638347666589
 31
0.0
  0
ARC
  5
3EB
  8
PERFIL
  6
CONTINUOUS
 10
60.689167407914447
 20
28.112638347666579
 30
0.0
 40
0.5000000000000142
 50
90.000000000206825
 51
179.99999999999841
  0
LINE
  5
3EC
  8
PERFIL
  6
CONTINUOUS
 10
60.689167407912649
 20
28.612638347666589
 30
0.0
 11
61.189167407913359
 21
28.612638347668369
 31
0.0
  0
ARC
  5
3ED
  8
PERFIL
  6
CONTINUOUS
 10
61.189167407914418
 20
28.312638347668081
 30
0.0
 40
0.3000000000003098
 50
0.0
 51
89.999999975856625
  0
LINE
  5
3EE
  8
PERFIL
  6
CONTINUOUS
 10
61.489167407914742
 20
28.312638347668091
 30
0.0
 11
61.489167408509658
 21
26.912472975407368
 31
0.0
  0
ARC
  5
3EF
  8
PERFIL
  6
CONTINUOUS
 10
61.789167408509762
 20
26.912472975534829
 30
0.0
 40
0.3000000000000824
 50
180.0
 51
270.09365703215741
  0
LINE
  5
3F0
  8
PERFIL
  6
CONTINUOUS
 10
61.789657795365009
 20
26.612473376333799
 30
0.0
 11
61.990941929605441
 21
26.612803316761759
 31
0.0
  0
ARC
  5
3F1
  8
PERFIL
  6
CONTINUOUS
 10
61.989167408419199
 20
27.112800167826428
 30
0.0
 40
0.500000000000041
 50
270.20334557613711
 51
359.59330896449387
  0
LINE
  5
3F2
  8
PERFIL
  6
CONTINUOUS
 10
62.489154812724721
 20
27.109251148824342
 30
0.0
 11
62.489154812724827
 21
46.31260256146188
 31
0.0
  0
ARC
  5
3F3
  8
PERFIL
  6
CONTINUOUS
 10
61.389154812725081
 20
46.312601839826129
 30
0.0
 40
1.099999999999989
 50
0.0000375854393728
 51
179.99999999757381
  0
LINE
  5
3F4
  8
PERFIL
  6
CONTINUOUS
 10
60.289154812725101
 20
46.312601839872713
 30
0.0
 11
60.289154812727297
 21
41.709413523044461
 31
0.0
  0
ARC
  5
3F5
  8
PERFIL
  6
CONTINUOUS
 10
59.989154812727328
 20
41.709413523044297
 30
0.0
 40
0.2999999999999747
 50
274.41172578580688
 51
0.0000000000315747
  0
ARC
  5
3F6
  8
PERFIL
  6
CONTINUOUS
 10
60.189154812726201
 20
39.117117243721189
 30
0.0
 40
2.3000000000000238
 50
94.411725785814099
 51
157.49999999993241
  0
LINE
  5
3F7
  8
PERFIL
  6
CONTINUOUS
 10
58.064231887951252
 20
39.99728913816341
 30
0.0
 11
55.364648540269627
 21
33.479918407455472
 31
0.0
  0
ARC
  5
3F8
  8
PERFIL
  6
CONTINUOUS
 10
54.440769007758803
 20
33.862601839821657
 30
0.0
 40
0.9999999999999968
 50
269.99999999983879
 51
337.4999999999315
  0
LINE
  5
3F9
  8
PERFIL
  6
CONTINUOUS
 10
54.440769007755982
 20
32.862601839821671
 30
0.0
 11
51.789154812725151
 21
32.862601839829111
 31
0.0
  0
ARC
  5
3FA
  8
PERFIL
  6
CONTINUOUS
 10
51.789154812725997
 20
33.162601839829122
 30
0.0
 40
0.3000000000000114
 50
180.0
 51
269.9999999998372
  0
LINE
  5
3FB
  8
PERFIL
  6
CONTINUOUS
 10
51.489154812725992
 20
33.162601839829122
 30
0.0
 11
51.489154812727293
 21
64.412601839824603
 31
0.0
  0
ARC
  5
3FC
  8
PERFIL
  6
CONTINUOUS
 10
50.98915481272735
 20
64.412601839824688
 30
0.0
 40
0.4999999999999432
 50
0.0
 51
90.000000000022382
  0
LINE
  5
3FD
  8
PERFIL
  6
CONTINUOUS
 10
50.989154812727179
 20
64.912601839824632
 30
0.0
 11
47.989154432918632
 21
64.912601839824333
 31
0.0
  0
ARC
  5
3FE
  8
PERFIL
  6
CONTINUOUS
 10
47.989154432918689
 20
64.412602068038922
 30
0.0
 40
0.4999997717854221
 50
90.000000000006509
 51
189.9999989600702
  0
LINE
  5
3FF
  8
PERFIL
  6
CONTINUOUS
 10
47.496750779584197
 20
64.325778027771719
 30
0.0
 11
47.790382778602122
 21
62.660508033339369
 31
0.0
  0
ARC
  5
400
  8
PERFIL
  6
CONTINUOUS
 10
48.085825869904653
 20
62.712602616070818
 30
0.0
 40
0.3000007762462343
 50
189.9999989600671
 51
269.99999999999449
  0
LINE
  5
401
  8
PERFIL
  6
CONTINUOUS
 10
48.085825869904617
 20
62.412601839824589
 30
0.0
 11
48.689155036849399
 21
62.412601839824532
 31
0.0
  0
ARC
  5
402
  8
PERFIL
  6
CONTINUOUS
 10
48.689155036849307
 20
62.112602063947023
 30
0.0
 40
0.2999997758774953
 50
0.0
 51
89.999999999991857
  0
LINE
  5
403
  8
PERFIL
  6
CONTINUOUS
 10
48.989154812726802
 20
62.112602063947037
 30
0.0
 11
48.989154812725928
 21
58.412601092750229
 31
0.0
  0
ARC
  5
404
  8
PERFIL
  6
CONTINUOUS
 10
47.9891555598007
 20
58.412601092750492
 30
0.0
 40
0.999999252925221
 50
270.00000000001631
 51
359.99999999998522
  0
LINE
  5
405
  8
PERFIL
  6
CONTINUOUS
 10
47.989155559800992
 20
57.412601839825271
 30
0.0
 11
45.539154487477042
 21
57.412601839824653
 31
0.0
  0
ARC
  5
406
  8
PERFIL
  6
CONTINUOUS
 10
45.23915448747703
 20
57.412601839824653
 30
0.0
 40
0.3000000000000114
 50
180.0
 51
0.0
  0
LINE
  5
407
  8
PERFIL
  6
CONTINUOUS
 10
44.939154487477019
 20
57.412601839824653
 30
0.0
 11
41.689154439187433
 21
57.412601839825747
 31
0.0
  0
ARC
  5
408
  8
PERFIL
  6
CONTINUOUS
 10
41.689154439187632
 20
57.912601466288322
 30
0.0
 40
0.4999996264625679
 50
180.0
 51
270.00000000005741
  0
LINE
  5
409
  8
PERFIL
  6
CONTINUOUS
 10
41.189154812725057
 20
57.912601466288322
 30
0.0
 11
41.18915481272694
 21
59.188337569136479
 31
0.0
  0
ARC
  5
40A
  8
PERFIL
  6
CONTINUOUS
 10
41.489155300339739
 20
59.18833756913611
 30
0.0
 40
0.3000004876128045
 50
135.00000000007049
 51
179.99999999993011
  0
LINE
  5
40B
  8
PERFIL
  6
CONTINUOUS
 10
41.2770229211892
 20
59.40046994828613
 30
0.0
 11
41.701286704264852
 21
59.824733731362933
 31
0.0
  0
ARC
  5
40C
  8
PERFIL
  6
CONTINUOUS
 10
41.913419083415931
 20
59.612601352212373
 30
0.0
 40
0.300000487613584
 50
89.999999999929443
 51
135.0000000000739
  0
LINE
  5
40D
  8
PERFIL
  6
CONTINUOUS
 10
41.913419083416287
 20
59.91260183982596
 30
0.0
 11
42.689155036848859
 21
59.912601839824873
 31
0.0
  0
ARC
  5
40E
  8
PERFIL
  6
CONTINUOUS
 10
42.689155036849343
 20
60.212601615702248
 30
0.0
 40
0.2999997758773567
 50
269.99999999990769
 51
0.0000000000535572
  0
LINE
  5
40F
  8
PERFIL
  6
CONTINUOUS
 10
42.989154812726689
 20
60.212601615702532
 30
0.0
 11
42.989154812725133
 21
61.840060447576271
 31
0.0
  0
ARC
  5
410
  8
PERFIL
  6
CONTINUOUS
 10
42.48915334033336
 20
61.84006044757556
 30
0.0
 40
0.500001472391773
 50
0.0
 51
15.00000115591979
  0
LINE
  5
411
  8
PERFIL
  6
CONTINUOUS
 10
42.972117673088292
 20
61.96947036095365
 30
0.0
 11
42.416781961951749
 21
64.042011282905037
 31
0.0
  0
ARC
  5
412
  8
PERFIL
  6
CONTINUOUS
 10
41.933818935147478
 20
63.912601719454571
 30
0.0
 40
0.5000001203723673
 50
15.00000115603269
 51
89.999999999957666
  0
LINE
  5
413
  8
PERFIL
  6
CONTINUOUS
 10
41.933818935147848
 20
64.412601839826948
 30
0.0
 11
40.489154439187239
 21
64.412601839828
 31
0.0
  0
ARC
  5
414
  8
PERFIL
  6
CONTINUOUS
 10
40.489154439186841
 20
63.912602213365439
 30
0.0
 40
0.4999996264625502
 50
89.999999999957666
 51
180.0000000003468
  0
LINE
  5
415
  8
PERFIL
  6
CONTINUOUS
 10
39.989154812724308
 20
63.912602213362419
 30
0.0
 11
39.989154812725531
 21
63.71260229961603
 31
0.0
  0
ARC
  5
416
  8
PERFIL
  6
CONTINUOUS
 10
40.28915462645088
 20
63.71260229961787
 30
0.0
 40
0.2999998137253215
 50
180.0
 51
269.57241832436591
  0
ARC
  5
417
  8
PERFIL
  6
CONTINUOUS
 10
40.284677044546783
 20
63.112619190404409
 30
0.0
 40
0.3000000030072752
 50
15.00001351952775
 51
89.572418324717646
  0
LINE
  5
418
  8
PERFIL
  6
CONTINUOUS
 10
40.574454777016989
 20
63.19026497308954
 30
0.0
 11
40.851371376452107
 21
62.156799129965457
 31
0.0
  0
ARC
  5
419
  8
PERFIL
  6
CONTINUOUS
 10
40.368408232483773
 20
62.027389423423116
 30
0.0
 40
0.5000002705790769
 50
314.99999999986642
 51
15.000013519520889
  0
LINE
  5
41A
  8
PERFIL
  6
CONTINUOUS
 10
40.721961814404523
 20
61.673835841500733
 30
0.0
 11
40.048595921186568
 21
61.00046994828611
 31
0.0
  0
ARC
  5
41B
  8
PERFIL
  6
CONTINUOUS
 10
39.836463542036881
 20
61.212602327436869
 30
0.0
 40
0.3000004876127384
 50
269.99999999998909
 51
314.99999999985408
  0
LINE
  5
41C
  8
PERFIL
  6
CONTINUOUS
 10
39.836463542036832
 20
60.912601839824127
 30
0.0
 11
23.48915481272525
 21
60.91260183982763
 31
0.0
  0
LINE
  5
41D
  8
PERFIL
  6
CONTINUOUS
 10
23.48915481272525
 20
60.91260183982763
 30
0.0
 11
15.2679155302678
 21
60.145362902669859
 31
0.0
  0
ARC
  5
41E
  8
PERFIL
  6
CONTINUOUS
 10
14.98915481272522
 20
63.132383569212877
 30
0.0
 40
2.9999999999999711
 50
180.0
 51
275.33162875505832
  0
LINE
  5
41F
  8
PERFIL
  6
CONTINUOUS
 10
11.989154812725239
 20
63.132383569212891
 30
0.0
 11
11.98915481272863
 21
74.112602295569218
 31
0.0
  0
LINE
  5
420
  8
PERFIL
  6
CONTINUOUS
 10
11.98915481272863
 20
74.112602295569218
 30
0.0
 11
12.98915481272414
 21
74.112602295570696
 31
0.0
  0
ARC
  5
421
  8
PERFIL
  6
CONTINUOUS
 10
12.989154812723401
 20
74.612602295570653
 30
0.0
 40
0.4999999999999787
 50
270.0000000000847
 51
359.99999999990149
  0
LINE
  5
422
  8
PERFIL
  6
CONTINUOUS
 10
13.48915481272337
 20
74.612602295569815
 30
0.0
 11
13.48915481272763
 21
76.955495982488713
 31
0.0
  0
ARC
  5
423
  8
PERFIL
  6
CONTINUOUS
 10
12.98915352863315
 20
76.955495982489708
 30
0.0
 40
0.5000012840944806
 50
0.0
 51
45.000062672565598
  0
LINE
  5
424
  8
PERFIL
  6
CONTINUOUS
 10
13.342707440485441
 20
77.309050667807412
 30
0.0
 11
12.88560155794872
 21
77.766155550343257
 31
0.0
  0
ARC
  5
425
  8
PERFIL
  6
CONTINUOUS
 10
12.53204729254133
 20
77.412600511471055
 30
0.0
 40
0.5000017840964897
 50
45.000062672445488
 51
89.999999999876238
  0
LINE
  5
426
  8
PERFIL
  6
CONTINUOUS
 10
12.53204729254241
 20
77.912602295567552
 30
0.0
 11
12.289154588605721
 21
77.912602295568064
 31
0.0
  0
ARC
  5
427
  8
PERFIL
  6
CONTINUOUS
 10
12.289154588605101
 20
77.612602519690114
 30
0.0
 40
0.2999997758779429
 50
89.999999999875143
 51
179.99999999999591
  0
LINE
  5
428
  8
PERFIL
  6
CONTINUOUS
 10
11.989154812727151
 20
77.612602519690142
 30
0.0
 11
11.98915481272709
 21
76.912601922032849
 31
0.0
  0
ARC
  5
429
  8
PERFIL
  6
CONTINUOUS
 10
11.48915518626381
 20
76.912601922032863
 30
0.0
 40
0.4999996264632856
 50
270.00000000004559
 51
359.99999999999591
  0
LINE
  5
42A
  8
PERFIL
  6
CONTINUOUS
 10
11.48915518626421
 20
76.412602295569599
 30
0.0
 11
9.4891544391904006
 21
76.412602295568121
 31
0.0
  0
ARC
  5
42B
  8
PERFIL
  6
CONTINUOUS
 10
9.4891544391900311
 20
76.912601922031371
 30
0.0
 40
0.4999996264632501
 50
180.0
 51
269.99999999997073
  0
LINE
  5
42C
  8
PERFIL
  6
CONTINUOUS
 10
8.9891548127267811
 20
76.912601922031371
 30
0.0
 11
8.9891548127215515
 21
81.098545831112574
 31
0.0
  0
ARC
  5
42D
  8
PERFIL
  6
CONTINUOUS
 10
9.4891548127215231
 20
81.098545831113228
 30
0.0
 40
0.4999999999999664
 50
109.9999999999494
 51
180.00000000007489
  0
LINE
  5
42E
  8
PERFIL
  6
CONTINUOUS
 10
9.3181447410591147
 20
81.568392141506308
 30
0.0
 11
11.58654876973003
 21
82.394023687229819
 31
0.0
  0
ARC
  5
42F
  8
PERFIL
  6
CONTINUOUS
 10
11.68915481272751
 20
82.11211590099397
 30
0.0
 40
0.3000000000000114
 50
0.0
 51
109.9999999999617
  0
LINE
  5
430
  8
PERFIL
  6
CONTINUOUS
 10
11.98915481272752
 20
82.112115900993956
 30
0.0
 11
11.98915481272706
 21
80.712602583575972
 31
0.0
  0
ARC
  5
431
  8
PERFIL
  6
CONTINUOUS
 10
12.28915510073605
 20
80.712602583575915
 30
0.0
 40
0.300000288008988
 50
180.0
 51
270.00000000000267
  0
LINE
  5
432
  8
PERFIL
  6
CONTINUOUS
 10
12.28915510073608
 20
80.412602295566927
 30
0.0
 11
12.53204729254281
 21
80.412602295566884
 31
0.0
  0
ARC
  5
433
  8
PERFIL
  6
CONTINUOUS
 10
12.53204729254284
 20
80.912604079659886
 30
0.0
 40
0.500001784092973
 50
269.99999999999682
 51
314.99993732750551
  0
LINE
  5
434
  8
PERFIL
  6
CONTINUOUS
 10
12.885601557947441
 20
80.559049040789844
 30
0.0
 11
13.34270744048515
 21
81.016153923326016
 31
0.0
  0
ARC
  5
435
  8
PERFIL
  6
CONTINUOUS
 10
12.98915352863162
 20
81.369708608644274
 30
0.0
 40
0.5000012840957882
 50
314.9999373274988
 51
0.0000000000114309
  0
LINE
  5
436
  8
PERFIL
  6
CONTINUOUS
 10
13.489154812727399
 20
81.369708608644373
 30
0.0
 11
13.48915481272712
 21
84.412601839826195
 31
0.0
  0
ARC
  5
437
  8
PERFIL
  6
CONTINUOUS
 10
12.98915481272709
 20
84.412601839826124
 30
0.0
 40
0.5000000000000285
 50
0.0
 51
90.000000000047237
  0
LINE
  5
438
  8
PERFIL
  6
CONTINUOUS
 10
12.989154812726669
 20
84.912601839826138
 30
0.0
 11
11.4891548127286
 21
84.912601839824646
 31
0.0
  0
LINE
  5
439
  8
PERFIL
  6
CONTINUOUS
 10
11.4891548127286
 20
84.912601839824646
 30
0.0
 11
4.4761245977371971
 21
82.360067589560742
 31
0.0
  0
ARC
  5
43A
  8
PERFIL
  6
CONTINUOUS
 10
4.9891548127252738
 20
80.950528658381728
 30
0.0
 40
1.5
 50
109.9999999999815
 51
179.99999999999969
  0
LINE
  5
43B
  8
PERFIL
  6
CONTINUOUS
 10
3.4891548127252738
 20
80.950528658381728
 30
0.0
 11
3.4891548127252459
 21
6.8746750212675627
 31
0.0
  0
ARC
  5
43C
  8
PERFIL
  6
CONTINUOUS
 10
4.9891548127252463
 20
6.87467502126756
 30
0.0
 40
1.5
 50
180.0
 51
250.0
  0
LINE
  5
43D
  8
PERFIL
  6
CONTINUOUS
 10
4.4761245977367423
 20
5.4651360900886976
 30
0.0
 11
11.48915481272152
 21
2.9126018398246449
 31
0.0
  0
ENDBLK
  5
43F
  8
0
  0
ENDSEC
  0
SECTION
  2
ENTITIES
  0
INSERT
  5
26C
  8
0
  2
*U3
 10
0.0
 20
0.0
 30
0.0
  0
ENDSEC
  0
EOF
